<svg xmlns="http://www.w3.org/2000/svg" xmlns:xlink="http://www.w3.org/1999/xlink" viewBox="0 0 1920 140"><defs><style>.cls-1,.cls-33{fill:none;}.cls-2{clip-path:url(#clip-path);}.cls-3{fill:#fdda8d;}.cls-4{clip-path:url(#clip-path-2);}.cls-5{fill:#fee1a1;}.cls-6{fill:#fff6ad;}.cls-7{fill:#f3bb78;}.cls-8{fill:#9eade4;}.cls-9{fill:url(#linear-gradient);}.cls-10{fill:url(#linear-gradient-2);}.cls-11{fill:url(#linear-gradient-3);}.cls-12,.cls-32{fill:#fff;}.cls-13{fill:#9063ce;}.cls-14{fill:#6b47a5;}.cls-15{fill:#7b56b7;}.cls-16{clip-path:url(#clip-path-3);}.cls-17{fill:#7551af;}.cls-18{fill:#55338c;}.cls-19{fill:#60399e;}.cls-20{fill:#3f2277;}.cls-21{fill:#ffb81d;}.cls-22{fill:#9e79d8;}.cls-23{fill:url(#linear-gradient-4);}.cls-24{fill:#798ab7;}.cls-25{fill:#6d48a8;}.cls-26{fill:#7252af;}.cls-27{fill:#6b44aa;}.cls-28{fill:#dcd1ed;}.cls-29{fill:#22a5b5;}.cls-30,.cls-31{fill:#3adbc0;}.cls-30{opacity:0.9;}.cls-31{opacity:0.2;}.cls-32,.cls-33{stroke:#fff;stroke-miterlimit:10;}.cls-32{opacity:0.25;}.cls-33{opacity:0.6;}.cls-34{opacity:0.3;}.cls-35{fill:#a3cce8;}.cls-36{fill:#0765bb;}</style><clipPath id="clip-path"><rect class="cls-1" width="1920" height="139.27"/></clipPath><clipPath id="clip-path-2"><rect class="cls-1" x="-87.71" y="-13.72" width="2278.28" height="562.6"/></clipPath><linearGradient id="linear-gradient" x1="88.93" y1="76.32" x2="88.93" y2="42.16" gradientUnits="userSpaceOnUse"><stop offset="0" stop-color="#fff6ad"/><stop offset="1" stop-color="#9eade4"/></linearGradient><linearGradient id="linear-gradient-2" x1="511.24" y1="162.67" x2="511.24" y2="119.1" xlink:href="#linear-gradient"/><linearGradient id="linear-gradient-3" x1="317.34" y1="115.21" x2="317.34" y2="14.18" gradientUnits="userSpaceOnUse"><stop offset="0" stop-color="#fff6ad"/><stop offset="0.93" stop-color="#9eade4"/></linearGradient><clipPath id="clip-path-3"><path class="cls-1" d="M310.24,96.74V95.59l.11-54.92,12.36.31s10.17,18.34,9.86,32-1.26,22.53-3.88,26"/></clipPath><linearGradient id="linear-gradient-4" x1="1480.76" y1="178.28" x2="1480.76" y2="74.08" gradientUnits="userSpaceOnUse"><stop offset="0.16" stop-color="#fff6ad"/><stop offset="1" stop-color="#9eade4"/></linearGradient></defs><title>bg_header_3</title><g id="content_masked"><g class="cls-2"><rect class="cls-3" x="-87.71" y="-13.72" width="2278.28" height="477.35"/><g class="cls-4"><path class="cls-5" d="M-95.44-48.22s270.31,321.11,1120.8,146S2269.23-76.08,2269.23-76.08l-57.14-59.72L561.65-219.39,108.94-141.1Z"/><path class="cls-6" d="M128.9-34.07S397.09,153.47,1188.75,52.62,2258.91-23.45,2258.91-23.45L2060.35-99.53,394.51-110.14Z"/><path class="cls-7" d="M-129.75,169C58,239.43,326.53,282.57,709.11,241.93c889.48-94.5,1573,79.58,1578.17,88L2310.49,249C1959.78,89.78,1111.39,142.85,608.54,199.47c-385,43.35-631-29.48-725.08-66Z"/></g><path class="cls-8" d="M1751.22,77.48l42.91-42.91a4.37,4.37,0,0,1,6.2,0L1830,64.24l-66.79,13.24Z"/><path class="cls-9" d="M190.56,69.56,160.73,40.29a5.28,5.28,0,0,0-7.48,0l-2.32,2.32-23-23a5.29,5.29,0,0,0-7.49,0l-34.2,34.2L68.5,36.07a5.31,5.31,0,0,0-7.49,0L-12.7,110.41,88.93,89.09l71.29-8.59Z"/><path class="cls-10" d="M443.43,144.44l52.18-52.17a7.22,7.22,0,0,1,10.23,0l73.2,73-67.8-4.14L476.09,141.3Z"/><path class="cls-11" d="M189.27,94.11,287.82-4.44a13.66,13.66,0,0,1,19.33,0L445.42,133.44l-128.08-7.82L251,88.18Z"/><path class="cls-12" d="M205,35.8h29.36s2.52-8.6-2-7.39c0,0,3.46-19.16-11.68-2,0,0,0-9.63-8.79,3.93C212,30.38,208.4,25.42,205,35.8Z"/><path class="cls-12" d="M-15,30.62H18.32s2.87-9.77-2.23-8.39c0,0,3.93-21.77-13.27-2.23,0,0,0-10.94-10,4.46C-7.16,24.46-11.2,18.83-15,30.62Z"/><path class="cls-12" d="M1785.21,25.3h24.16s-4-21.55-17.22-4.74C1792.15,20.56,1788.83,15.83,1785.21,25.3Z"/><path class="cls-13" d="M431.53,115.31h-2.31v-7.16h-3.54v-2h-2a2.79,2.79,0,0,0-3-2.91,2.87,2.87,0,0,0-3.05,3.05h-1.17V108h-2.76v-2.62h-3.34v-3.34h-4.21v3.2h-1.74v2.32H399V132.1l30.27,2.64h2.31Z"/><path class="cls-13" d="M317,70.23l-1.72-1.75-1.53,1.16-1.91-1.92-2.69,2.69-1.54-1.54v-2h-2v2.85h-2.16l-3.32-3.32-3.51,3.5H293v1.6H291.8V70h-1.27v-2.4H288.6a3.27,3.27,0,0,0-3.14-3.6V62.27h-1.08V57.71h-.55v4.56h-1V64c-2.76,0-3.06,3.52-3.06,3.52h-.92v2.13H276.7l-1-1V65.66h-4.05v2.73l-1.26,1.26V67.77h-.74l-1.09,1.09H257.91V70.4h-4v9.16h-4.47V93l53,17.44,8.85-3.47,3.57-2.68,2.45-12.66Z"/><path class="cls-13" d="M372.07,84.91c-5.18-.29-7.16-5.14-7.22-5.3,5.73,3.57,10.79-1.08,10.79-1.08h20.44s5.06,4.65,10.79,1.08c-.06.16-2,5-7.22,5.3H372.07Z"/><path class="cls-13" d="M379.38,66.82H393.5s4.82,4.48,10.13-1.08c0,.22-1.57,7.06-6.64,7.06H374.73c-5.07,0-6.6-6.84-6.64-7.06,5.31,5.56,10.13,1.08,10.13,1.08Z"/><path class="cls-13" d="M399.65,85.83v8.48H372.07V85.83Zm-1.33,7.07V86.75h-3.24v6.31Zm-4.65.25V86.67h-3.74v6.48Zm-11.88,0V86.67h-3.74v6.48Zm-5.15-.09V86.75H373.4V92.9Z"/><path class="cls-14" d="M399.65,84.91v.92H372.07v-.92h27.58Z"/><polygon class="cls-15" points="398.32 86.75 398.32 92.9 395.08 93.06 395.08 86.75 398.32 86.75"/><path class="cls-13" d="M379.38,60.09h-.17c-3.75,0-5.83-4.43-5.89-4.57,6.23,3.9,9.55-1,9.55-1h6s3.32,4.9,9.55,1c-.06.14-2.13,4.57-5.89,4.57H379.38Z"/><path class="cls-13" d="M396.08,73.83v4.7H375.64v-4.7Zm-2.16,3.7V74.46h-3.57v3.07Zm-5.11.09V74.37h-5.9v3.25Zm-7.43-.09V74.46H377.8v3.07Z"/><polygon class="cls-14" points="396.08 72.8 396.08 73.83 375.64 73.83 375.64 72.8 384.78 72.8 386.94 72.8 396.08 72.8"/><rect class="cls-15" x="390.35" y="74.46" width="3.57" height="3.07"/><rect class="cls-15" x="389.93" y="86.67" width="3.74" height="6.48"/><path class="cls-13" d="M392.34,61.17v5.65h-13V61.17Zm-1.91,4.48V62.5h-2.49v3.15Zm-3.28,0V62.49h-2.37v3.16Zm-3.37,0V62.5h-2.49v3.15Z"/><path class="cls-14" d="M392.34,60.09v1.08h-13V60.09h13Z"/><rect class="cls-15" x="387.94" y="62.5" width="2.49" height="3.16"/><rect class="cls-15" x="382.91" y="74.37" width="5.9" height="3.24"/><polygon class="cls-13" points="386.44 53.05 387.52 53.05 387.52 54.52 386.52 54.52 385.2 54.52 384.2 54.52 384.2 53.05 385.28 53.05 385.5 53.05 386.22 53.05 386.44 53.05"/><path class="cls-13" d="M387.24,49.75a1.44,1.44,0,0,1-.8,2.14v1.16h-1.16V51.89a1.44,1.44,0,0,1-.81-2.14,9.54,9.54,0,0,1,1.39-2A9.2,9.2,0,0,1,387.24,49.75Z"/><rect class="cls-15" x="384.78" y="62.49" width="2.37" height="3.17"/><rect class="cls-15" x="381.29" y="62.5" width="2.49" height="3.16"/><rect class="cls-15" x="378.05" y="86.67" width="3.74" height="6.48"/><rect class="cls-15" x="377.8" y="74.46" width="3.57" height="3.07"/><polygon class="cls-15" points="376.64 86.75 376.64 93.06 373.4 92.9 373.4 86.75 376.64 86.75"/><rect class="cls-13" x="368.09" y="94.31" width="35.02" height="22.39"/><rect class="cls-13" x="361.74" y="86.67" width="7.67" height="30.03"/><rect class="cls-13" x="354.87" y="92.41" width="7.67" height="24.29"/><rect class="cls-13" x="400.81" y="96.88" width="7.37" height="24.21"/><rect class="cls-13" x="408.18" y="90.88" width="6.03" height="32.43"/><rect class="cls-13" x="421.72" y="99.67" width="11.98" height="20.97"/><rect class="cls-13" x="429.98" y="113.35" width="15.35" height="20.09"/><polygon class="cls-13" points="358.71 92.41 358.71 88.79 356.33 88.79 352.66 92.46 352.66 94.31 349.45 94.31 349.45 89.91 344.61 89.91 342.29 87.58 339.59 87.58 339.59 90.88 336.61 90.88 336.61 96.88 350.1 96.88 356.15 102.56 359.31 102.05 358.71 92.41"/><g class="cls-16"><rect class="cls-17" x="311.32" y="95.66" width="24.71" height="1.34"/><rect class="cls-18" x="311.32" y="94.32" width="24.71" height="1.34"/><rect class="cls-17" x="311.32" y="92.98" width="24.71" height="1.34"/><rect class="cls-18" x="311.32" y="91.64" width="24.71" height="1.34"/><rect class="cls-17" x="311.32" y="90.3" width="24.71" height="1.34"/><rect class="cls-18" x="311.32" y="88.96" width="24.71" height="1.34"/><rect class="cls-17" x="311.32" y="87.62" width="24.71" height="1.34"/><rect class="cls-18" x="311.32" y="86.28" width="24.71" height="1.34"/><rect class="cls-17" x="311.32" y="84.94" width="24.71" height="1.34"/><rect class="cls-18" x="311.32" y="83.6" width="24.71" height="1.34"/><rect class="cls-17" x="311.32" y="82.26" width="24.71" height="1.34"/><rect class="cls-18" x="311.32" y="80.92" width="24.71" height="1.34"/><rect class="cls-17" x="311.32" y="79.58" width="24.71" height="1.34"/><rect class="cls-18" x="311.32" y="78.24" width="24.71" height="1.34"/><rect class="cls-17" x="311.32" y="76.9" width="24.71" height="1.34"/><rect class="cls-18" x="311.32" y="75.56" width="24.71" height="1.34"/><rect class="cls-17" x="311.32" y="74.22" width="24.71" height="1.34"/><rect class="cls-18" x="311.32" y="72.88" width="24.71" height="1.34"/><rect class="cls-17" x="311.32" y="71.54" width="24.71" height="1.34"/><rect class="cls-18" x="311.32" y="70.2" width="24.71" height="1.34"/><rect class="cls-17" x="311.32" y="68.86" width="24.71" height="1.34"/><rect class="cls-18" x="311.32" y="67.52" width="24.71" height="1.34"/><rect class="cls-17" x="311.32" y="66.18" width="24.71" height="1.34"/><rect class="cls-18" x="311.32" y="64.84" width="24.71" height="1.34"/><rect class="cls-17" x="311.32" y="63.5" width="24.71" height="1.34"/><rect class="cls-18" x="311.32" y="62.16" width="24.71" height="1.34"/><rect class="cls-17" x="311.32" y="60.82" width="24.71" height="1.34"/><rect class="cls-18" x="311.32" y="59.48" width="24.71" height="1.34"/><rect class="cls-17" x="311.32" y="58.14" width="24.71" height="1.34"/><rect class="cls-18" x="311.32" y="56.8" width="24.71" height="1.34"/><rect class="cls-17" x="311.32" y="55.46" width="24.71" height="1.34"/><rect class="cls-18" x="311.32" y="54.12" width="24.71" height="1.34"/><rect class="cls-17" x="311.32" y="52.78" width="24.71" height="1.34"/><rect class="cls-18" x="311.32" y="51.44" width="24.71" height="1.34"/><rect class="cls-17" x="311.32" y="50.1" width="24.71" height="1.34"/><rect class="cls-18" x="311.32" y="48.76" width="24.71" height="1.34"/><rect class="cls-17" x="311.32" y="47.42" width="24.71" height="1.34"/><rect class="cls-18" x="311.32" y="46.08" width="24.71" height="1.34"/><rect class="cls-17" x="311.32" y="44.74" width="24.71" height="1.34"/><rect class="cls-18" x="311.32" y="43.4" width="24.71" height="1.34"/></g><path class="cls-1" d="M310.05,95V39.54l10.38.21s7.55,13.41,7.23,24.94.94,24.32-4,32.49S310.05,95,310.05,95Z"/><polygon class="cls-13" points="326.97 42.37 326.24 42.37 323.48 42.37 323.48 40.76 331.27 40.76 331.27 42.37 326.97 42.37"/><path class="cls-13" d="M325.55,46c3.91,7.37,14.71,31.15,4.43,52.68l-2.18-.26c8.27-20.87.52-44.47-2.48-52.16Z"/><path class="cls-13" d="M327,42.37v2L325.55,46c-.17-.33-.33-.62-.48-.88l1.17-1.17V42.37Z"/><path class="cls-13" d="M325.55,46l-.23.26q-.21-.56-.39-1l.14-.15C325.22,45.36,325.38,45.65,325.55,46Z"/><path class="cls-13" d="M325.32,46.24l-.61.7c-.13-.36-.27-.71-.42-1.06l.64-.63Q325.11,45.69,325.32,46.24Z"/><path class="cls-13" d="M324.71,46.94c4.6,12,6.8,28.85.25,51.13l-2.58-.3c14.73-40-10.72-68-10.72-68V96.53l-3-.35V24.06s9.61,6.93,15.64,21.82C324.44,46.23,324.58,46.58,324.71,46.94Z"/><path class="cls-13" d="M325.07,45.1l-.14.15c-.4-1-.65-1.53-.67-1.57S324.59,44.22,325.07,45.1Z"/><rect class="cls-14" x="306.5" y="45.5" width="2.15" height="50.68"/><polygon class="cls-13" points="308.9 25.6 308.9 8.41 309.63 6.14 309.63 26.02 308.9 25.6"/><polygon class="cls-13" points="442.22 100.38 443.13 100.38 444.77 100.38 444.77 100.39 445.05 100.39 446.19 100.39 447.43 100.39 447.43 101 446.9 101.53 446.9 102.67 447.88 102.67 447.88 103.9 449.43 103.9 449.43 105.86 448.61 105.86 448.61 145 437.62 145 437.62 105.86 436.8 105.86 436.8 103.9 438.36 103.9 438.36 102.67 439.33 102.67 439.33 101.53 438.8 101 438.8 100.39 440.26 100.39 442.22 100.38"/><path class="cls-19" d="M447.45,88.94l-.26.48,0,0-.1-.23-.14.11,0,.3-.27-.21-.27.36.15.39-.08.08-1.12,1.23-.67-1.77,1-1.14.62-.69Z"/><polygon class="cls-13" points="446.57 90.16 446.42 89.77 446.69 89.41 446.96 89.63 446.9 89.32 447.05 89.21 447.15 89.44 447.28 89.75 446.72 90.55 446.57 90.16"/><polygon class="cls-13" points="446.51 90.26 446.25 91.92 445.46 92.19 445.37 91.47 446.49 90.24 446.51 90.26"/><polygon class="cls-13" points="445.89 97.75 446.19 100.39 445.05 100.39 444.82 95.68 445.2 95.47 444.43 89.73 444.7 89.7 445.37 91.47 445.46 92.19 446.18 97.56 445.89 97.75"/><path class="cls-13" d="M445.69,88.54l0,0-1,1.14-.27,0-.41-3,.22-.45.06,0,.38.17Z"/><polygon class="cls-13" points="444.82 95.68 444.12 96.08 442.98 96.73 443.43 90.62 442.93 90.47 443.98 86.89 443.94 86.88 444.02 86.71 444.43 89.73 445.2 95.47 444.82 95.68"/><polygon class="cls-19" points="444.77 100.38 443.13 100.38 442.9 97.77 444.06 97.26 444.12 96.08 444.82 95.68 445.05 100.39 444.77 100.39 444.77 100.38"/><polygon class="cls-13" points="443.63 84.02 443.61 84.02 443.58 83.73 443.65 83.74 444.89 83.93 443.63 84.02"/><polygon class="cls-13" points="444.86 83.28 443.65 83.69 443.54 83.42 444.86 83.28"/><path class="cls-13" d="M444.32,82.41l-.81,1-.06,0h0l-.12-.09-.09-.08Z"/><polygon class="cls-13" points="444.26 86.2 444.24 86.25 444.23 86.25 444.26 86.2"/><polygon class="cls-13" points="440.49 91.19 444.23 86.25 444.24 86.25 444.02 86.71 443.94 86.88 440.55 93.85 440.14 91.65 440.49 91.19"/><polygon class="cls-19" points="440.74 88.94 443.81 86.11 443.88 86.1 443.87 86 443.98 85.99 444.23 86.25 440.49 91.19 440.14 89.5 440.74 88.94"/><polygon class="cls-20" points="444.12 96.08 444.06 97.26 442.98 96.73 444.12 96.08"/><polygon class="cls-13" points="444.06 97.26 442.9 97.77 442.85 97.26 442.89 97.09 442.98 97.11 442.98 96.73 444.06 97.26"/><polygon class="cls-19" points="440.74 95.84 440.52 96.31 440.36 94.25 440.55 93.85 443.94 86.88 443.98 86.89 442.93 90.47 442.47 92.03 440.74 95.84"/><path class="cls-19" d="M443.87,86v.1l-.07,0-1.52.12-.48-1.3h0l.27-.66.07,0,.21.82a.54.54,0,0,0,.42.4.78.78,0,0,0,.64-.15,6.32,6.32,0,0,0,.2-1Z"/><polygon class="cls-13" points="440.58 87.05 441.77 84.99 441.79 84.93 441.81 84.94 442.29 86.24 443.81 86.11 440.74 88.94 440.34 87.47 440.58 87.05"/><path class="cls-13" d="M443.6,84.27a6.32,6.32,0,0,1-.2,1,.78.78,0,0,1-.64.15.54.54,0,0,1-.42-.4l-.21-.82-.07,0,0-.19h0l0-.29H442v0h0l.1-.28h0l0,0,0,0,.29-.23,0,0,.18-.06,0,.11.37,0v-.08a.78.78,0,0,1,.38.12l.12.09h0a.74.74,0,0,1,.2.38h-.07l0,.29h0C443.62,84.09,443.61,84.17,443.6,84.27Z"/><path class="cls-13" d="M443.44,83.35l-.12-.09Z"/><polygon class="cls-19" points="443.43 90.62 442.98 96.73 442.98 97.11 442.89 97.09 442.11 96.89 443.43 90.62"/><polygon class="cls-13" points="442.32 98.03 440.7 98.74 440.47 98.84 440.67 98.18 442.47 92.03 442.93 90.47 443.43 90.62 442.11 96.89 442.89 97.09 442.85 97.26 442.9 97.77 442.32 98.03"/><polygon class="cls-20" points="442.9 97.77 443.13 100.38 442.22 100.38 442.32 98.03 442.9 97.77"/><path class="cls-13" d="M442.94,83.14v.08l-.37,0,0-.11.23,0Z"/><path class="cls-13" d="M442.85,81.66l.09,1.48h-.12l-.23,0Z"/><polygon class="cls-19" points="440.74 95.84 442.47 92.03 440.67 98.18 440.74 95.84"/><path class="cls-13" d="M442.45,83.24l-.29.23,0,0a.72.72,0,0,1,.28-.22Z"/><path class="cls-13" d="M441.35,82.47l1.06.74a.72.72,0,0,0-.28.22Z"/><polygon class="cls-19" points="442.32 98.03 442.22 100.38 440.26 100.39 440.7 98.74 442.32 98.03"/><path class="cls-13" d="M442.13,83.48l-.1.28h0a.75.75,0,0,1,.1-.27Z"/><path class="cls-13" d="M442.1,83.48a.75.75,0,0,0-.1.27l-1.19-.41Z"/><polygon class="cls-13" points="441.99 83.8 442.1 83.79 442.07 84.08 442.04 84.08 441.05 84.01 441.01 83.96 441.99 83.8"/><polygon class="cls-13" points="440.24 84.76 440.84 83.57 440.88 83.78 441.01 83.96 440.79 83.99 441.05 84.01 441.77 84.99 440.58 87.05 440.25 86.17 439.63 85.95 440.24 84.76"/><polygon class="cls-13" points="441.01 83.96 441.05 84.01 440.79 83.99 441.01 83.96"/><polygon class="cls-19" points="440.8 83.34 440.84 83.57 440.24 84.76 439.96 81.74 440.23 81.74 440.25 80.85 440.34 80.85 440.8 83.34"/><polygon class="cls-13" points="440.38 78.94 440.57 78.94 440.27 79.75 440.25 80.85 440.23 81.74 439.96 81.74 439.78 81.74 439.73 80.6 440 80.62 440.01 80.15 439.7 80 439.69 79.75 439.29 78.94 439.55 78.94 440.38 78.94"/><path class="cls-21" d="M440.27,77.62a1.29,1.29,0,0,1,.11,1.32h-.84v0s-.16-.8.42-.92A.59.59,0,0,0,440.27,77.62Z"/><polygon class="cls-19" points="440.01 80.15 440 80.62 439.73 80.6 439.7 80 440.01 80.15"/><polygon class="cls-19" points="439.7 80 439.73 80.6 439.4 80.58 439.45 79.89 439.7 80"/><path class="cls-13" d="M1866.4,32.24l15.51,16.19-46.35,17.62L1814,70.66,1804.12,60l-22,5.63,50.4-52,3.74-1.28-2,6.59,3.77-4.17v4.44l-4.17,6.73-2.29,2.15.14-3.09L1827,29l-3,3.1L1823,37.87l5.79-1.08-2.29,7.54,7.8-5.65,3.77-8.75,2.42-8.2,1.61,6.72,4,.68L1846,18.5l2.29,2.15-3-8.2,3.89,1.49Zm5.33,11.36-6.1-6.57-4.79-5.77-2.1.53-6.75-9.6,4.31,27.11,5.28-1.19ZM1843.4,55.49l-1.08-2.42-3.9,4.44,3-7.67-.81-15.74L1834,52l-2.55,2.69,2.69-14-8.61,17.9.67,5,3.09.94,12.11-5.11Z"/><polygon class="cls-22" points="1865.63 37.03 1871.73 43.59 1861.58 48.11 1856.3 49.3 1851.99 22.19 1858.74 31.79 1860.84 31.26 1865.63 37.03"/><path class="cls-22" d="M1843.2,7.6l6,6.34-3.89-1.49,3,8.2L1846,18.5l.14,10.63-4-.68-1.61-6.72-2.42,8.2-3.77,8.75-7.8,5.65,2.29-7.54L1823,37.87l1.08-5.78,3-3.1,4.71-4-.14,3.09,2.29-2.15,4.17-6.73V14.73l-3.77,4.17,2-6.59-3.74,1.28,5.84-6A3.34,3.34,0,0,1,1843.2,7.6Z"/><polygon class="cls-22" points="1842.32 53.07 1843.4 55.49 1841.38 59.39 1829.28 64.5 1826.18 63.56 1825.51 58.59 1834.12 40.7 1831.43 54.68 1833.98 51.99 1840.57 34.1 1841.38 49.84 1838.42 57.51 1842.32 53.07"/><path class="cls-12" d="M164,17.72h17.34S178.42,2.26,169,14.32C169,14.32,166.57,10.93,164,17.72Z"/><path class="cls-12" d="M1898.19,23.09h30S1919-6.71,1898.19,23.09Z"/><path class="cls-23" d="M1809.27,70.66s-171.59-32.1-347.54,12.74c-194.09,49.45-311.68,52.68-311.68,52.68l661.43,18.11Z"/><path class="cls-8" d="M1774.34,34h1v4.64c5,1.53,6,7.28,6,7.28l3.21,17.68c6.33,3.5,6.54,18.2,6.54,18.2l-3.56,2.55-12.37-2.48-22.13-8.51s3.71-18.05,4.8-20.53,5-2.91,5-2.91c2.76-10.41,7.14-11.13,7.14-11.13V34h4.31Z"/><path class="cls-8" d="M1777.61,22.56l1.39,0s-.1.58-1.14.64l-.93,1.07-.66.07,1.33-1.62Z"/><path class="cls-8" d="M1774.34,30.91l-.18-.11-.6-7.51-.13,5-2.07-4.17,1.46,5.86-1.06-.66-.6-.38-.22-.13,0-1.2-.16-.11-.06-2.77-1.17-1.78v-.26h.1l.36-.26h1.65l.22-1.45s0-.07.45-.26a1.23,1.23,0,0,1,.52.26l.29,1.42,1.68-.06.3.22,2.46,0v.18l-2.39,1.42.32-1.23-.87,1.62-.1,6.5Zm-1.59-8.72.13-.71-.55-.33Z"/><polygon class="cls-24" points="1777.6 22.74 1776.27 24.36 1774.66 24.55 1775.54 22.93 1775.21 24.16 1777.6 22.74"/><polygon class="cls-8" points="1774.16 30.8 1774.34 30.91 1774.34 34.01 1772.33 34.01 1772.33 30.72 1771.76 32.99 1771.76 29.3 1772.82 29.96 1774.16 30.8"/><polygon class="cls-24" points="1773.56 23.29 1774.16 30.8 1772.82 29.96 1771.36 24.1 1773.43 28.27 1773.56 23.29"/><polygon class="cls-24" points="1772.88 21.48 1772.75 22.19 1772.33 21.15 1772.88 21.48"/><polygon class="cls-24" points="1772.33 30.72 1772.33 34.01 1771.16 34.01 1771.16 28.92 1771.76 29.3 1771.76 32.99 1772.33 30.72"/><polygon class="cls-8" points="1770.81 27.48 1770.97 27.59 1770.94 28.79 1771.16 28.92 1771.16 34.01 1770.62 34.01 1770.62 33.99 1770.62 27.37 1770.81 27.48"/><polygon class="cls-24" points="1770.62 27.37 1770.46 27.27 1770.46 24.64 1769.74 24.55 1768.32 23.22 1770.04 24.29 1769.58 22.93 1770.75 24.71 1770.81 27.48 1770.62 27.37"/><path class="cls-8" d="M1769.58,22.93l.46,1.36-1.72-1.07,1.42,1.33-1.58-.2-.94-1.13c-1.52.07-1.42-.52-1.42-.52l3.78,0Z"/><path class="cls-13" d="M1729.34,7a29.47,29.47,0,1,1-29.47,29.47A29.46,29.46,0,0,1,1729.34,7Zm28.32,29.47a28.33,28.33,0,1,0-28.32,28.32A28.33,28.33,0,0,0,1757.66,36.44Z"/><path class="cls-13" d="M1729.34,11.53a24.91,24.91,0,1,1-24.91,24.91A24.91,24.91,0,0,1,1729.34,11.53Zm24.07,24.91a24.07,24.07,0,1,0-24.07,24.06A24.07,24.07,0,0,0,1753.41,36.44Z"/><circle class="cls-13" cx="1729.34" cy="36.44" r="1.76"/><rect class="cls-13" x="1709.03" y="53.31" width="33.04" height="0.87" transform="translate(1338.6 1736.21) rotate(-78.83)"/><rect class="cls-13" x="1732.53" y="37.23" width="0.87" height="33.04" transform="translate(22.41 336.67) rotate(-11.17)"/><circle class="cls-13" cx="1729.34" cy="6.35" r="1.71"/><circle class="cls-13" cx="1723.47" cy="6.93" r="1.71"/><circle class="cls-13" cx="1717.82" cy="8.64" r="1.71"/><circle class="cls-13" cx="1712.62" cy="11.42" r="1.71"/><circle class="cls-13" cx="1708.06" cy="15.16" r="1.71"/><circle class="cls-13" cx="1704.32" cy="19.72" r="1.71"/><circle class="cls-13" cx="1701.54" cy="24.92" r="1.71"/><circle class="cls-13" cx="1699.83" cy="30.57" r="1.71"/><circle class="cls-13" cx="1699.25" cy="36.44" r="1.71"/><circle class="cls-13" cx="1699.83" cy="42.31" r="1.71"/><circle class="cls-13" cx="1701.54" cy="47.95" r="1.71"/><circle class="cls-13" cx="1704.32" cy="53.15" r="1.71"/><circle class="cls-13" cx="1708.06" cy="57.71" r="1.71"/><circle class="cls-13" cx="1712.62" cy="61.45" r="1.71"/><circle class="cls-13" cx="1717.82" cy="64.23" r="1.71"/><circle class="cls-13" cx="1723.47" cy="65.94" r="1.71"/><circle class="cls-13" cx="1729.34" cy="66.52" r="1.71"/><circle class="cls-13" cx="1735.21" cy="65.94" r="1.71"/><circle class="cls-13" cx="1740.85" cy="64.23" r="1.71"/><circle class="cls-13" cx="1746.05" cy="61.45" r="1.71"/><circle class="cls-13" cx="1750.61" cy="57.71" r="1.71"/><circle class="cls-13" cx="1754.35" cy="53.15" r="1.71"/><circle class="cls-13" cx="1757.13" cy="47.95" r="1.71"/><circle class="cls-13" cx="1758.85" cy="42.31" r="1.71"/><circle class="cls-13" cx="1759.42" cy="36.44" r="1.71"/><circle class="cls-13" cx="1758.85" cy="30.57" r="1.71"/><circle class="cls-13" cx="1757.13" cy="24.92" r="1.71"/><circle class="cls-13" cx="1754.35" cy="19.72" r="1.71"/><circle class="cls-13" cx="1750.61" cy="15.16" r="1.71"/><circle class="cls-13" cx="1746.05" cy="11.42" r="1.71"/><circle class="cls-13" cx="1740.85" cy="8.64" r="1.71"/><circle class="cls-13" cx="1735.21" cy="6.93" r="1.71"/><path class="cls-13" d="M1646.32,77.41V66.8h-4.91V77.71l-.52.09v2.58h-1.58V79.19h-2.24V74.4h-3.65v5.9l-1.25,1.24v8.14l1.08,1.91,7.22-1.91,34.83-2.92V65.46a11.34,11.34,0,0,1,3.94-3.62h.07a11.34,11.34,0,0,1,3.94,3.62V86.09l32.51-2.72,1.38-5.33V66.8h-4.91V78.42l-4.2-3h-3.49V69.77h-1.82v4h-4v.07l-3.51,2.44.15-16.54h-2V57h-5.68v7.9L1686.32,60V57h-14.09V60l-1.35,4.85V57h-5.69v2.75h-2l.15,16.54-3.51-2.44v-.07h-4.05v-4H1654v5.66h-3.49v-.57h-2.71v2.55ZM1666,74.9V71.4c0-.63,1.68-2.31,1.68-2.31a11.5,11.5,0,0,1,1.68,2.25V74.9Zm0-7.25V64.14c0-.62,1.68-2.3,1.68-2.3a11.28,11.28,0,0,1,1.68,2.24v3.57Zm.24-7.92V58a2.33,2.33,0,0,1,1.74-.3v2Zm5.27,16.1V65.46l1.42-4.2.86,4V77.07Zm3.1-16V58.71h9.25V59.8h-9.25Zm10.06,17.27V65.22l.86-4,1.42,4.2V75.83Zm4.44-2.17V71.34a11,11,0,0,1,1.68-2.25s1.68,1.68,1.68,2.31v3.5Zm0-7.25V64.08a10.83,10.83,0,0,1,1.68-2.24s1.68,1.68,1.68,2.3v3.51Zm1.38-7.92v-2a2.33,2.33,0,0,1,1.74.3v1.7Z"/><polygon class="cls-25" points="1641.41 48.25 1641.41 49.05 1642.24 49.05 1645.36 49.05 1645.94 49.05 1645.94 48.25 1645.36 48.25 1642.21 48.25 1641.41 48.25"/><polygon class="cls-25" points="1641.62 57.27 1641.62 58.37 1642.24 58.37 1645.36 58.37 1646.15 58.37 1646.15 57.27 1645.36 57.27 1642.24 57.27 1641.62 57.27"/><polygon class="cls-25" points="1642.06 65.54 1642.06 66.8 1645.56 66.8 1645.56 65.54 1645.36 65.54 1642.24 65.54 1642.06 65.54"/><polygon class="cls-13" points="1642.21 45.1 1642.21 48.25 1645.36 48.25 1645.36 45.1 1645.35 45.1 1642.21 45.1"/><path class="cls-13" d="M1642.21,45.1h3.14s-.26-1.53-1.47-1.87l-.1-2-.1,2C1642.48,43.57,1642.21,45.1,1642.21,45.1Z"/><rect class="cls-13" x="1642.24" y="58.37" width="3.12" height="7.17"/><rect class="cls-13" x="1642.24" y="49.05" width="3.12" height="8.22"/><polygon class="cls-13" points="1650.52 74.86 1650.52 75.43 1654.01 75.43 1654.01 69.77 1654.01 68.02 1653.59 68.02 1650.94 68.02 1650.52 68.02 1650.52 74.86"/><rect class="cls-25" x="1650.94" y="66.9" width="2.65" height="1.11"/><polygon class="cls-13" points="1650.94 62.48 1650.94 66.9 1653.59 66.9 1653.59 62.48 1652.95 62.48 1651.58 62.48 1650.94 62.48"/><polygon class="cls-25" points="1651.14 51.33 1651.14 52.49 1651.58 52.49 1652.95 52.49 1653.39 52.49 1653.39 51.33 1653.11 51.33 1651.35 51.33 1651.14 51.33"/><path class="cls-13" d="M1652.27,48.61a3.73,3.73,0,0,0-.92,2.71h1.76A3.63,3.63,0,0,0,1652.27,48.61Z"/><rect class="cls-13" x="1651.58" y="52.49" width="1.38" height="9.99"/><path class="cls-13" d="M1659.88,73.76v.07l3.51,2.44-.15-16.54h-.47V58h-1v.69h-1.3V54.16h-.61Zm.69-4.67V63.77a5.71,5.71,0,0,1,1-1.93,3.85,3.85,0,0,1,1,1.93v5.32Z"/><path class="cls-25" d="M1660.57,63.77v5.32h2V63.77a3.85,3.85,0,0,0-1-1.93A5.71,5.71,0,0,0,1660.57,63.77Z"/><polygon class="cls-25" points="1664.67 56.08 1664.67 56.98 1665.19 56.98 1670.88 56.98 1671.37 56.98 1671.37 56.08 1671.08 56.08 1665.19 56.08 1664.67 56.08"/><path class="cls-13" d="M1665.19,56.07h5.89a8.19,8.19,0,0,0-.74-1.91h-.27V53.7a4.61,4.61,0,0,0-1.79-1.68l-.14-3.24L1668,52C1665.84,53.07,1665.19,56.07,1665.19,56.07Z"/><path class="cls-25" d="M1666,71.4v3.5h3.36V71.34a11.5,11.5,0,0,0-1.68-2.25S1666,70.77,1666,71.4Z"/><path class="cls-25" d="M1666,64.14v3.51h3.36V64.08a11.28,11.28,0,0,0-1.68-2.24S1666,63.52,1666,64.14Z"/><path class="cls-25" d="M1666.28,58v1.7H1668v-2A2.33,2.33,0,0,0,1666.28,58Z"/><path class="cls-13" d="M1670.07,53.7v.46h.27C1670.26,54,1670.16,53.85,1670.07,53.7Z"/><path class="cls-13" d="M1686.32,54.16h1.89c.08-.15.17-.31.27-.46V52.53h-18.41V53.7c.09.15.19.31.27.46h16Z"/><path class="cls-13" d="M1675.53,39.87s-7.41,5.91-5,11H1688c2.43-5.12-5-11-5-11h-7.48Z"/><polygon class="cls-25" points="1671.37 50.9 1671.37 52.53 1679.24 52.53 1679.31 52.53 1687.18 52.53 1687.18 50.9 1679.31 50.9 1679.24 50.9 1671.37 50.9"/><polygon class="cls-25" points="1671.56 65.47 1671.56 75.83 1673.83 77.07 1673.83 65.22 1672.97 61.26 1671.56 65.47"/><polygon class="cls-26" points="1672.23 56.08 1672.23 56.98 1679.01 56.98 1679.54 56.98 1686.32 56.98 1686.32 56.08 1679.54 56.08 1679.01 56.08 1672.23 56.08"/><polygon class="cls-25" points="1672.23 54.16 1672.23 56.08 1679.01 56.08 1679.54 56.08 1686.32 56.08 1686.32 54.16 1679.31 54.16 1679.24 54.16 1672.23 54.16"/><polygon class="cls-25" points="1674.65 58.71 1674.65 59.8 1679.01 59.8 1679.54 59.8 1683.9 59.8 1683.9 58.71 1679.54 58.71 1679.01 58.71 1674.65 58.71"/><path class="cls-25" d="M1675.3,65.46v21.3l8-.67V65.46a11.34,11.34,0,0,0-3.94-3.62h-.07A11.34,11.34,0,0,0,1675.3,65.46Z"/><path class="cls-25" d="M1675.93,39.87h6.68a8,8,0,0,0-2.55-3h-1.57A8,8,0,0,0,1675.93,39.87Z"/><path class="cls-13" d="M1677.54,30.23a2,2,0,0,0,0,.43,1.75,1.75,0,1,0,3.5,0,1.54,1.54,0,0,0-.06-.43,1.74,1.74,0,0,1-1.92,1.3A1.76,1.76,0,0,1,1677.54,30.23Z"/><polygon class="cls-13" points="1678.89 33.1 1678.89 36.91 1679.24 36.91 1679.31 36.91 1679.66 36.91 1679.66 33.1 1679.54 33.1 1679.01 33.1 1678.89 33.1"/><polygon class="cls-25" points="1684.71 65.22 1684.71 77.07 1686.99 75.83 1686.99 65.47 1685.57 61.26 1684.71 65.22"/><polygon class="cls-25" points="1687.18 56.08 1687.18 56.98 1687.67 56.98 1693.36 56.98 1693.87 56.98 1693.87 56.08 1693.36 56.08 1687.47 56.08 1687.18 56.08"/><path class="cls-13" d="M1687.47,56.07h5.88s-.65-3-2.8-4l-.14-3.24-.14,3.24a4.61,4.61,0,0,0-1.79,1.68v.46h-.27A8.19,8.19,0,0,0,1687.47,56.07Z"/><path class="cls-13" d="M1688.21,54.16h.27V53.7C1688.38,53.85,1688.29,54,1688.21,54.16Z"/><path class="cls-25" d="M1689.15,71.34V74.9h3.36V71.4c0-.63-1.68-2.31-1.68-2.31A11,11,0,0,0,1689.15,71.34Z"/><path class="cls-25" d="M1689.15,64.08v3.57h3.36V64.14c0-.62-1.68-2.3-1.68-2.3A10.83,10.83,0,0,0,1689.15,64.08Z"/><path class="cls-25" d="M1690.53,57.73v2h1.74V58A2.33,2.33,0,0,0,1690.53,57.73Z"/><path class="cls-13" d="M1695.31,59.73l-.15,16.54,3.51-2.44V54.16h-.61v4.55h-1.3V58h-1v1.71Zm.7,9.36V63.77a3.85,3.85,0,0,1,1-1.93,5.94,5.94,0,0,1,1,1.93v5.32Z"/><path class="cls-25" d="M1696,63.77v5.32h2V63.77a5.94,5.94,0,0,0-1-1.93A3.85,3.85,0,0,0,1696,63.77Z"/><polygon class="cls-13" points="1704.54 69.77 1704.54 75.43 1708.03 75.43 1708.03 68.02 1707.61 68.02 1704.96 68.02 1704.54 68.02 1704.54 69.77"/><rect class="cls-25" x="1704.96" y="66.9" width="2.65" height="1.11"/><polygon class="cls-13" points="1704.96 62.48 1704.96 66.9 1707.61 66.9 1707.61 62.48 1706.97 62.48 1705.59 62.48 1704.96 62.48"/><polygon class="cls-25" points="1705.16 51.33 1705.16 52.49 1705.59 52.49 1706.97 52.49 1707.41 52.49 1707.41 51.33 1707.2 51.33 1705.44 51.33 1705.16 51.33"/><path class="cls-13" d="M1705.44,51.32h1.76a3.73,3.73,0,0,0-.92-2.71A3.63,3.63,0,0,0,1705.44,51.32Z"/><rect class="cls-13" x="1705.59" y="52.49" width="1.38" height="9.99"/><polygon class="cls-25" points="1712.4 57.27 1712.4 58.37 1713.19 58.37 1716.31 58.37 1716.93 58.37 1716.93 57.27 1716.31 57.27 1713.19 57.27 1712.4 57.27"/><polygon class="cls-25" points="1712.6 48.25 1712.6 49.05 1713.19 49.05 1716.31 49.05 1717.14 49.05 1717.14 48.25 1716.34 48.25 1713.19 48.25 1712.6 48.25"/><polygon class="cls-25" points="1712.99 65.54 1712.99 66.8 1716.48 66.8 1716.48 65.54 1716.31 65.54 1713.19 65.54 1712.99 65.54"/><rect class="cls-13" x="1713.19" y="58.37" width="3.12" height="7.17"/><rect class="cls-13" x="1713.19" y="49.05" width="3.12" height="8.22"/><polygon class="cls-13" points="1713.19 45.1 1713.19 48.25 1716.34 48.25 1716.34 45.1 1713.2 45.1 1713.19 45.1"/><path class="cls-13" d="M1713.2,45.1h3.14s-.27-1.53-1.47-1.87l-.1-2-.11,2C1713.46,43.57,1713.2,45.1,1713.2,45.1Z"/><polygon class="cls-13" points="110.36 60.97 82.71 63.99 81.82 63.11 86.05 36.66 110.36 60.97"/><polygon class="cls-27" points="86.05 36.66 81.82 63.11 71.39 52.67 86.05 36.66"/><polygon class="cls-13" points="81.67 64.11 82.71 63.99 85.96 67.25 34.35 72.9 42.23 23.51 71.39 52.67 58.59 66.63 81.67 64.11"/><polygon class="cls-28" points="82.71 63.99 81.67 64.11 81.82 63.11 82.71 63.99"/><polygon class="cls-13" points="81.82 63.11 81.67 64.11 58.59 66.63 71.39 52.67 81.82 63.11"/><polygon class="cls-27" points="42.23 23.51 34.35 72.9 -7.17 77.44 42.23 23.51"/><path class="cls-29" d="M-143.26,96.46s193.7-86,487-2.53c70.85,20.18,168.76,90.73,322.39,42.72C891,66.35,1328.61,276,1328.61,276l-507.37-4.37L-140.43,239l-27.18-36.61.43-58.95Z"/><path class="cls-30" d="M531.08,250.82q-38.46-23.28-79.6-51.41c-326.3-223.86-621.18-75-621.18-75l-7.49,111.9,150.43,60.66,403.87-6.3Z"/><path class="cls-29" d="M-166.08,151.69S13.7,49.05,169.4,123.81c137.45,66,36.07,97,36.07,97L-115.76,205l-48.63-12.25Z"/><path class="cls-31" d="M-160.95,108.78S47.67,9.92,349.28,114,781,273.84,781,273.84L-168,203.67Z"/><path class="cls-29" d="M1333.68,151.56s183.3-25.12,413.53-89.45c203.55-56.88,329.86-26,329.86-26V189.29Z"/><circle class="cls-32" cx="159.76" cy="71" r="38.98"/><circle class="cls-33" cx="159.76" cy="71" r="38.98"/><g class="cls-34"><path class="cls-12" d="M177.19,39.41A56.86,56.86,0,0,0,166,32.52a39,39,0,0,1,18.35,68.71h0c-12.06,9.64-6.45-5.9-1.94-13s7.69-18.29,7.69-18.29C193.25,55.76,185,45.59,177.19,39.41Z"/><path class="cls-35" d="M166,32.52a56.86,56.86,0,0,1,11.17,6.89A26.67,26.67,0,0,0,164,43.94c-4.76,3.46-14.52,7.46-20.06,5,3.08-4.29,6.3-10,4-12.81-1.08-1.34-3.13-1.09-5.46-.1A39.19,39.19,0,0,1,166,32.52Z"/><path class="cls-12" d="M143.94,48.94c-1.67,2.31-3.29,4.22-4,5.07-2,2.41-14.57,22.14.19,26.75,0,0,7.29.07,7.26,13.64,0,10.89,9.58,13.93,20.61,14.71A39,39,0,0,1,142.51,36c2.33-1,4.38-1.24,5.46.1C150.24,39,147,44.65,143.94,48.94Z"/></g><ellipse class="cls-12" cx="135" cy="50.81" rx="2.86" ry="1.82" transform="translate(16.64 133.25) rotate(-55.48)"/><circle class="cls-32" cx="246.2" cy="81.65" r="19.83"/><circle class="cls-33" cx="246.2" cy="81.65" r="19.83"/><g class="cls-34"><path class="cls-12" d="M266,81.65a19.78,19.78,0,0,1-5.41,13.62c1.23-2.61,3-7.31-.58-7-4.93.5-1.86-7.86-1.86-7.86s2.79-8.22-5.93-8.86-21.54-8.25-4.14-9.69A19.84,19.84,0,0,1,266,81.65Z"/><path class="cls-12" d="M240.18,89.6c.14,6.79,4.8,13,13.59,10.39a19.83,19.83,0,0,1-17-35.76A15.77,15.77,0,0,0,230,75.32c-1,7.18,1.53,10.71,4.11,9.14S240,82.67,240.18,89.6Z"/></g><ellipse class="cls-12" cx="234.69" cy="72.33" rx="1.68" ry="1.07" transform="translate(42.11 224.72) rotate(-55.48)"/><circle class="cls-32" cx="1539.57" cy="49.3" r="28.58"/><circle class="cls-33" cx="1539.57" cy="49.3" r="28.58"/><g class="cls-34"><path class="cls-12" d="M1568.15,48.77h0s-1,9.34-5.39,10.91-4-10.4-3.81-21.1c.21-11.15-9.1-15.73-12.47-17A28.6,28.6,0,0,1,1568.15,48.77Z"/><path class="cls-12" d="M1559.66,64.09c1.39,2.4-1.32,6.56-6.24,9.4s-11.24,3.85-12.63,1.45,3.3-5.31,8.22-8.16S1558.27,61.68,1559.66,64.09Z"/><path class="cls-12" d="M1534.35,71.91c1.75.17,3,.72,2.94,1.65s-1.57,1.53-3.33,1.37-3.1-1-3-2S1532.59,71.75,1534.35,71.91Z"/><path class="cls-12" d="M1530.4,23.72c7.56-1.58,8.62,1,2.57,5.91s-13.29,10.92-7.24,16.38,2,13.67,1,15.45-5.12,11.23,2,14.33a28.58,28.58,0,0,1-13.2-42.06C1517.27,31.91,1523.86,25.08,1530.4,23.72Z"/></g><ellipse class="cls-12" cx="1523.22" cy="32.96" rx="2.9" ry="1.85" transform="translate(632.97 1269.38) rotate(-55.48)"/><circle class="cls-32" cx="1614.28" cy="31.19" r="18.12"/><circle class="cls-33" cx="1614.28" cy="31.19" r="18.12"/><g class="cls-34"><path class="cls-12" d="M1618.61,13.59a18.11,18.11,0,0,1,7,31.76c1.06-1.44,4.47-6.86-.06-11.17-5.29-5-1.19-8.79-.87-13.1C1624.93,17.24,1619.77,14.22,1618.61,13.59Z"/><path class="cls-35" d="M1622.22,42.7c.58.59,2.13,4.63-5.85,6.48a16,16,0,0,1-1.7.12v0c-3.94-.14-6.89-1.23-7.33-4.25a9.7,9.7,0,0,0,8-.93C1619.41,41.35,1621.62,42.11,1622.22,42.7Z"/><path class="cls-12" d="M1607.34,45c.44,3,3.39,4.11,7.33,4.25v0h-.39a18.12,18.12,0,0,1-9.23-33.71c1.3-.57,8.43-3.57,7.35-.23C1611.21,19,1606,23.5,1606,23.5a10.27,10.27,0,0,0-3.88,9.44,7,7,0,0,0,2.26,4.26c2.05,1.78,3,3.18,2.92,6.9A4.64,4.64,0,0,0,1607.34,45Z"/><path class="cls-12" d="M1612,37.58c.84,1.3,1.23,2.82.16,3.51a2.91,2.91,0,0,1-3.73-1.09c-.84-1.3-.89-3.14.17-3.82S1611.19,36.27,1612,37.58Z"/></g><ellipse class="cls-12" cx="1602.32" cy="23.35" rx="1.78" ry="1.13" transform="translate(675.16 1330.39) rotate(-55.48)"/><circle class="cls-32" cx="1842.06" cy="46.15" r="15.81"/><circle class="cls-33" cx="1842.06" cy="46.15" r="15.81"/><g class="cls-34"><path class="cls-12" d="M1849.09,32a15.8,15.8,0,0,1,3.31,26.1c.43-.68,3.3-5.55-.19-6.52-3.75-1-2.52-4.35-2.08-5.07a11.52,11.52,0,0,0,1.25-2.92c1.26-5.65-6.88-3.61-7.78-9.38C1843,30.14,1846.78,31.08,1849.09,32Z"/><path class="cls-12" d="M1842.1,62h0a15.8,15.8,0,0,1-7.33-29.81c-1,1.2-4.61,5.88-4.4,9.85a6.26,6.26,0,0,0,2.92,5.07c1.11.62,3.54.9,2.29,7C1834.5,59.14,1840.13,61.34,1842.1,62Z"/></g><ellipse class="cls-12" cx="1831.22" cy="39.71" rx="1.7" ry="1.08" transform="translate(760.88 1526.09) rotate(-55.48)"/><path class="cls-36" d="M183.32,83.63s1.45.12,1.41.82-1.23.81-2.16.45a3.1,3.1,0,0,1-1.13-.59l-.49-.44a.62.62,0,0,0,.68-.73C182,83.27,183.07,83.6,183.32,83.63Z"/><path class="cls-36" d="M174.43,78.76a1.46,1.46,0,0,1-.92,1.18s1.06.59,1.64.4S174.43,78.76,174.43,78.76Zm-5.59-5.16a63.21,63.21,0,0,1,5.71,5.05s1.76.89,2.6,1.45l4.47,3a.19.19,0,0,0,0,.08.62.62,0,0,1-.68.73h-.06l-3.29-1a15.53,15.53,0,0,1-4.83-2.79s-7.79-3-8.88-5a5.26,5.26,0,0,1-.54-3.51,4.66,4.66,0,0,0,2.87-.46,5.68,5.68,0,0,0,2.05-1.81A15.3,15.3,0,0,1,175.08,72a2,2,0,0,1,.17,1.68c-.11.22-1.48.31-1.48.31h-.61c-.81,0-1.75-.1-2.57-.18s-1.73-.49-1.73-.49c.19,0,1.26-.58,1.33-.61a4.56,4.56,0,0,1-1.61,0l.51-1.5-1,1.47a8,8,0,0,0-2.34.18s1.57,0,2,.11h.07a1.36,1.36,0,0,0,.35.07Z"/><path class="cls-36" d="M179,67.71c.41.1,1,.13,1.48.19-.08.56-1.95.13-2,.21a4.9,4.9,0,0,0-.32.48s-.74,0-1-.42a4.49,4.49,0,0,1-.41-.83h.05a1,1,0,0,0,.26-.62l1.8.48Z"/><path class="cls-36" d="M162.13,64.56l-1.83,3.8a11.74,11.74,0,0,1-2.22,3.43c-.68.76-1.1,1.24-1.36,1.54l-.24-.3-.73,0c.13-.07.57-.43,1.25-2a16.3,16.3,0,0,1,1.78-3.1l1.34-3.46s.39-1.68,1-2.09c.42-.31,1.06-.82,1.36-1.06h0s1.43,1.63,1.68.79c0,0,.18-.64.32-1.06h0s.43.05,1,.15a5.29,5.29,0,0,1,1.91.61c.61.5,4.52,2.68,4.52,2.68s2.06.78,3.85,1.61l1.37.61v0a1,1,0,0,1-.26.62h-.05c-.34,0-2.31-.36-3.42-.57a7.88,7.88,0,0,1-2.6-1.23l-4-2.17a3,3,0,0,1,.53,1.12l-1.78.66a3,3,0,0,1-2.91-.24,4.19,4.19,0,0,1,.67,2.62A25.64,25.64,0,0,0,162.13,64.56Z"/><path class="cls-36" d="M176.52,76.1c.09.12,0,.33-.26.39a1.31,1.31,0,0,1-.95-.1,2,2,0,0,1-.89-.83,4.9,4.9,0,0,1-.55-.56c-.07-.14-.13-.26-.18-.34l.24.11a.87.87,0,0,0,.95-.07v0A11.51,11.51,0,0,1,176.52,76.1Z"/><path class="cls-36" d="M174.89,74.67v0a.87.87,0,0,1-.95.07l-.24-.11-.13-.07a1.82,1.82,0,0,1-.4-.61h.61s1.37-.09,1.48-.31h0Z"/><path class="cls-36" d="M174.43,78.76s1.42,1.36.72,1.58-1.64-.4-1.64-.4A1.46,1.46,0,0,0,174.43,78.76Z"/><path class="cls-36" d="M168.07,72.69l1-1.47-.51,1.5a4.56,4.56,0,0,0,1.61,0c-.07,0-1.14.57-1.33.61,0,0,1,.27,1.73.49-.75-.07-1.4-.15-1.75-.2l-.74-.54a1.36,1.36,0,0,1-.35-.07h-.07c-.38-.06-2-.11-2-.11A8,8,0,0,1,168.07,72.69Z"/><path class="cls-36" d="M168.27,69.27a5.68,5.68,0,0,1-2.05,1.81,4.66,4.66,0,0,1-2.87.46l-.1,0a24.34,24.34,0,0,0,.17-2.58c1.57-2.75,3.56-3.09,3.68-3.11A3.8,3.8,0,0,0,167,67a4.35,4.35,0,0,0,1.31,2.16Z"/><path class="cls-36" d="M167.3,64.49a4.69,4.69,0,0,1-.2,1.34c-.12,0-2.11.36-3.68,3.11a6.14,6.14,0,0,0-.14-1.41,4.19,4.19,0,0,0-.67-2.62,3,3,0,0,0,2.91.24Z"/><path class="cls-36" d="M163.65,58.68l-.36.12c0,.14,0,.37,0,.6a3,3,0,0,0-1,.37c-.57.34-2.85,2.35-4.82.09-2.17-2.49-1-9.87,3.05-7a3.26,3.26,0,0,1,1.46,2.48,1.26,1.26,0,0,0,1.68.83c.95-.35,2.88-.7,3,.9a2,2,0,0,1-.29,1.41c-.05-.39-.11-.73-.16-.94A20.18,20.18,0,0,1,163.65,58.68Z"/><path class="cls-36" d="M162.44,61.31a4.06,4.06,0,0,0,.76-1.1,1.86,1.86,0,0,0,.63-.58.4.4,0,0,1-.21-.26,1.45,1.45,0,0,1,0-.69,20.18,20.18,0,0,0,2.53-1.12c0,.21.11.55.16.94.14.94.2,2.15-.31,2.39a.91.91,0,0,1-.55,0c-.34-.06-.71-.19-.89-.21,0,0-.09.15-.17.36-.14.42-.32,1.06-.32,1.06-.25.84-1.68-.79-1.68-.79Z"/><path class="cls-36" d="M163.62,59.37a.4.4,0,0,0,.21.26,1.86,1.86,0,0,1-.63.58s0,0,0,0a5.12,5.12,0,0,0,.07-.79l.2,0Z"/><path class="cls-36" d="M163.62,59.37h-.14l-.2,0c0-.23,0-.46,0-.6l.36-.12A1.45,1.45,0,0,0,163.62,59.37Z"/><path class="cls-36" d="M162.27,92.62V93a3.3,3.3,0,0,1-1,.59,4.1,4.1,0,0,1-1.31-.53l-.78-.65a3.25,3.25,0,0,1-.9-.47,3.53,3.53,0,0,1-.35-1.17.52.52,0,0,0,.15.13c.46.24,1.15-.73,1.22-.83.29.32.82.9,1.47,1.53A3.64,3.64,0,0,0,162.27,92.62Z"/><path class="cls-36" d="M159.31,90.09c-.07.1-.76,1.07-1.22.83a.52.52,0,0,1-.15-.13,7.89,7.89,0,0,1-.68-1c-.71-1.74-2.84-7-2.78-7.75a5.78,5.78,0,0,1,.76-2l.5.64.14.42c.32.95,2.7,7.57,3.43,8.93Z"/><path class="cls-36" d="M156.41,74.72a2.23,2.23,0,0,0,.16-.48h.14l.22.29-.41.6-.33-.06A1.86,1.86,0,0,0,156.41,74.72Z"/><path class="cls-36" d="M156.72,73.33l.06.09-.07.82h-.14c-.16-.26-.65-.3-.65-.3l-.46.47h0l-.09,0,.12-.78-.16-.12c-.18,0-.43.48-.59.79-.06-.15-.13-.33-.18-.48a1.21,1.21,0,0,0,.43-.74l-.13-.18.89.06.73,0Z"/><path class="cls-36" d="M152.2,78.06l-3.63-3.32a1.2,1.2,0,0,1,.34-.71,8.08,8.08,0,0,0,.88-1l-1.27.71a6.2,6.2,0,0,0,.51-1.24,4.29,4.29,0,0,1-1.22,1.3l.05,0,.41,1,.57,1.41A18.39,18.39,0,0,1,152.2,78.06Zm-5.3,2.53c-1.36-2.2-3.11-5.53-3.11-5.53-.1-1-.08-2.5-.07-3.1a6.71,6.71,0,0,0,5.61-.74c.13.12.36.36.31.51,0,0,.43.22.34.53,0,0,4.41,5.29,5.24,7,0,0,.25.67.52,1.45l-.5-.64a5.78,5.78,0,0,0-.76,2c-.06.72,2.07,6,2.78,7.75-.81-1.28-1.95-3.31-2.43-3.89a9.86,9.86,0,0,1-1.44-3.61c-.35-1.25-3.08-4.18-4.29-5.44.51,1.28,1,2.54,1.16,2.94a5.63,5.63,0,0,1,.09,2.24,1,1,0,0,1-.44.26,1.41,1.41,0,0,1-.39.08,4.6,4.6,0,0,1-1.76-.52C147.52,81.56,147.22,81.11,146.9,80.59Z"/><path class="cls-36" d="M156.57,74.24a2.23,2.23,0,0,1-.16.48,1.12,1.12,0,0,0-.95-.31l.46-.47S156.41,74,156.57,74.24Z"/><path class="cls-36" d="M154.74,74.32c.16-.31.41-.74.59-.79l.16.12-.12.78,0,.1.11-.12h0a1.12,1.12,0,0,1,.95.31,1.86,1.86,0,0,1-.22.35,1.18,1.18,0,0,1-.25.25c-.34.26-1.08-.16-1.36-.67A3.23,3.23,0,0,1,154.74,74.32Z"/><path class="cls-36" d="M155.46,74.41l-.11.12,0-.1Z"/><path class="cls-36" d="M154.86,72.92l.13.18a1.21,1.21,0,0,1-.43.74l-.18.09s-.93-.77-1.83-1.54a14,14,0,0,1-2-2.75c-.07-.09-.66-1.45-1-2.2l0-.68a2.9,2.9,0,0,0,1.83,1.18,1,1,0,0,1-.94.21,8.25,8.25,0,0,0,2.93,2.47q.18.34.36.75Z"/><path class="cls-36" d="M151.63,67.46c.61,1.13,1.16,2,1.75,3.16a8.25,8.25,0,0,1-2.93-2.47,1,1,0,0,0,.94-.21,2.9,2.9,0,0,1-1.83-1.18c0-.36,0-.73,0-1.12a13.77,13.77,0,0,0,1.06-1.86A16,16,0,0,0,151.63,67.46Z"/><path class="cls-36" d="M148.57,74.74l3.63,3.32a18.39,18.39,0,0,0-3.36-1.81l-.57-1.41Z"/><path class="cls-36" d="M150.51,62.89s.05.36.14.89a13.77,13.77,0,0,1-1.06,1.86c0-.35,0-.71-.05-1.09h0a4.84,4.84,0,0,0,.08-2.6A3.47,3.47,0,0,1,150.51,62.89Z"/><path class="cls-36" d="M150.19,83.19a1.72,1.72,0,0,1-1.13.65,5.29,5.29,0,0,1-1.71-1.63,3.29,3.29,0,0,1-.5-1.21l.05-.41c.32.52.62,1,.86,1.31a4.6,4.6,0,0,0,1.76.52,1.41,1.41,0,0,0,.39-.08A5.29,5.29,0,0,1,150.19,83.19Z"/><path class="cls-36" d="M148.52,73.75l1.27-.71a8.08,8.08,0,0,1-.88,1,1.2,1.2,0,0,0-.34.71l-.3.1-.41-1-.05,0a4.29,4.29,0,0,0,1.22-1.3A6.2,6.2,0,0,1,148.52,73.75Z"/><path class="cls-36" d="M149.33,71.22a6.71,6.71,0,0,1-5.61.74l-.13,0c-.1-1.6-.35-3.84-.35-3.84a9.77,9.77,0,0,1-.93-2.21,3.82,3.82,0,0,1,.21-.36,2.36,2.36,0,0,1,.5-.62,4.15,4.15,0,0,0-.8.65,15.2,15.2,0,0,0-2.15,2.93,3.76,3.76,0,0,1-.46-1.31,2.47,2.47,0,0,0,.12,1.44,2.64,2.64,0,0,1-.59-.62,3,3,0,0,0,.37,1,.5.5,0,0,0,.3.18,10.23,10.23,0,0,1,0,3c-.1.75-.28,3.1-.28,3.1h0c-.73.46-1.15.09-1.15.09v-.12l-.07-1.91c-.2-2.11-.57-4.14.27-5.9s2.4-4.78,2.4-4.78a6.67,6.67,0,0,1,1.37-1.05c.4.37,2.35.11,3.71,1.45,0,0,.69.27.94-.07s1.26-1.29,1-2.21c0,0,0,0,0-.06.35.24,1.07.76,1.65,1.26a4.84,4.84,0,0,1-.08,2.6h0c0,.38.05.74.05,1.09s0,.76,0,1.12l0,.68c0,.32,0,.63,0,.92a22.52,22.52,0,0,1-.16,2.85Z"/><path class="cls-36" d="M142.34,61.58c-.08-.07-.09-.17,0-.31.37-.84.77-.57.77-.57a3.3,3.3,0,0,1,1.38-.69h0a3.52,3.52,0,0,1-.2,1c.09.56,2.25,1.54,2.25,1.54l.72-.8c0-.15-.07-.32-.1-.49-.06-.36-.1-.72-.12-1a2.46,2.46,0,0,0,.72-.11,1.32,1.32,0,0,1,.27.53s0,0,0,.06c.22.92-.79,1.86-1,2.21s-.94.07-.94.07C144.69,61.69,142.74,62,142.34,61.58Z"/><path class="cls-36" d="M147.61,56.57a.89.89,0,0,0-.26-.38c-.27-.21-.17.45-1.85,0a.68.68,0,0,0-.39.83A1,1,0,0,1,145,58l-.09.33-.15-.12s-.08-1-.47-.68a.53.53,0,0,0-.13.13c-.09-.41-.59-3.14,2.33-2.51l.11,0a1.73,1.73,0,0,1,1.22,1.16l-.06.65a2.3,2.3,0,0,0-.13-.42Z"/><path class="cls-36" d="M144.14,57.65a.53.53,0,0,1,.13-.13c.39-.27.47.68.47.68l.15.12L145,58a1,1,0,0,0,.13-.94.68.68,0,0,1,.39-.83c1.68.42,1.58-.24,1.85,0a.89.89,0,0,1,.26.38h0a6.76,6.76,0,0,1,.13,3.59h0a1.18,1.18,0,0,0-.7-.42l0,.21s0,.13,0,.32a2.68,2.68,0,0,1-1.77-.67,2.5,2.5,0,0,0,1.89,1.64c0,.17.06.34.1.49l-.72.8s-2.16-1-2.25-1.54a3.52,3.52,0,0,0,.2-1,6.41,6.41,0,0,0,0-.77v-.15c-.36,0-.51-.53-.51-.53A1.61,1.61,0,0,1,144.14,57.65Z"/><path class="cls-36" d="M147,59.74a1.18,1.18,0,0,1,.7.42,2.46,2.46,0,0,1-.72.11c0-.19,0-.32,0-.32Z"/><path class="cls-36" d="M147,60.27c0,.25.06.61.12,1a2.5,2.5,0,0,1-1.89-1.64A2.68,2.68,0,0,0,147,60.27Z"/><path class="cls-36" d="M143,64.88a2.36,2.36,0,0,0-.5.62l-.23.28c0-.13-.06-.22-.07-.25A4.15,4.15,0,0,1,143,64.88Z"/><path class="cls-36" d="M142.52,65.5a3.82,3.82,0,0,0-.21.36s0-.06,0-.08Z"/><path class="cls-36" d="M142.22,65.53s0,.12.07.25a12.93,12.93,0,0,0-1.79,3.14c-.05.5-.25.35-.25.35.08.32-.15.3-.15.3a15.81,15.81,0,0,1-.29,2.57,10.23,10.23,0,0,0,0-3c.26,0,.53-.12.42-.43,0,0-.07-.1-.16-.26A15.2,15.2,0,0,1,142.22,65.53Z"/><path class="cls-36" d="M140.07,68.46c.09.16.16.26.16.26.11.31-.16.48-.42.43a.5.5,0,0,1-.3-.18,3,3,0,0,1-.37-1,2.64,2.64,0,0,0,.59.62,2.47,2.47,0,0,1-.12-1.44A3.76,3.76,0,0,0,140.07,68.46Z"/><path class="cls-36" d="M139.83,75.93a2.85,2.85,0,0,0,.25,1s-.35.28-.51,0-.31-.66-.43-.69a7.17,7.17,0,0,0-1,1.6c-.12.28-.62,1.22-.62,1.22l-.22-.18,0-1.82,1.12-1.84v.12s.42.37,1.15-.09A3.62,3.62,0,0,1,139.83,75.93Z"/><path class="cls-36" d="M244.87,83.54l.94,3.82,2,4.8-1.38,2.37-.55,0,.6-2.27-2.21-3.9a1.63,1.63,0,0,1-.11-.23l-.65-2a27.24,27.24,0,0,1-1.43-5.63,12.67,12.67,0,0,1,0-4.43,5.24,5.24,0,0,1,.69-2.2l.07-.06a1.87,1.87,0,0,1,1.37-.46l.18-.94-.8-.59a.44.44,0,0,1,0-.65,3.46,3.46,0,0,1,2.68-1s1.09,0,1,1.69c-.08,1.25-1.42,1.1-1.42,1.1l.08.79,1.27.77,1.41,3.17L251,79.35l1.38-.35-.15.45-1.63.64-3-1.73-1.44-2a9.47,9.47,0,0,1-1,1.49l-.3,1.73,2.67,3.9,5.09-.84.79,2.42-.25.35-1.33-1.58-4,1.24a1.28,1.28,0,0,1-1.16-.22Z"/><path class="cls-36" d="M242.81,73.75l-.07.06a5.24,5.24,0,0,0-.69,2.2l-1.52.53-2.87.26-.91.26-.2-.19.46-.3-.91-.52.19-.33,1.44.27,2.8-.69Z"/><path class="cls-36" d="M1543.79,43.81c2,2.34,4.51,5.33,4.51,5.33a11.1,11.1,0,0,1,3,.89c.12.07-.13.44-.25.51-.43.26-2.09-.25-2.09-.25l.54.61a.22.22,0,0,1,.06.15.24.24,0,0,1-.13.21l-.9-.59-.67-1s-.65-.39-1.77-1.21l-.44-.33c-.19-.14-.37-.29-.54-.44a8.34,8.34,0,0,1-1.57-1.89c-.23-.29-1.65-1.7-2.65-2.67a1.69,1.69,0,0,1,1-1.59C1542.31,42,1543,42.87,1543.79,43.81Z"/><path class="cls-36" d="M1540.1,52c.39-.5.77-1,1.1-1.37a26.76,26.76,0,0,1-6.3.07A17.59,17.59,0,0,0,1540.1,52Zm3,2.45c-.29.27-.59.55-.89.81-1.28,1.15-2.48,2.11-2.48,2.11A11.61,11.61,0,0,1,1539,62a26.68,26.68,0,0,0-.67,3.63l0,.15a1.88,1.88,0,0,1-1.44.39h0V57.33l.5-1.38a21,21,0,0,1,1.77-2.69l-5.47-2.48a1.76,1.76,0,0,1,.35-2.16,21.15,21.15,0,0,1,7.9-.44s2.09,1,3.23-.49c.17.15.35.3.54.44l.44.33a3.25,3.25,0,0,1-1.08,3.9A15.31,15.31,0,0,1,1543.1,54.41Z"/><path class="cls-36" d="M1541.92,41.54l-.31-.4a5.72,5.72,0,0,0-2.37-1.37l-.26-.07a3.36,3.36,0,0,1-2.37-1.85c-.28-.84-1.63-1.54-1.63-1.54h0l0,0c.48-.51,1.78-1.5,3.86.07,2.66,2,2.89,1.91,4.85,1.82s3.13.89,1.73,3.73a4.08,4.08,0,0,1-1.6,1.9C1543,42.87,1542.31,42,1541.92,41.54Z"/><path class="cls-36" d="M1540.89,43.13c1,1,2.42,2.38,2.65,2.67a8.34,8.34,0,0,0,1.57,1.89c-1.14,1.48-3.23.49-3.23.49l-2.33-2a4.53,4.53,0,0,1-1.75-1.08,8.53,8.53,0,0,1-.22-4.13l.43.42a14.82,14.82,0,0,1,1-1.66v0l.26.07a5.72,5.72,0,0,1,2.37,1.37l.31.4A1.69,1.69,0,0,0,1540.89,43.13Z"/><path class="cls-36" d="M1543.1,54.41c.12.77.07,1.56-.19,1.74a.46.46,0,0,1-.55,0l0-.47a1.84,1.84,0,0,0-.17-.5C1542.51,55,1542.81,54.68,1543.1,54.41Z"/><path class="cls-36" d="M1541.2,50.59c-.33.4-.71.87-1.1,1.37a17.59,17.59,0,0,1-5.2-1.3A26.76,26.76,0,0,0,1541.2,50.59Z"/><path class="cls-36" d="M1539,66.82c0,.43-.57.35-1.18,1.25s-1.6,1.72-2,1.6a.54.54,0,0,1-.42-.48l.42-.32a9.64,9.64,0,0,0,1.07-2.7,1.88,1.88,0,0,0,1.44-.39l0-.15A2.14,2.14,0,0,1,1539,66.82Z"/><path class="cls-36" d="M1537.58,41l-1-1a5.89,5.89,0,0,0-1.31.28c-1,.28-1.26-.28-1.26-.28a5.23,5.23,0,0,1,1-3.68h0s1.35.7,1.63,1.54A3.36,3.36,0,0,0,1539,39.7v0a14.82,14.82,0,0,0-1,1.66Z"/><path class="cls-36" d="M1619.52,33a.46.46,0,0,1,.14.38,5.37,5.37,0,0,1-1.07-.14c.12.17,0,.27,0,.27l-.55-.26a2.2,2.2,0,0,1-.61-.62.7.7,0,0,0,.41-.22A12.45,12.45,0,0,1,1619.52,33Z"/><path class="cls-36" d="M1616,22.26a1.69,1.69,0,0,1-.51-1.09,2.8,2.8,0,0,0-.3-1.1,1.82,1.82,0,0,0-.34.18c0-.12.16-.42.39-.47a2.81,2.81,0,0,1,2.29,1,.7.7,0,0,0,1,0,.65.65,0,0,1,1.18.48c0,.76,2.12-.14,1.44,1.27s.87,1.32.13,2.32-1.53-.45-2.38.29-1.84.42-1.77-.73c0-.94-1.23-1.21-1.7-1.28l0-.17,0-.48A.48.48,0,0,0,1616,22.26Z"/><path class="cls-36" d="M1615.63,44.07a1.89,1.89,0,0,1-.11,1c-.1.1-.37,0-.37,0s-.31-2-.31-2l-2.22-4.51a7.89,7.89,0,0,1-.42-1.07,3.25,3.25,0,0,0,1.57.13l.07.22s.69.5,1.07,3.42l.28,1.61.32.17Z"/><path class="cls-36" d="M1615.28,26.15l-.07-.5s.36-1.18,1-1.1a1.77,1.77,0,0,1,.29.7c.06.61.09,3.48.09,3.48a10.42,10.42,0,0,1,.82,2.18,9.72,9.72,0,0,0,.46,1.53h0a.7.7,0,0,1-.41.22h-.06S1616.3,30.8,1616,30a4.79,4.79,0,0,1-.37-1.59Z"/><path class="cls-36" d="M1609.74,34.71c.31-1,1.61.82,1.61.82A4.76,4.76,0,0,0,1609,33C1609.78,34.38,1609.75,34.68,1609.74,34.71Zm2.46,2.83a2.39,2.39,0,0,1-1-.68,6.55,6.55,0,0,0-1.75-1.21c-.73-.39-1.46-.72-1.78-.86l-.17-.07s-1-1.54-.46-2.59,3.36-3.37,4-3.9a2.53,2.53,0,0,0,2.4.62v0c.65,1.41.64,4.75.91,5.89s1.78,1.64,1.78,1.64a3.92,3.92,0,0,1-2.29,1.31A3.25,3.25,0,0,1,1612.2,37.54Z"/><path class="cls-36" d="M1611,28.23l0,0a4.47,4.47,0,0,0,.68-.83,6.72,6.72,0,0,0,.47-1.1c.05-.14.08-.24.08-.24a1.64,1.64,0,0,1-.09-1.06.79.79,0,0,1,.17-.29,7.74,7.74,0,0,1,1.33-1.29,1.19,1.19,0,0,1,.78-.09l-.08.31a2.57,2.57,0,0,0,1.26.14v0a6.28,6.28,0,0,1,.66.86c-.62-.08-1,1.1-1,1.1l.07.5a5.12,5.12,0,0,1-.8.9,6.53,6.53,0,0,0-1.11,1.78v0A2.53,2.53,0,0,1,1611,28.23Z"/><path class="cls-36" d="M1615.53,23.69v0a2.57,2.57,0,0,1-1.26-.14l.08-.31.16-.58a9.69,9.69,0,0,1-1.11-.45,3.32,3.32,0,0,1,1.39-2,1.82,1.82,0,0,1,.34-.18,2.8,2.8,0,0,1,.3,1.1,1.69,1.69,0,0,0,.51,1.09.48.48,0,0,1-.53.17l0,.48,0,.17Z"/><path class="cls-36" d="M1610.72,39.83a1.48,1.48,0,0,1-.19.86l-.28,0a6.61,6.61,0,0,0-.07-.88c.3.1.27-1.12.26-1.54l.43.11A10.16,10.16,0,0,0,1610.72,39.83Z"/><path class="cls-36" d="M1610.44,38.29c0,.42,0,1.64-.26,1.54-.07-.5-.16-1-.16-1l-2.39-4.05c.32.14,1,.47,1.78.86.09.29.17.56.23.78a12.7,12.7,0,0,0,.7,1.83Z"/><path class="cls-36" d="M1608,27.94a.46.46,0,0,1-.15-.31v0a4.68,4.68,0,0,0,1.33-.84,11.5,11.5,0,0,1,2.4-1.31l.52-.5a1.64,1.64,0,0,0,.09,1.06s0,.1-.08.24l-.09.08a12.07,12.07,0,0,1-1.57.83c-.84.35-2.31.86-2.31.86A.42.42,0,0,1,1608,27.94Z"/><path class="cls-36" d="M1611.35,35.53s-1.3-1.83-1.61-.82c0,0,0-.33-.76-1.74A4.76,4.76,0,0,1,1611.35,35.53Z"/><path class="cls-36" d="M1606.32,28l-.41-.2-.41,0c-.15,0-.15-.18-.15-.18l.59-.14s.88.23,1.08.24a5.42,5.42,0,0,0,.81-.05.46.46,0,0,0,.15.31,2.5,2.5,0,0,1-.92.38c-.22-.05-.87-.13-.87-.13s0-.11.13-.2Z"/><path class="cls-36" d="M1837.56,45.88c-.08,0-.19.2-.2.81a1.38,1.38,0,0,0,.8,1.25l.16-1.11.34,0-.4-.85v0l-.64-.11A.08.08,0,0,0,1837.56,45.88Z"/><path class="cls-36" d="M1842.85,42c0-.11,0-.22,0-.33.06-.61-.15-1.48-.72-1.7a.58.58,0,0,1-.18-.08l-.34-.65c0-.12-.23-.46-.1-.5.37-.1.78-.1.91-.38a.49.49,0,0,0,0-.42,4.46,4.46,0,0,0-.86-1.3.94.94,0,0,0-1.26,0,1.24,1.24,0,0,0-.3,1.24c.11.45.27.67.41,1.1a.84.84,0,0,1-.07.8,1.15,1.15,0,0,1-.35.22,3.23,3.23,0,0,0-.63.47c-1.14,1.06-2,2.59-1.79,5.45a.08.08,0,0,1,.07,0l.64.11.5-3.12,1.36-1.26a4.84,4.84,0,0,1,0,1.2,7.14,7.14,0,0,0,.83,4l1.56,4.12a3.29,3.29,0,0,0-1,1.94,2.45,2.45,0,0,1-.51,1.45l-.31.53,1.58,1.92.72-.06-1.12-2,2.37-4.46-.29-1.46,2.86-2.7-.25-.83c-1.1-.86-4-1.07-4-1.07a4.58,4.58,0,0,1,.1-1C1842.69,42.75,1842.79,42.4,1842.85,42Zm.65,5.88-.88-2c1,.21,2.3.45,2.3.45Z"/><path class="cls-36" d="M1842.62,43.11l2.24-.06.89.46.26-.2-.43-.4.73-.62-.41-.44-1.06.62-2-.46C1842.79,42.4,1842.69,42.75,1842.62,43.11Z"/></g></g></svg>