<svg xmlns="http://www.w3.org/2000/svg" width="24" height="24" viewBox="0 0 24 24" style="background:#fff">
  <g fill="none" fill-rule="evenodd">
    <rect width="24" height="24" fill="#FFF"/>
    <path fill="#9BB1CD" d="M5.36688617,8.66408224 L8.20191568,8.66408224 L8.20191568,18.5445232 L5.36688617,18.5445232 L5.36688617,8.66408224 Z M6.71213547,7.4282122 L6.69161037,7.4282122 C5.66535534,7.4282122 5,6.67290655 5,5.71643442 C5,4.74040443 5.68502523,4 6.73180535,4 C7.77773027,4 8.42085008,4.73854178 8.44137518,5.71364044 C8.44137518,6.67011257 7.77773027,7.4282122 6.71213547,7.4282122 L6.71213547,7.4282122 Z M19.5454545,18.5454545 L16.3307107,18.5454545 L16.3307107,13.4315417 C16.3307107,12.0932258 15.8278457,11.180526 14.7220559,11.180526 C13.8762507,11.180526 13.4058839,11.7961327 13.1869495,12.3912502 C13.1048491,12.6035926 13.1176772,12.9006857 13.1176772,13.1987101 L13.1176772,18.5454545 L9.93286582,18.5454545 C9.93286582,18.5454545 9.97391602,9.48737471 9.93286582,8.66408224 L13.1176772,8.66408224 L13.1176772,10.2147406 C13.305824,9.536735 14.3235269,8.56908695 15.9475755,8.56908695 C17.9624562,8.56908695 19.5454545,9.99122225 19.5454545,13.0506292 L19.5454545,18.5454545 L19.5454545,18.5454545 Z"/>
  </g>
</svg>
