<svg xmlns="http://www.w3.org/2000/svg" width="24" height="24" viewBox="0 0 24 24">
    <path fill="#C1C6C8" d="M18.2329635,8.05525061 C18.8686388,7.64964611 19.3564008,7.00650007 19.5853143,6.24035823 C18.9901391,6.61685685 18.3324529,6.88913766 17.6307448,7.03654485 C17.0707871,6.39809331 16.2704702,6 15.3847508,6 C13.685508,6 12.308505,7.46937744 12.308505,9.28145313 C12.308505,9.53871154 12.3340377,9.78939766 12.3868639,10.028817 C9.83007572,9.89173769 7.56295122,8.58666763 6.04419792,6.59995667 C5.77918648,7.08630651 5.62775136,7.64964611 5.62775136,8.25054167 C5.62775136,9.38848765 6.17098081,10.3931099 6.99683043,10.9827387 C6.4923402,10.9658385 6.01778482,10.8165535 5.6022187,10.5724397 L5.6022187,10.6128124 C5.6022187,12.2033078 6.66226448,13.5299726 8.07184363,13.8304203 C7.81299525,13.9074101 7.54182074,13.945905 7.260081,13.945905 C7.06198274,13.945905 6.86828667,13.9261881 6.68163409,13.8876932 C7.07254798,15.1908855 8.20919176,16.1410516 9.5562599,16.1664018 C8.50237718,17.0470894 7.17555908,17.5709952 5.7342842,17.5709952 C5.48600106,17.5709952 5.24035922,17.5569117 5,17.5259281 C6.36203557,18.4563773 7.97939778,19 9.71737982,19 C15.3785878,19 18.4724423,13.9994222 18.4724423,9.66264625 C18.4724423,9.51993355 18.4706815,9.37815976 18.4645184,9.23826376 C19.0658567,8.77538639 19.5888361,8.19702441 20,7.53885599 C19.4479662,7.79987 18.8545519,7.97638307 18.2329635,8.05525061 Z"/>
</svg>
