
<svg xmlns="http://www.w3.org/2000/svg" width="24" height="24" viewBox="0 0 24 24">
    <path fill="#C1C6C8"
       d="M7.58219015,15.9723721 L7.59427345,13.0554828 L8.14492681,13.0497668 L8.69500478,13.0429076 L8.68867543,12.5936278 L8.68177068,12.1437763 L7.09252869,12.1374887 L5.5044375,12.1312011 L5.5044375,12.5873401 L5.5044375,13.0429076 L6.04185676,13.0497668 L6.57927603,13.0554828 L6.58560538,15.9483648 C6.58848236,17.5391354 6.59653789,18.8549651 6.60286724,18.8715416 C6.61149817,18.8949773 6.72312487,18.9006934 7.0919533,18.8955489 L7.57010684,18.8892613 L7.58219015,15.9723721 Z M16.7488137,15.7671667 C16.7263732,15.7088632 16.7574446,15.0349434 16.7873651,14.9371994 C16.856988,14.707415 17.0048646,14.5953809 17.2378997,14.5953809 C17.431808,14.5953809 17.5549426,14.6696892 17.6377995,14.8365973 C17.6901605,14.9423438 17.695339,14.9875004 17.7033946,15.3784767 L17.7114501,15.8043208 L17.2367489,15.8043208 C16.8287936,15.8043208 16.760897,15.7991764 16.7488137,15.7671667 L16.7488137,15.7671667 Z M17.6349225,18.909839 C18.099842,18.7800852 18.421488,18.4645604 18.5428964,18.0192818 C18.5630352,17.9432586 18.5866264,17.7266211 18.594682,17.5385638 L18.6084915,17.1967453 L18.1608339,17.1967453 L17.7126009,17.1967453 L17.7016684,17.5031244 C17.6890097,17.8512306 17.6527598,17.9706956 17.525022,18.0821581 C17.3892287,18.2004799 17.1395071,18.2090539 16.9772456,18.1004494 C16.7839128,17.9706956 16.736155,17.7517717 16.7459367,17.0406978 L16.7528414,16.5365441 L17.6798034,16.530828 L18.6067653,16.5239688 L18.594682,15.7740259 C18.5797217,14.9371994 18.5624598,14.8103035 18.4209126,14.5130701 C18.1510522,13.9500413 17.4036136,13.6659547 16.782762,13.8905946 C16.3143902,14.0603606 16.037625,14.3661681 15.9265737,14.8394553 C15.8874468,15.0063633 15.8828436,15.1561232 15.8828436,16.3804965 C15.8828436,17.8820971 15.8880222,17.9432586 16.0422282,18.2507809 C16.3178425,18.7978048 17.0077416,19.0836063 17.6349225,18.909839 L17.6349225,18.909839 Z M13.9644755,18.0547212 C14.0214396,18.0164238 14.0588403,17.9632647 14.0881855,17.8803823 C14.1255862,17.7712062 14.1290386,17.6323067 14.12386,16.3444855 C14.1186815,15.0023621 14.1158045,14.9234809 14.0720744,14.835454 C13.9598723,14.6108141 13.6773532,14.5890932 13.4184253,14.7857246 L13.3332668,14.8497441 L13.3332668,16.3804965 L13.3332668,17.9112489 L13.4178499,17.9752684 C13.6094566,18.1204555 13.8194759,18.1507504 13.9644755,18.0547212 L13.9644755,18.0547212 Z M14.525486,18.9189846 C14.6664578,18.8784008 14.8367749,18.7120644 14.9133025,18.5422984 C15.0606037,18.2170564 15.0611791,18.2090539 15.0611791,16.3804965 C15.0611791,14.8794675 15.0565759,14.6942681 15.0191752,14.5319329 C14.8977668,14.012346 14.6330849,13.7854197 14.1877289,13.8185726 C13.9385827,13.8380071 13.7423729,13.9363228 13.5070362,14.1621059 C13.4046158,14.25985 13.313128,14.340446 13.3027708,14.340446 C13.2935645,14.340446 13.2849336,13.8431515 13.2849336,13.2361093 L13.2849336,12.1317727 L12.8499347,12.1317727 L12.4149358,12.1317727 L12.4149358,15.516233 L12.4149358,18.901265 L12.8499347,18.901265 L13.2849336,18.901265 L13.2849336,18.6731954 C13.2849336,18.5217207 13.2941399,18.4451259 13.3119772,18.4451259 C13.326362,18.4451259 13.4241793,18.5251503 13.5294766,18.623466 C13.8678091,18.9395623 14.1606853,19.026446 14.525486,18.9189846 L14.525486,18.9189846 Z M9.8952795,18.8966921 C10.0690489,18.8326726 10.2733143,18.6920583 10.4453575,18.5182911 C10.5241866,18.4382667 10.6030158,18.3731039 10.6202777,18.3731039 C10.6432935,18.3731039 10.651349,18.4382667 10.651349,18.6371844 L10.651349,18.901265 L11.0863479,18.901265 L11.5213468,18.901265 L11.5213468,16.3925001 L11.5213468,13.8843069 L11.0863479,13.8843069 L10.651349,13.8843069 L10.651349,15.8191825 L10.651349,17.7546297 L10.4637701,17.9392574 C10.3153181,18.0861593 10.2531754,18.1307443 10.1611122,18.1558949 C10.0057554,18.1987651 9.90678741,18.1690417 9.84291852,18.0598656 C9.79458531,17.978698 9.79343452,17.9409722 9.78652978,15.9306451 L9.78020043,13.8843069 L9.34520154,13.8843069 L8.91135343,13.8843069 L8.91135343,16.0569693 C8.91135343,18.4239766 8.91365501,18.4754208 9.04714674,18.7034904 C9.19329716,18.9527092 9.53508201,19.0310188 9.8952795,18.8966921 L9.8952795,18.8966921 Z M14.0703482,10.4484024 C15.7821494,10.4861281 17.6314701,10.5650093 18.1228578,10.6204548 C18.7586697,10.6924768 19.2051765,11.0194336 19.5141638,11.6396226 C19.7477743,12.1077654 19.8220003,12.472448 19.9169405,13.5962191 C19.9911665,14.4856331 20.0095792,15.0400879 19.9957697,16.0672581 C19.980234,17.2962042 19.9014048,18.37882 19.7834488,18.9864338 C19.6591634,19.6289154 19.3657118,20.1765109 18.9853754,20.4731727 C18.6924992,20.7023855 18.3800595,20.8047024 17.8880965,20.8321393 C17.7419461,20.8407133 17.5572441,20.8521454 17.4772642,20.858433 C17.1941697,20.8801539 15.6762767,20.9407438 14.8436796,20.9641796 C13.6065796,20.9984757 11.4419422,21.0104794 10.2646833,20.9899017 C9.69964508,20.9801844 9.03103567,20.9647512 8.7784371,20.9556055 C7.08274697,20.8950156 5.91872216,20.8304245 5.68626243,20.7835531 C5.3548347,20.7172471 4.98428009,20.494322 4.76908222,20.2319563 C4.4249958,19.8118283 4.24086928,19.3019585 4.151683,18.5171479 C3.94511607,16.6925916 3.94971923,14.5645143 4.1643417,12.8039776 C4.25870654,12.0323138 4.49289245,11.475001 4.88588748,11.0863111 C5.11029167,10.8639576 5.32606493,10.7404914 5.61318722,10.6673262 C6.235765,10.5089923 11.1070621,10.3832396 14.0703482,10.4484024 Z M10.5379312,3.00079674 L11.0298942,3.00365476 L11.0189617,3.08196435 C11.0103308,3.14541226 10.6742999,4.2657538 10.3227333,5.40381503 C10.2847572,5.52956765 10.1863646,5.85366645 10.1052339,6.12460619 C10.0241031,6.39497433 9.9262859,6.71621512 9.88715902,6.83853812 L9.81638539,7.06146323 L9.81607856,8.96006281 C9.81470667,9.77992767 9.80763938,9.84442591 9.77438153,9.85317143 C9.68577064,9.87717875 8.75363015,9.86574669 8.73809448,9.84059617 C8.71738025,9.8068716 8.72083262,7.83198384 8.74154685,7.55247005 C8.76859043,7.19407508 8.70759853,6.91170328 8.44867061,6.19034052 C8.36466289,5.95655496 8.21275851,5.50270232 8.11148893,5.18260473 C7.37901064,2.86818489 7.41756212,3.00365476 7.48776036,3.00308316 C7.97051707,2.99908194 8.56605127,3.00193995 8.57295601,3.00879918 C8.57755917,3.01337201 8.73406671,3.5781156 8.92107021,4.26461059 C9.10864909,4.95053399 9.26458124,5.52156521 9.268609,5.53414047 C9.27206138,5.54557253 9.38196189,5.14602215 9.51257664,4.64586968 C9.78588943,3.59640689 9.93952,3.01737323 9.94527395,3.0122288 C9.95735725,3.00079674 10.0931506,2.99851033 10.5379312,3.00079674 Z M15.0962132,9.92405018 C14.8533964,9.89204042 14.7112737,9.79886916 14.6140319,9.60738222 C14.4920481,9.36730903 14.4920481,9.36845223 14.4920481,6.9762944 L14.4920481,4.74418537 L14.9822849,4.74418537 L15.4719464,4.74418537 L15.4823035,6.80195554 C15.493236,9.03692259 15.4903591,8.98490674 15.6250016,9.0186313 C15.7487116,9.04892625 15.8856557,8.98319193 16.0559727,8.81056788 L16.219385,8.64537466 L16.2257143,6.69449421 L16.2314683,4.74418537 L16.7211297,4.73732613 L17.2107912,4.7316101 L17.2107912,7.28610314 L17.2107912,9.84116777 L17.1440453,9.85488624 C17.0640654,9.87146272 16.3218053,9.87031952 16.2619642,9.85317143 C16.2257143,9.84345418 16.2199604,9.81030122 16.2199604,9.61024023 L16.2199604,9.37816948 L16.0807147,9.51306775 C15.7607949,9.82230488 15.4155577,9.96634879 15.0962132,9.92405018 L15.0962132,9.92405018 Z M12.6289179,8.94832416 C12.7969334,8.82142833 12.7980842,8.81056788 12.8067151,7.37412997 C12.8141952,6.25778965 12.8101675,6.06801751 12.7762191,5.91597116 C12.7301875,5.71019414 12.6496321,5.61302166 12.4919738,5.57015145 C12.2882839,5.51642078 12.1018558,5.63188456 12.0362607,5.85309485 C11.9867767,6.02343249 11.9873521,8.55563301 12.0374115,8.72597066 C12.0753876,8.85400969 12.196796,8.99405238 12.2865577,9.01348688 C12.4033629,9.0380658 12.5466364,9.01062886 12.6294933,8.94832416 L12.6289179,8.94832416 Z M12.2451292,9.92290698 C11.8066779,9.87031952 11.4039012,9.61424145 11.209993,9.26442052 C11.0126323,8.90831196 10.9942197,8.72196944 11.0057276,7.15349128 C11.0149339,5.93883527 11.0183863,5.8628121 11.0667195,5.68847324 C11.182374,5.27406119 11.4062028,4.99168939 11.7531662,4.82078014 C12.2295935,4.58699459 12.7434216,4.61728954 13.1928054,4.90652057 C13.4793523,5.09000508 13.6531217,5.35637199 13.7463357,5.75249275 C13.7871888,5.92740322 13.7912165,6.06172988 13.7912165,7.28838955 C13.7912165,8.78027293 13.7843118,8.86658495 13.6301058,9.18954055 C13.4822292,9.50106409 13.1473491,9.77543345 12.7980842,9.87203432 C12.6438782,9.91376133 12.3763194,9.93891186 12.2451292,9.92290698 L12.2451292,9.92290698 Z" />
</svg>
