<svg xmlns="http://www.w3.org/2000/svg" xmlns:xlink="http://www.w3.org/1999/xlink" viewBox="0 0 600 360"><defs><style>.cls-1{fill:#87dbdf;}.cls-2{fill:#fff;}.cls-3{fill:#ff8574;}.cls-4{fill:#ed867e;}.cls-5{fill:#307ee2;}.cls-6{fill:#fae021;}.cls-7{fill:#2168b5;}.cls-8{fill:#c4c4c4;}.cls-9{fill:#eab0ad;}.cls-10{fill:#025eb8;}.cls-11{fill:#f8423a;}.cls-12{fill:#043a66;}.cls-13{fill:#063963;}.cls-14{fill:#02a9ce;}.cls-15{fill:#f8413a;}.cls-16{fill:#a31919;}.cls-17{fill:#016ba6;}.cls-18{fill:#004f72;}.cls-19{fill:#001f5a;}.cls-20{fill:#545f68;}.cls-21{fill:#ff575e;}.cls-22{fill:#2d373d;}.cls-23{fill:#c65d58;}.cls-24,.cls-25,.cls-26,.cls-27,.cls-28,.cls-29{opacity:0.5;}.cls-25{fill:url(#linear-gradient);}.cls-26{fill:url(#linear-gradient-2);}.cls-27{fill:url(#linear-gradient-3);}.cls-28{fill:url(#linear-gradient-4);}.cls-29{fill:url(#linear-gradient-5);}</style><linearGradient id="linear-gradient" x1="157.28" y1="157.24" x2="62" y2="157.24" gradientUnits="userSpaceOnUse"><stop offset="0" stop-color="#87dbdf"/><stop offset="1" stop-color="#88dbdf" stop-opacity="0"/></linearGradient><linearGradient id="linear-gradient-2" x1="176.18" y1="245.14" x2="80.9" y2="245.14" xlink:href="#linear-gradient"/><linearGradient id="linear-gradient-3" x1="140.31" y1="211.91" x2="81.07" y2="211.91" xlink:href="#linear-gradient"/><linearGradient id="linear-gradient-4" x1="177.46" y1="174.86" x2="118.22" y2="174.86" xlink:href="#linear-gradient"/><linearGradient id="linear-gradient-5" x1="198.3" y1="191.22" x2="103.03" y2="191.22" xlink:href="#linear-gradient"/></defs><title>Ilustracion_Ayuda_Defensa_Cliente</title><g id="bg2"><path class="cls-1" d="M247.83,112.2S350.1,61.68,416.11,64.85s-81,40.07,9.23,35.75S610.7,126,505.76,169.2c0,0-76.68,24.8,0,54.2,79.33,30.42-13.83,53-13.83,53s-57.75,14.41,76.39,27.72H338.11a256.83,256.83,0,0,1-60.49-7.22l-76.27-18.48L223,147.58Z"/><ellipse class="cls-1" cx="477.9" cy="60.66" rx="31.78" ry="8.41" transform="translate(-3.62 75.19) rotate(-8.96)"/><ellipse class="cls-1" cx="534.87" cy="49.65" rx="6.92" ry="3" transform="translate(-2.14 62.61) rotate(-6.69)"/></g><g id="pers1"><path class="cls-2" d="M461.87,245.46s1.93,6-2.1,2.25c-1.15-1.08-4.61-6.64-4.84-6.52a5.75,5.75,0,0,0-1.51,2.72c-.59,1.76-1.26.67-1.26.67.12-1,0-3,.23-3.94s2.09-3.07,2.09-3.07l-.09-1.33a3.15,3.15,0,0,0,2.88-.69l.21,1.25S461.58,244,461.87,245.46Z"/><path class="cls-3" d="M460.06,298.68a27.78,27.78,0,0,1,1.67,5.71s-1.34,1.33-5.91.34c0,0-.05-2-.21-4.13a3,3,0,0,0,3.08,1.39C460.16,301.67,460.21,299.89,460.06,298.68Z"/><path class="cls-2" d="M460.06,298.68c.15,1.21.1,3-1.37,3.31a3,3,0,0,1-3.08-1.39s0,0,0,0l-.12-1.44c-.27-2.65-.29-4.1-.29-4.1a61.28,61.28,0,0,0-3.46-9.68,5.48,5.48,0,0,0,5.16-1c1,8.55,2,11.46,2,11.46S459.46,297.07,460.06,298.68Z"/><path class="cls-4" d="M411.61,230.52a3.75,3.75,0,0,0-.32-.22,33.41,33.41,0,0,0,5.63-9.49,23.36,23.36,0,0,1,4.77-8.14c1.75-7.21,4.14-14.28,4.14-14.28,1.13-7.9,5.07-8.08,5.51-8.19s2.42-.63,3.6-1c-1,2.06-.85,6.42-.85,6.42a3.39,3.39,0,0,1,3-1.41l.22,1.67,1-1.4a2.61,2.61,0,0,1,2.39,2.36,25.42,25.42,0,0,0,4.34-3.33,1.78,1.78,0,0,0,1.4.07,3,3,0,0,1,3.34.86s.76.76,1.55,1.63a11.41,11.41,0,0,1,1.75,2.26c.29.87,1.49,9.48,2.12,12.21s1.58,7.83,1.58,7.83a39.91,39.91,0,0,1,.72,9c-.05,2.88-.09,8-.09,8a.54.54,0,0,1-.12.09,3.15,3.15,0,0,1-2.88.69,1.89,1.89,0,0,1-.37-.11,65.41,65.41,0,0,0-1.45-6.39c-1.1-4.13-.76-9.08-.85-9.76s-.34-1.63-.34-1.63c-.82-2.16-4.79-13.28-4.79-13.28a59.6,59.6,0,0,0-3.45,8.62,9,9,0,0,0,1.34,5.45,56.93,56.93,0,0,1,3.39,7.44,1,1,0,0,1-.16.12c-3.43,2.27-12.16,1.22-12.16,1.22-.33-1.14-1.94-5.16-1.94-5.16.05,1.28-1.8,5.2-1.8,5.2a27.3,27.3,0,0,1-7.34-1.48l-.45-.17c.85-3.12,3.4-7,3.64-9,.17-1.47.21-4.71.22-6.44a1.8,1.8,0,0,0,0-1.1v1.1a31.06,31.06,0,0,1-2.25,5.33c-1.7,4.77-10.74,18.17-11.62,16.71a.33.33,0,0,0-.06-.1.22.22,0,0,0-.05-.08A9.24,9.24,0,0,0,411.61,230.52Z"/><path class="cls-5" d="M456.67,282.23c.08.75.15,1.47.23,2.14a5.48,5.48,0,0,1-5.16,1,74.61,74.61,0,0,0-3.66-7.23c-3.15-5.46-3.71-9.22-3.78-10.83,1.68,1.21,4.88,3.3,5.3,2.07a9.56,9.56,0,0,0,.2-3.95l1.9-.74a10,10,0,0,0,.53,1.35C452.89,267.3,455.64,271.63,456.67,282.23Z"/><path class="cls-6" d="M435.85,172.71h-.19c.59-1.34,2.81-5.17,8.91-4.5,7.35.81,7.45,6.54,7.4,8.76a50.68,50.68,0,0,0,.9,10.34c.75,3.27,1.07,8.35-1.56,8.81-.79-.87-1.55-1.63-1.55-1.63a3,3,0,0,0-3.34-.86,1.78,1.78,0,0,1-1.4-.07c-.88-.46-1.24-1.78-1.33-3.33a27.92,27.92,0,0,1,.53-6.41,7.92,7.92,0,0,0,.36-1.48h.06a19,19,0,0,0-.32-6c-3.94-1.87-4.54-4.72-4.54-4.72S437.94,172.77,435.85,172.71Z"/><path class="cls-5" d="M451.7,264.69l-1.9.74c-1.44,1-5.26-.13-6.38-.51a27.55,27.55,0,0,1-1.07-2.54c-2.91-7.63-6.37-23.45-6.37-23.45l-.8-.24s-3.93,17.7-4.75,23.34a14.32,14.32,0,0,0-.07,4.52c.42,1.79,2.55,6.19,1.38,16.56-.16,1.33-.28,2.56-.4,3.7a5.58,5.58,0,0,1-5.56,0c0-.4-.1-.77-.16-1.12-.62-4.06-2.54-16.35-2.54-16.35a19.05,19.05,0,0,1-2-7.76,93,93,0,0,1,3.38-35.13,27.3,27.3,0,0,0,7.34,1.48s1.85-3.92,1.8-5.2c0,0,1.61,4,1.94,5.16,0,0,8.73,1.05,12.16-1.22.77,1.67,2.24,6,2.14,14.13,0,0,0,1.53.09,3.82.11,4.38.33,11.57.63,16.16C450.57,260.81,451.14,263.05,451.7,264.69Z"/><path class="cls-7" d="M444.3,266.6a14.82,14.82,0,0,1-.88-1.68c1.12.38,4.94,1.54,6.38.51a9.56,9.56,0,0,1-.2,3.95c-.42,1.23-3.62-.86-5.3-2.07C444.29,267,444.29,266.75,444.3,266.6Z"/><path class="cls-2" d="M437.68,186.37l-1,.18c-3,.4-3.08-1.33-3.08-1.33-.39-7.28,1.37-11.12,2.23-12.51,2.09.06,3.79-1.18,3.93-1.09s.6,2.85,4.54,4.72a19,19,0,0,1,.32,6h-.06a3.46,3.46,0,0,1-1.19,2A25.09,25.09,0,0,1,437.68,186.37Z"/><path class="cls-8" d="M444.22,183.8a8.6,8.6,0,0,1-1.25,2.29c-1.25,1.59-4.54,2.77-5.88,2a2.83,2.83,0,0,0,.11-.31c.19-.51.36-1,.48-1.39a25.09,25.09,0,0,0,5.71-2.05,3.46,3.46,0,0,0,1.19-2A7.92,7.92,0,0,1,444.22,183.8Z"/><path class="cls-9" d="M434.94,189.23a2.31,2.31,0,0,1,.55-.77l1.37-.56a.72.72,0,0,0,.23.17,11.19,11.19,0,0,1-.62,1.55h0a6.5,6.5,0,0,0,1.39,4.62c1.36-1.64,4.68-3.41,5.86-4,.09,1.55.45,2.87,1.33,3.33a25.42,25.42,0,0,1-4.34,3.33,2.61,2.61,0,0,0-2.39-2.36l-1,1.4-.22-1.67a3.39,3.39,0,0,0-3,1.41S434,191.29,434.94,189.23Z"/><path class="cls-2" d="M444.22,183.8a27.92,27.92,0,0,0-.53,6.41c-1.18.62-4.5,2.39-5.86,4a6.5,6.5,0,0,1-1.39-4.62h0a11.19,11.19,0,0,0,.62-1.55c1.34.79,4.63-.39,5.88-2A8.6,8.6,0,0,0,444.22,183.8Z"/><path class="cls-3" d="M430.77,299c.3,1.15.76,2.7.76,2.7s-2.89.55-6.6,1.58-7.48.68-7.42.14a1.25,1.25,0,0,1,.55-.83,12.93,12.93,0,0,0,3-1.51c.31.58,1.38,1.46,5.09-.1Z"/><path class="cls-2" d="M431.34,286.81c-.79,7.71-.84,11-.84,11a6.12,6.12,0,0,0,.27,1.21l-4.63,2c-3.71,1.56-4.78.68-5.09.1,2.57-1.59,5.53-3.84,5.53-3.84s-.29-6.25-.8-10.42A5.58,5.58,0,0,0,431.34,286.81Z"/><path class="cls-4" d="M427.88,209.75a1.8,1.8,0,0,1,0,1.1Z"/><path class="cls-2" d="M413.9,232.71a.22.22,0,0,1,.05.08,38.2,38.2,0,0,1-2.76,5.44,5.79,5.79,0,0,1-.46,1.29,19,19,0,0,1-.71-7.92l1.59-1.08A9.24,9.24,0,0,1,413.9,232.71Z"/><path class="cls-8" d="M410.73,239.52a4.58,4.58,0,0,1-3,2.56,2.35,2.35,0,0,1-.63.06,14.41,14.41,0,0,0-1.17-2.71c-.16-.16-.59-.11-1,0a8.41,8.41,0,0,1-.15-1.78c0-.59,4-5.17,4.67-5.61.14-.11.36-.26.62-.44A19,19,0,0,0,410.73,239.52Z"/><path class="cls-2" d="M405.89,239.43a14.41,14.41,0,0,1,1.17,2.71c-1.35,0-1.94-1.47-2.18-2.71C405.3,239.32,405.73,239.27,405.89,239.43Z"/><path class="cls-10" d="M311.84,257.83c-.34-.23-5.9-3.94-6.95-4.93s-2-5.87-2-5.87l-4.06-4.8s.66,2.69,1.31,5c.47,1.69-.42,4.08-1,5.28-.45,0-.9-.1-1.38-.17h0a57.52,57.52,0,0,1-11.63-15.55c-2.91-5.81-18.32-12.22-21.81-13.61a58.15,58.15,0,0,1,5.06-6.58s28.45,7.67,41.24,29.37a15.22,15.22,0,0,1,5.23,6.82c.09.08.7.63,1.68,1.59v3.46l14.69,17.84,3.66,1.92c.33.56.65,1.13,1,1.7,0,0,8.7,12.78,18.79,19.36s7.52,5.7.58,5.7H349s-.95-2.7-2.35-3.58-4.3-1.9-5.4-3.65-2.49-5-5-7.09-9-7.53-9-7.53l.39-4.19s-15.42-17-18.3-18.89a3.93,3.93,0,0,0-1.91-.63l.16-2.25A39.38,39.38,0,0,1,311.84,257.83Z"/><path class="cls-11" d="M335.89,277.6l-3.66-1.92-14.69-17.84v-3.46A115.91,115.91,0,0,1,335.89,277.6Z"/><path class="cls-11" d="M327.61,278.32l-.39,4.19s-14.4-3.36-19.66-7.82a97.91,97.91,0,0,1-4.63-14.31,7.5,7.5,0,0,1,4.47-1.58,3.93,3.93,0,0,1,1.91.63C312.19,261.3,327.61,278.32,327.61,278.32Z"/><path class="cls-12" d="M304.89,252.9c1.05,1,6.61,4.7,6.95,4.93a39.38,39.38,0,0,0-4.28-1.28c-2.15-.51-4.56-.78-5.73,0l-2.38-4-.3,0c.53-1.2,1.42-3.59,1-5.28-.65-2.32-1.31-5-1.31-5l4.06,4.8S303.8,251.89,304.89,252.9Z"/><path class="cls-10" d="M307.56,256.55l-.16,2.25a7.5,7.5,0,0,0-4.47,1.58c-.27-1.05-.53-2.16-.78-3.3l-.32-.53C303,255.77,305.41,256,307.56,256.55Z"/><path class="cls-13" d="M292.48,199.37c1.58-.29,4.49-.65,5.73.35a6.07,6.07,0,0,1-.74,4.23H296a10,10,0,0,1-1.9,7.82s-4.61,2.56-8.19,0a20.11,20.11,0,0,0-7.33,2.49c-2.43,1.53-7.59.36-10.44-1-2.9-7.06,5.28-11,5.28-11s2.58-2.19,4.83-2.55a2.93,2.93,0,0,1,1.45.07c2,.66,3.17,2.25,5.59,3.48.18-1.29.63-2.91,1.79-3.48A8.72,8.72,0,0,1,292.48,199.37Z"/><path class="cls-11" d="M297.77,252.34h0c-6.08-.95-14.18-4.19-14.18-4.19-15.41-1.83-25.72-12.2-25.72-12.2a54.62,54.62,0,0,1,6.46-12.78c3.49,1.39,18.9,7.8,21.81,13.61A57.52,57.52,0,0,0,297.77,252.34Z"/><path class="cls-10" d="M270.37,200.58a17.5,17.5,0,0,0,2.23-6.85c8.47-4,9-11.34,8.91-13.67h0s3.31-2.17,3.65-7.61a11,11,0,0,1,2.22,10.09c-2.82,10-9.13,11-9.13,11s1.08,1.88,0,6.14c-2.25.36-4.83,2.55-4.83,2.55s-8.18,4-5.28,11a4.44,4.44,0,0,1-1.92-1.43c.22-2.95,1-6.82,1-6.82A22.72,22.72,0,0,0,270.37,200.58Z"/><path class="cls-11" d="M281.51,180.06c.08,2.33-.44,9.65-8.91,13.67a14,14,0,0,1-6.14-1.48,2.28,2.28,0,0,0,.28-.22c2.06-1.73,6.57-8.65,7.66-17.81l6.5-2.13-.32-4a21.87,21.87,0,0,1,4.59,4.36c-.34,5.44-3.65,7.61-3.65,7.61Z"/><path class="cls-10" d="M272.71,173.48c-1.45.41-8.86,2.51-10.32,2.56-.85,0-3.56-2.38-5.91-4.62l2.24-.37a5,5,0,0,0,3.68,1.6c4.66-.06,7.86-3.64,10-7.54,0,0,0,0,0,0a23.09,23.09,0,0,0,1.59-2h0l.24-.35.88,2.17a30.39,30.39,0,0,1,5.46,3.18l.32,4-6.5,2.13-3-.33Z"/><path class="cls-10" d="M269.05,161.22c-.48-.09-1-.19-1.51-.32l1.07-3.48,3.13-1s4.77-5.11,5.35-8.78c1.55,2.35,2.27,5.52.34,9.54-.29.6-.58,1.18-.87,1.72a8,8,0,0,1-2.23,1.84,1.36,1.36,0,0,0,.11-.28l-.28.37a5.92,5.92,0,0,1-1.59.49A10.42,10.42,0,0,1,269.05,161.22Z"/><path class="cls-14" d="M274.24,162.74l-.24.35h0l-.81.46c.44-1,.82-1.91,1.15-2.81a8,8,0,0,0,2.23-1.84A37.49,37.49,0,0,1,274.24,162.74Z"/><path class="cls-11" d="M277.09,147.65c-.58,3.67-5.35,8.78-5.35,8.78l-3.13,1-1.07,3.48c-.56-.14-1.16-.3-1.8-.5a7.12,7.12,0,0,1-.74-.26l.95-2.87.28-.84-2.6-2.37c.94-3-.82-11.23-.82-11.23,2.06-1.05,4.71-1.29,8.11-.25A15.62,15.62,0,0,1,277.09,147.65Z"/><path class="cls-10" d="M274.16,160.84l.28-.37a1.36,1.36,0,0,1-.11.28Z"/><path class="cls-10" d="M271.39,173.89l3,.33c-1.09,9.16-5.6,16.08-7.66,17.81a2.28,2.28,0,0,1-.28.22,13,13,0,0,1-5.06-4.52v0l-2.42-.94c3-5.56,3-8.21,3.51-9.27C262.85,176.7,268.56,174.8,271.39,173.89Z"/><path class="cls-14" d="M274.16,160.84l.17-.09c-.33.9-.71,1.85-1.15,2.81a14.7,14.7,0,0,1-1.77.85Z"/><path class="cls-2" d="M274.16,160.84l-2.75,3.57a6.19,6.19,0,0,1-1.7.44l2.86-3.52A5.92,5.92,0,0,0,274.16,160.84Z"/><path class="cls-10" d="M273.18,163.56l.81-.46a23.09,23.09,0,0,1-1.59,2Q272.81,164.33,273.18,163.56Z"/><path class="cls-10" d="M269.71,164.85a6.19,6.19,0,0,0,1.7-.44,14.7,14.7,0,0,0,1.77-.85q-.37.76-.78,1.53s0,0,0,0a18.05,18.05,0,0,1-7,5.08h0c.46-1.93,1.78-5.14,1.74-5.27l.07-.24A7.32,7.32,0,0,0,269.71,164.85Z"/><path class="cls-14" d="M272.57,161.33l-2.86,3.52a7.32,7.32,0,0,1-2.54-.18,15,15,0,0,1-1.5-.44l3.38-3A10.42,10.42,0,0,0,272.57,161.33Z"/><path class="cls-15" d="M270.24,194.68h0a22.52,22.52,0,0,0,2.35-1,17.5,17.5,0,0,1-2.23,6.85,5.62,5.62,0,0,0-3.63-2,17.78,17.78,0,0,0-3.11,3.95c-1.51,2.53-4.06,7.68-4.06,7.68-.31,1.22,1,7.32.9,7.37-2.21,1-4.66,1.63-6.53,1a40.35,40.35,0,0,0-8.52-1.59l2.92-6.64c.91-7.69-7.38-16.8-9.05-18-1.29-.93-7.68,1.22-10.61,2.29L225,180.94l1.51-14,8.29-12.85,4.11-3a15,15,0,0,1,8.4,1.34,13.89,13.89,0,0,0-2.85,4.67s6.86,10.33,7.42,11.59-4.66,8.44-3.71,19.62a1.57,1.57,0,0,1,.11.17,51.78,51.78,0,0,1-5.95.31,25.56,25.56,0,0,0,6.6.66c1.13,1.7,3.28,5,4.52,7,1.73,2.83,1.42,7.5,1.42,7.5l4.09-7s3.55-1.95,6.07-3.63A7.38,7.38,0,0,0,270.24,194.68Zm-26-22.4c.5-.59.31-2.37,0-3.06a4.08,4.08,0,0,0-1.3-1.21c-1.9-1.24-8.69.64-8.69.64-3.49.65-3,4.67-3,4.67s-2,7.4,0,8.86a7.65,7.65,0,0,0,6.78.8c.28-.14.61-.73.88-.89s1-.18,1.29-.4c.74-.62,1.84-2.49,1.7-3.44,0-.29-.81-.83-.81-.83a4.52,4.52,0,0,0,1.37-.64,3.85,3.85,0,0,0,.56-2.58c-.15-.49-1.53-1.44-1.53-1.44S243.77,172.81,244.21,172.28Z"/><path class="cls-12" d="M272.71,173.48l-1.32.41c-2.83.91-8.54,2.81-8.91,3.61-.49,1.06-.48,3.71-3.51,9.27,0,0,.11-.39.27-1.06.43-1.69,1.23-5.15,1.69-8.21.23-1.64-5.51-4-7.86-8.91-.16-.32-.29-.66-.42-1,0,0,1.78,1.86,3.83,3.83,2.35,2.24,5.06,4.65,5.91,4.62C263.85,176,271.26,173.89,272.71,173.48Z"/><path class="cls-16" d="M272.6,193.73a22.52,22.52,0,0,1-2.35,1h0a7.38,7.38,0,0,1-5.23-1.39c.54-.36,1.05-.71,1.45-1A14,14,0,0,0,272.6,193.73Z"/><path class="cls-12" d="M265.36,170.19a18.05,18.05,0,0,0,7-5.08c-2.13,3.9-5.33,7.48-10,7.54a5,5,0,0,1-3.68-1.6c-4-4-5-14.26-5.24-17.7,1.72-.53,3.08-.9,3.08-.9-.23.92-.42,1.83-.57,2.7-.09.56-.18,1.1-.25,1.63a15.88,15.88,0,0,0,2.68,10.81,12.64,12.64,0,0,0,1.06,1.43s2,2.88,4.81,1.63C264.61,170.5,265,170.36,265.36,170.19Z"/><path class="cls-13" d="M264.33,223.18A54.62,54.62,0,0,0,257.87,236c-4.57,2.94-8.42,2.14-8.42,2.14a22.52,22.52,0,0,0-1.63-11.39,15.52,15.52,0,0,0-8.53-8.42c-4.49-1.79-8.12.24-10.59,2.63l4.22-4.41,7.38.09s2.28.09,5.12.39a40.35,40.35,0,0,1,8.52,1.59c1.87.66,4.32,0,6.53-1a32.49,32.49,0,0,0,5.76-3.42l3.16,2.41A58.15,58.15,0,0,0,264.33,223.18Z"/><path class="cls-10" d="M266.24,211.79a11.29,11.29,0,0,0,0,2.4,32.49,32.49,0,0,1-5.76,3.42c.12-.05-1.21-6.15-.9-7.37,0,0,2.55-5.15,4.06-7.68a17.78,17.78,0,0,1,3.11-3.95,5.62,5.62,0,0,1,3.63,2,22.72,22.72,0,0,1-3.14,4.39S266.46,208.84,266.24,211.79Z"/><path class="cls-2" d="M262,162.69a11.41,11.41,0,0,1-1.58-1.15l2.67-2.35a10.22,10.22,0,0,0,1.9.95,7.12,7.12,0,0,0,.74.26c.64.2,1.24.36,1.8.5s1,.23,1.51.32l-3.38,3c-.64-.2-1.34-.46-2.13-.77A10.94,10.94,0,0,1,262,162.69Z"/><path class="cls-11" d="M265.67,164.23a15,15,0,0,0,1.5.44l-.07.24c0,.13-1.28,3.34-1.74,5.27h0c-.38.17-.75.31-1.07.46-2.79,1.25-4.81-1.63-4.81-1.63a12.64,12.64,0,0,1-1.06-1.43c2.24-1.38,3.51-4.68,3.59-4.9a10.94,10.94,0,0,0,1.53.77C264.33,163.77,265,164,265.67,164.23Z"/><path class="cls-10" d="M266.23,156.43l-.28.84-.49-.16-2.36,2.08a15.66,15.66,0,0,1-6.17-8.06v0c1.05-3.46,2.82-6.75,5.88-8.28,0,0,1.76,8.21.82,11.23Z"/><path class="cls-10" d="M266,157.27l-.95,2.87a10.22,10.22,0,0,1-1.9-.95l2.36-2.08Z"/><path class="cls-12" d="M266.46,192.25c-.4.33-.91.68-1.45,1-2.59-1.92-3.39-5.16-3.61-5.56A13,13,0,0,0,266.46,192.25Z"/><path class="cls-14" d="M263.1,159.19l-2.67,2.35a17.53,17.53,0,0,1-4.44-6.39c.15-.87.34-1.78.57-2.7.11-.45.23-.88.37-1.32A15.66,15.66,0,0,0,263.1,159.19Z"/><path class="cls-10" d="M265,193.29c-2.52,1.68-6.07,3.63-6.07,3.63l-4.09,7s.31-4.67-1.42-7.5c-1.24-2-3.39-5.28-4.52-7,6.32-.24,8.35-3.44,8.47-3.65h0l1.85-.1c-.16.67-.27,1.06-.27,1.06l2.42.94v0C261.62,188.13,262.42,191.37,265,193.29Z"/><path class="cls-10" d="M260.43,161.54a11.41,11.41,0,0,0,1.58,1.15c-.08.22-1.35,3.52-3.59,4.9a15.88,15.88,0,0,1-2.68-10.81c.07-.53.16-1.07.25-1.63A17.53,17.53,0,0,0,260.43,161.54Z"/><path class="cls-10" d="M253.07,168.59c2.35,4.93,8.09,7.27,7.86,8.91-.46,3.06-1.26,6.52-1.69,8.21l-1.85.1h0c-2.32,1.57-6,2.32-9.12,2.68a1.57,1.57,0,0,0-.11-.17c-1-11.18,4.25-18.36,3.71-19.62Z"/><path class="cls-10" d="M249.93,154.51c1.15-.4,2.43-.81,3.55-1.16.23,3.44,1.23,13.71,5.24,17.7l-2.24.37c-2.05-2-3.83-3.83-3.83-3.83.13.34.26.68.42,1l-1.21.12c-.56-1.26-7.42-11.59-7.42-11.59a13.89,13.89,0,0,1,2.85-4.67A9.21,9.21,0,0,1,249.93,154.51Z"/><path class="cls-10" d="M225.11,238.38a.75.75,0,0,0-.05.16c-.79,2.83,1.6,5.58,1.6,5.58l6.31,4.51,6.32-6.76s-4.5,2.9-7.77,2C229.32,243.2,226.65,240.42,225.11,238.38ZM224,236.7a37,37,0,0,1,1.06-10.93,20.6,20.6,0,0,1,2.79-4l.1-.11.62-.64.13-.13c2.47-2.39,6.1-4.42,10.59-2.63a15.52,15.52,0,0,1,8.53,8.42,21.53,21.53,0,0,1-1.5,7.55c-1.31,3.39-.83,6.16.15,9.2a15.42,15.42,0,0,1-1,1.31s.1.22.25.62c-.28-.11-4.33-1.87-5.86,1.42s-.89,22.16.46,26.91c0,0,5.82,3.91,6,5.31l.78,8.08s2.31,3,2.16,5a8.31,8.31,0,0,1-.58,2.89s5.11,7.19,4.64,9.36h-17s3.68-6.48,4.07-8.94a18.5,18.5,0,0,1-1-6.2s-2.38-5.38-4.71-10.41l.86-4.31s-4.86-17.29-5.75-20.32-5.08-5.59-5.08-5.59l1.55-4.31A16.56,16.56,0,0,1,224,236.7ZM235.47,232c1.1,0,6.36,3.41,6.36,3.41C241.25,231.55,235.94,232,235.47,232Z"/><path class="cls-11" d="M247.82,226.71a22.52,22.52,0,0,1,1.63,11.39,25.67,25.67,0,0,1-3,5.36c-1-3-1.46-5.81-.15-9.2A21.53,21.53,0,0,0,247.82,226.71Z"/><path class="cls-12" d="M257.38,185.82c-.12.21-2.15,3.41-8.47,3.65l-.65-1C251.4,188.14,255.06,187.39,257.38,185.82Z"/><path class="cls-11" d="M250.36,261s-2.89,5.45-4.91,9.65l.81,8.38c-.14-1.4-6-5.31-6-5.31-1.35-4.75-2-23.52-.46-26.91s5.58-1.53,5.86-1.42h0C246.69,247.87,250.23,257,250.36,261Z"/><path class="cls-16" d="M248.91,189.47a25.56,25.56,0,0,1-6.6-.66,51.78,51.78,0,0,0,5.95-.31Z"/><path class="cls-10" d="M239.29,192.34c1.67,1.21,10,10.32,9.05,18L245.42,217c-2.84-.3-5.12-.39-5.12-.39l-7.38-.09v-1.13c-1.78-4.47-3.76-18.48-3.76-18.93l-.48-1.82C231.61,193.56,238,191.41,239.29,192.34Z"/><path class="cls-13" d="M244.21,169.22c.31.69.5,2.47,0,3.06s-2.75.48-2.75.48,1.38,1,1.53,1.44a3.85,3.85,0,0,1-.56,2.58,4.52,4.52,0,0,1-1.37.64s.77.54.81.83c.14.95-1,2.82-1.7,3.44-.25.22-1,.23-1.29.4s-.6.75-.88.89a7.65,7.65,0,0,1-6.78-.8c-2-1.46,0-8.86,0-8.86s-.49-4,3-4.67c0,0,6.79-1.88,8.69-.64A4.08,4.08,0,0,1,244.21,169.22Z"/><path class="cls-12" d="M239.29,241.87,233,248.63l-6.31-4.51s-2.39-2.75-1.6-5.58a.75.75,0,0,1,.05-.16c1.54,2,4.21,4.82,6.41,5.45C234.79,244.77,239.29,241.87,239.29,241.87Z"/><path class="cls-12" d="M235.47,232c.47,0,5.78-.46,6.36,3.41C241.83,235.42,236.57,232,235.47,232Z"/><path class="cls-11" d="M235.44,274.54l-.86,4.31c-1.7-3.64-3.38-7.11-4.12-8.2-1.72-2.57-8.23-6.67-6.63-19.86l.78-2.16s4.2,2.56,5.08,5.59S235.44,274.54,235.44,274.54Z"/><path class="cls-13" d="M248.4,111.9a5,5,0,0,1,3.11,1.06S238.78,198.55,201.63,279l-1.78-.69C236.35,199.27,248,114.85,248.4,111.9Z"/><path class="cls-15" d="M248.23,111.89h.17c-.41,2.95-12.05,87.37-48.55,166.44,0,0-15.48-60.23,16.16-146.57A116.26,116.26,0,0,1,248.23,111.89ZM200.38,269.3c34.63-75,41.93-149.75,41.93-149.75C225.05,126.28,217.13,135,217.13,135,190.56,215,199,257.27,200.38,269.3Z"/><path class="cls-10" d="M242.31,119.55S235,194.29,200.38,269.3C199,257.27,190.56,215,217.13,135,217.13,135,225.05,126.28,242.31,119.55Z"/><path class="cls-2" d="M411,232.85l1.09,6-1.76,2.56s-.29,1.39-.88,1.61a3.68,3.68,0,0,1-1.61,0,34.77,34.77,0,0,1-.88-4.91c.14-.51-2.65.44-2.65.44a11,11,0,0,1-.32-2.28c-.11-1.61,3-3.07,3-3.07s-1-3.67-2.35-8.36a13.91,13.91,0,0,1,0-8.3,51.42,51.42,0,0,1-.82-9.82,10.17,10.17,0,0,1,6.4-.9c.16,3,.31,7.21.14,10.51a55.94,55.94,0,0,1,.58,11C410.57,232.35,411,232.85,411,232.85Z"/><path class="cls-17" d="M403.17,204.1l0-.14-.55-1.68-4.85,2.13a20.1,20.1,0,0,0,5.34-.29c-1.24,3.83-3.46,10.57-3.57,12.54-.16,2.49.29,8.05.29,8.05a1.58,1.58,0,0,1-.37.15c-2.36.75-10.48.87-13.9.52-3-.3-6.5-2.94-7.6-3.81l-.35-.3L378,218l.41-2.78a85.09,85.09,0,0,1-1.17-10.64l-.06-.35c-.23-1.37-.37-2.65-.46-3.81a9.5,9.5,0,0,1-2.38-.81,6.88,6.88,0,0,1-.77-.38c.08-.95.44-4,.44-4-.74-7.55,4.47-8.87,5.2-8.8s5.8-1.32,6.17-1.22l.05,0a6.35,6.35,0,0,1-.71,1.19s-.59,2.35,2.79,3c2.85.56,7.49-2.51,8.85-3.46l7.13,4.26s7.26,1.83,6.45,12c0,0,.12,1.45.23,3.57a10.17,10.17,0,0,0-6.4.9v-.66Zm-22.74-2.33a20.19,20.19,0,0,0,10.63,6.82C389.23,206.16,380.43,201.77,380.43,201.77Z"/><path class="cls-18" d="M403.13,204a.52.52,0,0,0-.06.16,20.1,20.1,0,0,1-5.34.29l4.85-2.13Z"/><path class="cls-19" d="M394.21,294.06l.39-.78c.47.49,1.38.93,3.14.66s2.72-.74,3-1.54c.27.79.68,2,1,3.29.54,2.09,1,6,1,6l-3.18.78a16.68,16.68,0,0,0-3.7,1.49c-3.76.78-10-.12-10-.12a4.48,4.48,0,0,1,.2-1.36c.11-.38.21-.67.21-.67l3.23-.95C391.27,299.42,393.17,296,394.21,294.06Z"/><path class="cls-20" d="M379.61,250.51c.31-.55,5.15-9.49,7-11l.41-1.06-.36-2.41c-.17,0-4.58-1.21-4.58-1.21a8.12,8.12,0,0,0,2.42,1.58,14.1,14.1,0,0,1-3.37,3.78,14.12,14.12,0,0,0,3.95-1.94S380.67,246.14,379.61,250.51Zm12.9,41.13a8.33,8.33,0,0,1-5.32,2.51l-.22-.27-.68-.83a6.79,6.79,0,0,1-.61-3.12c-.5-2.92-11.65-24.84-13.77-28.75a12,12,0,0,1-1-8.05c1.1-10.45,4.92-24.12,4.92-24.12V227.4c0-1.14,1.34-4.17,2.09-5.83,1.1.87,4.59,3.51,7.6,3.81,3.42.35,11.54.23,13.9-.52,1.58,7.86.64,12.2.64,12.2-.11,3.11-2.21,19.4-.81,25.73s2.32,11.26,1.91,14A118.53,118.53,0,0,0,401,290a5.8,5.8,0,0,1-.18,2.37c-.32.8-1.13,1.25-3,1.54s-2.67-.17-3.14-.66a1.63,1.63,0,0,1-.47-.84s-.4-3.72-.7-6.83-2.72-16.59-3.83-21.72c-.94-4.35-2.37-18.5-2.74-22.84-.78,4.59-4.18,18-4.18,18,2.32,4.82,4.61,9,5.21,14.88S391.71,288,391.71,288a5.53,5.53,0,0,1,.81,3.62Z"/><path class="cls-2" d="M398.11,174.25a1.58,1.58,0,0,1,.57.21c1.48.87-.06,3-.7,3.74s-1.59,1.2-2.12.45a4.17,4.17,0,0,0-.31,1.52l-.69,0c.12-1,.16-1.92.16-1.92l-.91,2.53s-5,2-6.13,2.4a3.26,3.26,0,0,1-1.72,0,11.61,11.61,0,0,1-1.73-.59c-.28-.64-.7-1.84-.7-1.84-1.09-7.5,2.2-12,3-12.92a6.5,6.5,0,0,1,1.05.34c.8.34,2.21-.8,3.88-.77s3.91,2,3.91,2a3.34,3.34,0,0,1-.81,1.46c-.73.94.34,1.51.37,2.11a14.07,14.07,0,0,1-.4,2.35s.73.3.84.33S396.83,174.09,398.11,174.25Z"/><path class="cls-21" d="M386.84,167.77a4.11,4.11,0,0,0-3.11.46c.14-.29,2.86-5.42,7.54-4,0,0,3.48,1.68,4.27,2.28s3.68,1.27,3,5.24c-.18,1.08-.32,1.89-.44,2.5-1.28-.16-2.43,1.35-2.43,1.35s-.84-.33-.84-.33a14.07,14.07,0,0,0,.4-2.35c0-.6-1.1-1.17-.37-2.11a3.34,3.34,0,0,0,.81-1.46s-2.24-2-3.91-2-3.08,1.11-3.88.77A6.5,6.5,0,0,0,386.84,167.77Z"/><path class="cls-2" d="M396.05,185.78l.35.21c-1.36.95-6,4-8.85,3.46-3.38-.66-2.79-3-2.79-3a6.35,6.35,0,0,0,.71-1.19,2.21,2.21,0,0,0,.16-.35c2.59,1.33,8.42-2.25,8.83-2.94a6,6,0,0,0,.4-1.81l.69,0A12.29,12.29,0,0,0,396.05,185.78Z"/><path class="cls-8" d="M394.11,180.76l.91-2.53s0,1-.16,1.92a6,6,0,0,1-.4,1.81c-.41.69-6.24,4.27-8.83,2.94a12.5,12.5,0,0,0,.63-1.78,3.26,3.26,0,0,0,1.72,0C389.11,182.73,394.11,180.76,394.11,180.76Z"/><path class="cls-19" d="M392.51,291.64c.41.54,1.13,1.51,1.7,2.42-1,2-2.94,5.36-4.62,6.83l-3.23.95s-.1.29-.21.67c-2.91.17-5.82.05-5.82.05a4.32,4.32,0,0,1-.06-1.74c1.07-.41,3.4-1.73,3.4-1.73.81-1.12,2.5-3.83,3.3-5.21l.22.27A8.33,8.33,0,0,0,392.51,291.64Z"/><path class="cls-18" d="M391.06,208.59a20.19,20.19,0,0,1-10.63-6.82S389.23,206.16,391.06,208.59Z"/><path class="cls-22" d="M386.65,236.08l.36,2.41-.41,1.06c-1.84,1.47-6.68,10.41-7,11,1.06-4.37,5.46-12.22,5.46-12.22a14.12,14.12,0,0,1-3.95,1.94,14.1,14.1,0,0,0,3.37-3.78,8.12,8.12,0,0,1-2.42-1.58S386.48,236.08,386.65,236.08Z"/><path class="cls-2" d="M360.27,231.22a30.21,30.21,0,0,1-2.45,2.88c-.49.33-1-.29-1-.29.38-.43,1.88-4.39,3-5.64s6.37-2.89,6.37-2.89a21.14,21.14,0,0,0,4.24-7,49,49,0,0,1,4.29-8.15,3.13,3.13,0,0,0,.05-1.11c-.23-2.74-.36-7.39-.41-9.4a9.5,9.5,0,0,0,2.38.81c.09,1.16.23,2.44.46,3.81l.06.35a85.09,85.09,0,0,0,1.17,10.64L378,218c-2.86,4.18-8.69,8.94-8.69,8.94l-.15,1.36c-.39.81-3.43,3-3.43,3a10.62,10.62,0,0,1-2.84,4c-2.17,2-3.38.38-3.38.38a21.35,21.35,0,0,0,1.08-3.19,3.27,3.27,0,0,1-.88-.13Z"/><path class="cls-23" d="M435.74,198.1c-.36.89-.61,1.82-.9,2.74s-.55,1.84-.79,2.77-.49,1.86-.67,2.79a16.71,16.71,0,0,0-.23,2.83c0,1,.06,1.91.15,2.87s.21,1.91.19,2.9c0,1.92-.05,3.85-.12,5.78-.11-1.93-.18-3.85-.24-5.78s-.45-3.82-.46-5.77a17.64,17.64,0,0,1,1-5.73A36.77,36.77,0,0,1,435.74,198.1Z"/><path class="cls-23" d="M426.88,202.19a5.43,5.43,0,0,0-.49,3.81,12.36,12.36,0,0,0,1.49,3.75,12.59,12.59,0,0,1-1.73-3.69,5.74,5.74,0,0,1,.3-4.11Z"/><path class="cls-23" d="M429.78,195.13l-1.39,3.54c-.47,1.18-.93,2.36-1.51,3.52l-.43-.24c.62-1.08,1.16-2.24,1.71-3.38Z"/></g><g id="bg3"><g class="cls-24"><path class="cls-1" d="M225.15,128.46c-9.53-1.89-23.06,25.55-30.14,61.17s-5.1,66.16,4.44,68.06,23.06-25.55,30.14-61.18S234.69,130.36,225.15,128.46ZM200.62,251.78c-8.66-1.73-10.47-29.46-4-61.83s18.72-57.3,27.39-55.58,10.47,29.46,4,61.83S209.29,253.5,200.62,251.78Z"/><path class="cls-1" d="M222,144.4c-7.18-1.43-17.37,19.24-22.71,46.08s-3.83,49.84,3.35,51.27S220,222.5,225.33,195.67,229.17,145.83,222,144.4Zm-18.19,91.44c-6.31-1.25-7.63-21.46-2.94-45s13.65-41.75,20-40.49,7.63,21.46,2.94,45S210.11,237.1,203.79,235.84Z"/><path class="cls-1" d="M218.89,159.92c-4.89-1-11.83,13.11-15.46,31.39s-2.62,33.94,2.28,34.92,11.83-13.11,15.46-31.39S223.79,160.9,218.89,159.92Zm-12,60.4c-4-.8-4.86-13.67-1.87-28.7s8.69-26.59,12.71-25.79,4.86,13.67,1.87,28.69S210.9,221.12,206.88,220.32Z"/><path class="cls-1" d="M229.14,108.42c-12.5-2.48-30.21,33.47-39.5,80.15s-6.67,86.67,5.82,89.16,30.21-33.47,39.5-80.15S241.63,110.91,229.14,108.42Zm-32.5,163.4c-11.62-2.31-14-39.52-5.42-82.94S216.34,112,228,114.33s14,39.52,5.42,82.94S208.26,274.13,196.64,271.82Z"/></g><rect class="cls-25" x="54.82" y="155.78" width="109.64" height="2.94"/><ellipse class="cls-19" cx="164.22" cy="157.27" rx="3.99" ry="1.52"/><rect class="cls-26" x="73.72" y="243.67" width="109.64" height="2.94"/><ellipse class="cls-19" cx="183.12" cy="245.17" rx="3.99" ry="1.52"/><rect class="cls-27" x="76.61" y="211" width="68.17" height="1.83"/><ellipse class="cls-19" cx="144.63" cy="211.93" rx="2.48" ry="0.95"/><rect class="cls-28" x="113.76" y="173.94" width="68.17" height="1.83"/><ellipse class="cls-19" cx="181.78" cy="174.87" rx="2.48" ry="0.95"/><rect class="cls-29" x="95.85" y="189.75" width="109.64" height="2.94"/><ellipse class="cls-19" cx="205.24" cy="191.25" rx="3.99" ry="1.52"/></g></svg>
