<svg xmlns="http://www.w3.org/2000/svg" xmlns:xlink="http://www.w3.org/1999/xlink" viewBox="0 0 600 360"><defs><style>.cls-1{fill:none;}.cls-2{fill:#61a6e5;}.cls-3{fill:url(#linear-gradient);}.cls-4{fill:#beb7af;}.cls-5{fill:url(#linear-gradient-2);}.cls-6{fill:url(#linear-gradient-3);}.cls-7{fill:#cec9c4;}.cls-8{fill:url(#linear-gradient-4);}.cls-9{fill:url(#linear-gradient-5);}.cls-10{fill:url(#linear-gradient-6);}.cls-11{clip-path:url(#clip-path);}.cls-12{fill:#87dbdf;}.cls-13{fill:#019ca6;opacity:0.4;}.cls-14{fill:#f2e597;}.cls-15{fill:#9163ce;}.cls-16{fill:#fff;}.cls-17{fill:#c4c4c4;}.cls-18{clip-path:url(#clip-path-2);}.cls-19{fill:#001f5a;}.cls-20{fill:#a01897;}.cls-21{fill:#720e70;}.cls-22{fill:#c2c6c7;}.cls-23{fill:#8c9293;}.cls-24{fill:#ff8100;}.cls-25{fill:#c723b1;}.cls-26{clip-path:url(#clip-path-3);}.cls-27{fill:#026ca6;}.cls-28{fill:#015377;}.cls-29{fill:#ff8575;}.cls-30{fill:#cc5e56;}.cls-31{fill:#475cc6;}.cls-32{fill:#fae021;}.cls-33{fill:#e0b917;}.cls-34{fill:#2a4093;}</style><linearGradient id="linear-gradient" x1="218.69" y1="53.43" x2="218.69" y2="90.43" gradientUnits="userSpaceOnUse"><stop offset="0" stop-color="#8e867d"/><stop offset="1" stop-color="#beb7af"/></linearGradient><linearGradient id="linear-gradient-2" x1="205.42" y1="253.49" x2="205.42" y2="239.13" xlink:href="#linear-gradient"/><linearGradient id="linear-gradient-3" x1="160.9" y1="167.59" x2="160.9" y2="291.46" xlink:href="#linear-gradient"/><linearGradient id="linear-gradient-4" x1="359.6" y1="176.15" x2="359.6" y2="133.62" xlink:href="#linear-gradient"/><linearGradient id="linear-gradient-5" x1="340.09" y1="75.68" x2="340.09" y2="115.3" xlink:href="#linear-gradient"/><linearGradient id="linear-gradient-6" x1="319.76" y1="275.87" x2="319.76" y2="295.39" xlink:href="#linear-gradient"/><clipPath id="clip-path"><path class="cls-1" d="M231.86,231.29,266,247.14a101.44,101.44,0,0,1-40.45,44.74,97.54,97.54,0,0,1-41.49,13.4c-28.62-2.39-50.7-19.16-59.32-45.18-8.85-26.73-2.6-46.22,4.21-57.87,16.15-27.6,48.87-35.8,55.3-37.17l31.21-7.71V114.94h38.47v80.95l-72.94,18s-24.41,3.76-24.41,21.84a25.76,25.76,0,0,0,1.62,8.62c3.66,10.29,13.59,11,16.93,11.14a35.68,35.68,0,0,0,3.87,0h10.13C203.17,256.33,221.51,248.24,231.86,231.29ZM235.51,98.9a26.63,26.63,0,0,0,0-51.4,26.63,26.63,0,0,0,0,51.4ZM336.34,277.09a26.65,26.65,0,0,0-20.15,25.84,25.64,25.64,0,0,0,.13,2.64h40a25.64,25.64,0,0,0,.13-2.64A26.66,26.66,0,0,0,336.34,277.09ZM447.62,116c-8.67-26.16-30.94-43-59.79-45.22a97.6,97.6,0,0,0-42,13.44A101.44,101.44,0,0,0,305.36,129l34.92,16.22c10-16.68,27.67-24.9,41.63-24.65H393.8c.5,0,1,0,1.46,0l1,0c3.34.19,13.27.85,16.93,11.14a25.76,25.76,0,0,1,1.62,8.62c0,18.08-24.41,21.84-24.41,21.84l-72.94,18v80.95H356.9V218.78l31.21-7.71c6.43-1.37,39.15-9.57,55.3-37.17C450.22,162.25,456.47,142.76,447.62,116Z"/></clipPath><clipPath id="clip-path-2"><path class="cls-1" d="M248.16,278.34l-2.49-2.1A101.9,101.9,0,0,0,266,247.14l-34.13-15.85a51.58,51.58,0,0,1-13.28,14.5l-1.18-5s-14.89-18.76-23.92-30l60.44-14.94V114.94H215.45v24.83l-5.68-8.22-18.94-13.78-29.42,9.31L154.06,162l8.1,10.83c-11.48,5.6-24.67,14.78-33.22,29.39-6.81,11.65-13.06,31.14-4.21,57.87,7.32,22.09,24.34,37.51,46.83,43.13l-2.68,5.25,24.29,27,58.14-7.65,18-26.92Z"/></clipPath><clipPath id="clip-path-3"><path class="cls-1" d="M356.48,302.93a25.64,25.64,0,0,1-.13,2.64h-40a25.64,25.64,0,0,1-.13-2.64,26.65,26.65,0,0,1,20.15-25.84A26.66,26.66,0,0,1,356.48,302.93ZM447.62,116c-8.67-26.16-30.94-43-59.79-45.22a97.6,97.6,0,0,0-42,13.44A101.44,101.44,0,0,0,305.36,129l-9.68,21.41L300,166l-26-1.17-18.83,150.9L356.9,293.39V218.78l31.21-7.71c6.43-1.37,39.15-9.57,55.3-37.17C450.22,162.25,456.47,142.76,447.62,116Z"/></clipPath></defs><title>Ilustracion_Ayuda_Preguntas</title><g id="bg1"><path class="cls-2" d="M231.86,231.29,266,247.14a101.44,101.44,0,0,1-40.45,44.74,97.54,97.54,0,0,1-41.49,13.4c-28.62-2.39-50.7-19.16-59.32-45.18-8.85-26.73-2.6-46.22,4.21-57.87,16.15-27.6,48.87-35.8,55.3-37.17l31.21-7.71V114.94h38.47v80.95l-72.94,18s-24.41,3.76-24.41,21.84a25.76,25.76,0,0,0,1.62,8.62c3.66,10.29,13.59,11,16.93,11.14a35.68,35.68,0,0,0,3.87,0h10.13C203.17,256.33,221.51,248.24,231.86,231.29Z"/><path class="cls-2" d="M235.51,47.5a26.63,26.63,0,0,1,0,51.4,26.63,26.63,0,0,1,0-51.4Z"/><path class="cls-2" d="M356.48,302.93a25.64,25.64,0,0,1-.13,2.64h-40a25.64,25.64,0,0,1-.13-2.64,26.65,26.65,0,0,1,20.15-25.84A26.66,26.66,0,0,1,356.48,302.93Z"/><path class="cls-2" d="M395.26,120.56c-.48,0-1,0-1.46,0H381.91c-14-.25-31.64,8-41.63,24.65L305.36,129a101.44,101.44,0,0,1,40.45-44.74,97.6,97.6,0,0,1,42-13.44C416.68,73.06,439,89.87,447.62,116c8.85,26.73,2.6,46.22-4.21,57.87-16.15,27.6-48.87,35.8-55.3,37.17l-31.21,7.71v42.41H317.43V180.24l72.94-18s24.41-3.76,24.41-21.84a25.76,25.76,0,0,0-1.62-8.62c-3.66-10.29-13.59-11-16.93-11.14Z"/><path class="cls-3" d="M228.51,46.56a26.11,26.11,0,0,1,7,.94,26.63,26.63,0,0,0,0,51.4,26.11,26.11,0,0,1-7,.94,26.64,26.64,0,1,1,0-53.28Z"/><rect class="cls-4" x="201.45" y="114.94" width="14" height="42.41"/><path class="cls-5" d="M220.64,226.08a51.36,51.36,0,0,1-36.35,28.8,38.08,38.08,0,0,1-5.3.64h10.13c14,.81,32.39-7.28,42.74-24.23Z"/><path class="cls-6" d="M215.45,157.35l-31.21,7.71c-6.43,1.37-39.15,9.57-55.3,37.17-6.81,11.65-13.06,31.14-4.21,57.87,8.62,26,30.7,42.79,59.32,45.18-2.35.19-4.7.29-7,.29-1.6,0-3.19,0-4.78-.13-29.68-1.71-52.67-18.66-61.51-45.34s-2.6-46.22,4.21-57.87c16.15-27.6,48.87-35.8,55.3-37.17l31.21-7.71Z"/><path class="cls-7" d="M305.36,129l34.92,16.22a49.39,49.39,0,0,0-2.57,4.84L292.36,129Z"/><rect class="cls-4" x="304.43" y="180.24" width="13" height="80.95"/><path class="cls-8" d="M413.16,131.75c-3.66-10.29-13.59-11-16.93-11.14l-1,0h-13l1,0a27.26,27.26,0,0,1,4.41.54c4.3.9,9.95,3.38,12.52,10.6a25.76,25.76,0,0,1,1.62,8.62c0,18.08-24.41,21.84-24.41,21.84l-72.94,18h13l72.94-18s24.41-3.76,24.41-21.84A25.76,25.76,0,0,0,413.16,131.75Z"/><path class="cls-9" d="M386.11,70.69c.58,0,1.15.07,1.72.12a97.6,97.6,0,0,0-42,13.44A101.44,101.44,0,0,0,305.36,129h-13a101.44,101.44,0,0,1,40.45-44.74,96.36,96.36,0,0,1,48.52-13.69C382.93,70.56,384.52,70.6,386.11,70.69Z"/><path class="cls-10" d="M329.84,276.29a26.79,26.79,0,0,1,6.5.8,26.65,26.65,0,0,0-20.15,25.84,25.64,25.64,0,0,0,.13,2.64h-13a25.64,25.64,0,0,1-.13-2.64A26.65,26.65,0,0,1,329.84,276.29Z"/></g><g id="bg2"><g class="cls-11"><rect class="cls-12" x="102.69" y="31.71" width="387.52" height="306.05"/><path class="cls-13" d="M297.47,254.59l43.07-49.07a10.58,10.58,0,0,1,15.9,0l7.27,8.28,56.5-64.37a10.58,10.58,0,0,1,15.9,0l69.52,79.21-84.89,57.65-20.21,14-18.85,5.45-51.52,14L276.62,309l-1.68-15.13,4.37-23.23Z"/><path class="cls-13" d="M151.86,352.9l31.57-8.57,18.86-5.45,20.2-14.05,44.61-30.29.52-72.67L237.87,188A10.59,10.59,0,0,0,222,188l-55.19,62.89L126.6,205.09a10.59,10.59,0,0,0-15.91,0L82.53,237.18,132.8,340.61Z"/><path class="cls-14" d="M358.24,104.1H464.43s-14.28-27.29-46.1-7.91c0,0,.82-26.12-29.74-7C388.59,89.24,377.85,80,358.24,104.1Z"/><path class="cls-14" d="M263.16,167.37c-1.44-.37-30.76,0-30.76,0s5.6-22,26.8-20.89Z"/><path class="cls-15" d="M74.19,290.93s316-6.52,450.47,4.35l1.07,57.62-459.91-8L73.64,288Z"/></g></g><g id="pers1"><path class="cls-16" d="M368,169.91s6.46,4.68,10,7.8l2,1.78a39.8,39.8,0,0,0,5.9,13.78A97.61,97.61,0,0,1,393,204.89S389.7,208,389.7,210s.11,5.24.11,5.24l8.13,2.23,1.23-2.45v-4.68l-2.45-6.69s-1-2.89-2.79-9.35-4.57-18.16-6.91-20.5-13.36-11.36-13.36-11.36S367.08,163.2,368,169.91Z"/><path class="cls-16" d="M305.2,205h0l.63-.55c.81-.72,1.29-1.21,1-1.11-.76.3-3.38,1.93-5.63,1.8s-.79-.95-.79-.95c1.39-.53,7.71-4.78,10.09-4.43a67.54,67.54,0,0,0,7.89.16s3,.55,10-5.27c6.68-5.57,10.27-6.81,10.27-6.81l-1-1.74c-2.09-5.12-4.27-11.34-5-13.46a16.48,16.48,0,0,1,6.29-3.24c.54.51.94.92,1.14,1.14a5.94,5.94,0,0,0,2.26,1.73c1,3.73,3.22,12.49,4,14.91,1,3.11,0,4.52,0,4.52-11.08,10.93-25.83,11.39-25.83,11.39l-1.24,1.64c-3.2,2.88-8.49,2-10.72,3.36s-5.71,3-7.41,2.21-.49-1.9-.49-1.9A32.59,32.59,0,0,0,305.2,205Z"/><ellipse class="cls-17" cx="220.38" cy="313.7" rx="21.3" ry="2.02"/><path class="cls-17" d="M228.16,117.77a14.87,14.87,0,0,0-2.08-2.72,11.06,11.06,0,0,0,2.42-1.72c2.11-3.19-.06-2.13-.06-2.13-1.16,1-4.43,2-4.43,2a33.26,33.26,0,0,1-.9,3.93Z"/><path class="cls-16" d="M222.34,118.31a46.33,46.33,0,0,0,.46-5.15s3.11-1.36,4.1-2.57c0,0,2-1.36.37,2.1a11.05,11.05,0,0,1-2.15,2s3.14.58,3.48,3.3S222.65,121.3,222.34,118.31Z"/><g class="cls-18"><path class="cls-19" d="M240.47,298.57a2.54,2.54,0,0,1,1.21,2,42.27,42.27,0,0,1-11.5,6.89c-6.23,2.28-6.75,4.89-12.78,6.35a47.14,47.14,0,0,1-1.58-6,13.22,13.22,0,0,0-.33-1.37c2.06-1.28,7.57-4.85,8.78-7.15a3,3,0,0,0,.16-.3A18.41,18.41,0,0,0,240.47,298.57Z"/><path class="cls-16" d="M234.41,115.42l-1,5.4s-.84,2.21-2.2,2.47l.22,4.12a9.44,9.44,0,0,1-4.38-.13,24.55,24.55,0,0,0-.3-4.41c-.32-.73-3.73-2.62-3.89-3.57s1.74-3.88,1.74-3.88Z"/><path class="cls-20" d="M231.38,127.41a6.72,6.72,0,0,0,1-.33s.11,12.8-.77,23l-2.46.77s-3.79,1.13-6.42,2.05h-1a1.6,1.6,0,0,1,.65-2.05,31,31,0,0,1,2.45-9.77c2.35-5.86,1.47-14,1.47-14s.24.09.65.2A9.44,9.44,0,0,0,231.38,127.41ZM228.48,145a45.64,45.64,0,0,1-5.36,5.84A8.61,8.61,0,0,0,228.48,145Z"/><path class="cls-20" d="M210.3,160.91c-.82.76-7.72,7.29-11.74,13.18a30.26,30.26,0,0,0,.1-6.21l-.4-4.43.5.11c2.69.58,3.55-.17,4.62-6.13,1.7-.05,5.08,0,7.05,1.41a45.6,45.6,0,0,1,9.6-4.39l-.41-1,2.16-.51h1s4.71.42,6.42-2.05l2.46-.77c-.1,1.17-.21,2.3-.34,3.37a10.64,10.64,0,0,1-3.28,5.36,198.72,198.72,0,0,1-20.35,13.61,58.83,58.83,0,0,0-6.08,3.85,33.13,33.13,0,0,1,5.39-7.91,59.19,59.19,0,0,0-6.36,6.5C203.07,168.66,209.5,161.75,210.3,160.91Z"/><path class="cls-21" d="M222.75,152.93c2.63-.92,6.42-2.05,6.42-2.05C227.46,153.35,222.75,152.93,222.75,152.93Z"/><path class="cls-21" d="M223.12,150.88a45.64,45.64,0,0,0,5.36-5.84A8.61,8.61,0,0,1,223.12,150.88Z"/><path class="cls-22" d="M224.43,299a3,3,0,0,1-.16.3c-1.21,2.3-6.72,5.87-8.78,7.15l-.78.47s-1.2-1.35-2.38-2.62a1.81,1.81,0,0,1,0-2.53s-.15-.19-.5-.7l1.63-.14a1.68,1.68,0,0,1,.12-.27,63.55,63.55,0,0,1,6.16-4.44,7.35,7.35,0,0,0-3.87,1.65l-1.06-1.38s1.3-2,6.07-2.49l1-.59.81,1.4C225.47,296.06,224.8,298.2,224.43,299Z"/><path class="cls-22" d="M213.57,300.65a1.68,1.68,0,0,0-.12.27l-1.63.14c-.72-1-2.41-3.47-6.38-9.32-7.39-10.91-9.19-27.2-9.19-27.2-1.19-1.12.53-1.86.53-1.86L195,260.81c-1.62-1,0-2.91,0-2.91.23-.83-1.27-2.32-1.27-2.32-15.74-8.3-30.81-20-32.3-21.12l0,0-.1-.08h0c-.47-.24-2-.81-5.84-.54-.15,0-10.49,2.61-13.28,5,.42-.13,7.21-2.21,10.79-3,1.23-.27,1.3.86.84,2.49l-10,13.78c-3,4.11-12.78,20.92-14.94,23.61s-10.09-3.81-10.09-3.81.67-2.39,5.45-16.07,15.17-32.5,15.17-32.5c.3-1.72,1.35-7.54,2.54-8.66a77.51,77.51,0,0,0,5.06-7.14c2.26,2.6,8.65,8.76,18,8.29,6.32-.32,8.79-.52,9.73-.65.46.78-.29,1.66-.29,1.66,2.62.3.45,2.62.45,2.62,8.07,6.57,28.09,31.45,31.31,34.74s3.51,5.08,3.51,5.08c1,5.23,8.51,29.44,8.51,29.44l1.72,1.19,2,3.53-1,.59s-5.25-4.44-8-4.82,1.89,7.31,1.89,7.31l1.06,1.38A8.92,8.92,0,0,0,213.57,300.65Zm3.83-12.19s-8.5-7.74-11.43-27.79c0,0-1.13,12.19.27,18.86C206.24,279.53,209.28,283.81,217.4,288.46Zm-65.53-58.85s14-6.31,16.65-5.76a19.18,19.18,0,0,0-13.36-1.37s7.54,0,9.34,1C164.5,223.47,154.11,226.24,151.87,229.61Z"/><path class="cls-23" d="M212.91,289.17c2.71.38,8,4.82,8,4.82-4.77.54-6.07,2.49-6.07,2.49S210.2,288.79,212.91,289.17Z"/><path class="cls-23" d="M219.73,296.21a63.55,63.55,0,0,0-6.16,4.44,8.92,8.92,0,0,1,2.29-2.79A7.35,7.35,0,0,1,219.73,296.21Z"/><path class="cls-23" d="M206,260.67c2.93,20.05,11.43,27.79,11.43,27.79-8.12-4.65-11.16-8.93-11.16-8.93C204.84,272.86,206,260.67,206,260.67Z"/><path class="cls-16" d="M208.68,184.48s1.7-.68.85,1.3-2.67,5.82-4.12,7a12,12,0,0,0-.61,1.78c-.2.85,1.35,6.18-2.31,8a20.86,20.86,0,0,1-2.32,1,10.27,10.27,0,0,1-.6-4.64l1.22-.19s.08-6.4.69-8.22S207.67,185.54,208.68,184.48Z"/><path class="cls-21" d="M200.61,174.89a59.19,59.19,0,0,1,6.36-6.5,33.13,33.13,0,0,0-5.39,7.91c-1.74,1.22-3.25,2.38-4.24,3.16a26.49,26.49,0,0,0,1.22-5.37c4-5.89,10.92-12.42,11.74-13.18C209.5,161.75,203.07,168.66,200.61,174.89Z"/><path class="cls-16" d="M185,155.23a4.22,4.22,0,0,1-1.17-1.09A6.82,6.82,0,0,1,182.6,150a2.5,2.5,0,0,1,1.23-2.31c1.85-.87,3.62,2.94,3.62,2.94l1.79.23s-1.21-4.43-1.05-5.1,2.07-1.33,2.07-1.33a13.57,13.57,0,0,0-.9-3.1s-.15-.35,1.81-2.39,7.37,1.06,8.78.86a2.78,2.78,0,0,0,2-1.24h0l.37.59v0c1.12,1.94,2.89,6.37,1.8,13.63-.27,1.8-.51,3.33-.75,4.61-1.07,6-1.93,6.71-4.62,6.13l-.5-.11-.58-.14-1.17-.33c-3.73-1.14-9-3.51-9.06-7.09a3.24,3.24,0,0,1-.68,0,4.41,4.41,0,0,1-1.77-.63Z"/><path class="cls-24" d="M202,138.58h0a2.78,2.78,0,0,1-2,1.24c-1.41.2-6.82-2.9-8.78-.86s-1.81,2.39-1.81,2.39a13.57,13.57,0,0,1,.9,3.1s-1.92.67-2.07,1.33,1.05,5.1,1.05,5.1l-1.79-.23s-1.77-3.81-3.62-2.94A2.5,2.5,0,0,0,182.6,150h0s-3.82-12,4.86-14.35c8.48-2.32,14.33-.07,14.88,3.5Z"/><path class="cls-20" d="M199.57,198.92a10.27,10.27,0,0,0,.6,4.64c.08.2.16.4.26.6,0,0-12.85,4.87-21.26,2.48.33-.43.69-.88,1.08-1.33a57,57,0,0,0,6-8.88c.38.18.8.49.59.94,0,0,2.58.72,4,1s8.82,0,8.82,0S199.61,198.55,199.57,198.92Z"/><path class="cls-25" d="M197.34,179.46a23.13,23.13,0,0,1-8.28,11.5s-1.13,2.41-2.85,5.47a2.69,2.69,0,0,0-.55-.2c-.84-3.42-.72-13.33-.72-13.33,1-10.21-4.23-14.58-4.23-14.58-1.48-1.76-6,.22-6,.22a11.46,11.46,0,0,0-3.87,3.31L168.2,171c3.18-5,8.72-8.9,12.27-11.06a1.5,1.5,0,0,0,.06,2.35c1.27,1.27,9,11,12.15,12.57,0,0,3.79-6.95,5-11.54l.58.14.4,4.43a30.26,30.26,0,0,1-.1,6.21A26.49,26.49,0,0,1,197.34,179.46Z"/><path class="cls-20" d="M196.51,163l1.17.33c-1.21,4.59-5,11.54-5,11.54-3.12-1.6-10.88-11.3-12.15-12.57a1.5,1.5,0,0,1-.06-2.35l.06,0c2-1.2,3.3-1.85,3.3-1.85h0A13.08,13.08,0,0,1,182,161.1s6.51,9,10.25,11.35c0,0,1.41-2.37,2.64-5.06A23.67,23.67,0,0,0,196.51,163Z"/><path class="cls-17" d="M196.51,163a23.67,23.67,0,0,1-1.62,4.41c-7.85-3-8.11-11.18-8.12-11.52a3.24,3.24,0,0,0,.68,0C187.51,159.47,192.78,161.84,196.51,163Z"/><path class="cls-16" d="M194.89,167.39c-1.23,2.69-2.64,5.06-2.64,5.06C188.51,170.05,182,161.1,182,161.1a13.08,13.08,0,0,0,1.84-3.06c.49-1.06.9-2.11,1.16-2.8a4.41,4.41,0,0,0,1.77.63C186.78,156.21,187,164.43,194.89,167.39Z"/><path class="cls-20" d="M178.4,189.63c2.58,6.72,6.26,6.3,6.26,6.3C181.85,194.33,178.6,189.91,178.4,189.63Zm7.26,6.6a2.69,2.69,0,0,1,.55.2,57,57,0,0,1-6,8.88c-.39.45-.75.9-1.08,1.33a12.84,12.84,0,0,1-1.44-.5s-.9-.24-2-5.35-4.2-14.53-5.28-16.09c-.87-1.25-3.17-7.84.45-12.85a11.46,11.46,0,0,1,3.87-3.31s4.5-2,6-.22c0,0,5.19,4.37,4.23,14.58C184.94,182.9,184.82,192.81,185.66,196.23Zm-6.91,2.16a31.11,31.11,0,0,1,5.91-1.14S180.86,196.05,178.75,198.39Z"/><path class="cls-21" d="M184.66,195.93s-3.68.42-6.26-6.3C178.6,189.91,181.85,194.33,184.66,195.93Z"/><path class="cls-21" d="M184.66,197.25a31.11,31.11,0,0,0-5.91,1.14C180.86,196.05,184.66,197.25,184.66,197.25Z"/><path class="cls-25" d="M174.65,215.14c-.94.13-3.41.33-9.73.65-9.35.47-15.74-5.69-18-8.29-.61-.69-.92-1.13-.92-1.13a101.55,101.55,0,0,1,7.11-7.33c3.42-3.1,9.78-16.48,13.75-25.57A18.05,18.05,0,0,1,168.2,171l2.66.86c-3.62,5-1.32,11.6-.45,12.85,1.08,1.56,4.14,11,5.28,16.09s2,5.35,2,5.35a12.84,12.84,0,0,0,1.44.5c-3.58,4.7-4,8.36-4,8.36S175.47,215,174.65,215.14Z"/><path class="cls-23" d="M168.52,223.85c-2.6-.55-16.65,5.76-16.65,5.76,2.24-3.37,12.63-6.14,12.63-6.14-1.8-1-9.34-1-9.34-1A19.18,19.18,0,0,1,168.52,223.85Z"/><path class="cls-23" d="M161.24,234.36l-4.59-.07-2.9,4c.46-1.63.39-2.76-.84-2.49-3.58.78-10.37,2.86-10.79,3,2.79-2.36,13.13-5,13.28-5C159.2,233.55,160.77,234.12,161.24,234.36Z"/></g><g class="cls-26"><path class="cls-27" d="M288.55,284.84l-.3-.21s3-3,11-13.58c6.47-8.59,13.8-17.37,16.29-20.33,0,1.73.35,3.63,2.27,3.32,3.42-.56,7.39-5.86,7.39-5.86-4.67-.28-6.45-3.3-6.45-3.3l.14-.27a73.33,73.33,0,0,1,6.5-9.24c17.63-25.86,27.16-32.94,27.16-32.94s18.91-11.25,22.94-6.19a42,42,0,0,1,6.1,11v9.1l-22.68,9.1s-27.16,24.12-30.77,27.16-4.34,4.91-4.34,4.91c-4.76,11.12-11.84,15.17-16.75,18.2s-14.88,13.15-14.88,13.15-.14-.3-.22-.45A12.09,12.09,0,0,0,288.55,284.84Z"/><path class="cls-28" d="M325.18,248.18s-4,5.3-7.39,5.86c-1.92.31-2.3-1.59-2.27-3.32l.9-1.05s.54-1.38,2.31-4.79C318.73,244.88,320.51,247.9,325.18,248.18Z"/><path class="cls-29" d="M291.93,288.37l-.28.74c-1.54,4.23-2.65,7.5-3.8,7.05l-.22-.1c3.89-.27-6.82-8.11-10.49-12.58-3.54-4.3-5-3.59-5.1-3.53a1.6,1.6,0,0,1,.58-1.59c1.26-.6,1.35-.83,6.42,3.49a11.62,11.62,0,0,0,9.51,3A12.09,12.09,0,0,1,291.93,288.37Z"/><path class="cls-30" d="M277.14,283.48c3.67,4.47,14.38,12.31,10.49,12.58a7.15,7.15,0,0,1-2.31-1.74s-.24-.42-7.77-7c-4.25-3.74-5.38-6-5.51-7.34C272.14,279.89,273.6,279.18,277.14,283.48Z"/><path class="cls-31" d="M364.56,136.46c-2.52,4.78-1.58,13.64,4,8.42,0,0-2.93,5.12-7.62,5.63a9.61,9.61,0,0,0-3-.68c-.31,0-.7,0-1.12-.08-2.33-1.12-4.91-3.51-7.66-7.92a3,3,0,0,0,1.12-2c.64.05,1.29-.41,1.75-2,2.2-7.82-2.54-11.48-2.54-11.48a5.66,5.66,0,0,0-1.1-1.13c.88-1.65,6.65-11.72,14.74-8.08C372,121.05,367.07,131.68,364.56,136.46Z"/><path class="cls-32" d="M361,150.51a7.43,7.43,0,0,1-4.1-.76c.42,0,.81.07,1.12.08A9.61,9.61,0,0,1,361,150.51Z"/><path class="cls-33" d="M340.16,183.33c.41-.2,8-3.81,19.47-2.94C359.63,180.39,344,182.42,340.16,183.33Z"/><path class="cls-34" d="M349.53,126.3s4.74,3.66,2.54,11.48c-.46,1.63-1.11,2.09-1.75,2a7.71,7.71,0,0,0-.09-2.88C351.72,131.16,350.78,128,349.53,126.3Z"/><path class="cls-16" d="M340.4,154.59c0-.23,0-.46,0-.7,1.44-.48,4.75-1.73,6.57-3.72,2-2.2,1.18-6.59.88-7.9a2.3,2.3,0,0,0,.45-.05,24.79,24.79,0,0,0,3.06,6.84,9.71,9.71,0,0,0,.67.88s-3.43,7.54-7.37,8.16-4.56-1.69-4.56-1.69A9.45,9.45,0,0,0,340.4,154.59Z"/><path class="cls-33" d="M355.91,184.86l-12.59-.76A26.34,26.34,0,0,1,355.91,184.86Z"/><path class="cls-31" d="M348.43,125.17a5.66,5.66,0,0,1,1.1,1.13c1.25,1.7,2.19,4.86.7,10.64,0-.08,0-.16-.05-.24-.57-2.66-4-1.67-4,.46l-.38.48c-.94-.3-.47-3.15-.47-3.15.54-6-3.82-6.68-7.55-5.17s-5.13,0-5.13,0a3.82,3.82,0,0,0-.56.73c.21-.46,4.37-9.14,14.87-5.65A4.37,4.37,0,0,1,348.43,125.17Z"/><path class="cls-16" d="M340.46,151.78c-2.34,1.38-4.8,2.17-5.89.59a32.05,32.05,0,0,1-3.24-7.09c-2.14-9.12-.28-13.58.74-15.21v0a3.82,3.82,0,0,1,.56-.73s1.4,1.5,5.13,0,8.09-.78,7.55,5.17c0,0-.47,2.85.47,3.15l.38-.48c0-2.13,3.44-3.12,4-.46,0,.08,0,.16.05.24a7.71,7.71,0,0,1,.09,2.88,3,3,0,0,1-1.12,2,2.18,2.18,0,0,1-.86.39,2.3,2.3,0,0,1-.45.05,3,3,0,0,1-.59,0c.32,2.66-.14,4.13-2.62,6.4A27,27,0,0,1,340.46,151.78Z"/><path class="cls-17" d="M347.89,142.27c.3,1.31,1.11,5.7-.88,7.9-1.82,2-5.13,3.24-6.57,3.72,0-.72,0-1.46,0-2.11a27,27,0,0,0,4.22-3.13c2.48-2.27,2.94-3.74,2.62-6.4A3,3,0,0,0,347.89,142.27Z"/></g><path class="cls-32" d="M340.16,183.33c3.84-.91,19.47-2.94,19.47-2.94C348.12,179.52,340.57,183.13,340.16,183.33Zm-7.9-11.46c-3.49-8-.46-10.73-.46-10.73l2.85-2.5a36.48,36.48,0,0,0,5.75-4,9.45,9.45,0,0,1-.26,1.82s.62,2.31,4.56,1.69,7.37-8.16,7.37-8.16a9.71,9.71,0,0,1-.67-.88s3.27.48,5.46.69a7.43,7.43,0,0,0,4.1.76,11.9,11.9,0,0,1,6.51,5.65s6.95,5.92,8.33,7a3.77,3.77,0,0,0-.88.29c-1.35.57-3.94,2.27-5.35,7-.11.37-.27,1.77-.36,2.18,0,0-2.76-2.22-4.85-3.85.69,3.68,2,13.8,2.91,16.86,1,3.38,8.53,9.57,8.53,9.57s.27,3.3-9.43,6.95-15.62,1.17-15.62,1.17.55-1.1-1-7.23-8.26-9.35-8.26-9.35c-5.89-2-7.8-4.51-8.31-6.51a6,6,0,0,1,0-2.85c.06-.29.14-.86.22-1.6Zm11.06,12.23,12.59.76A26.34,26.34,0,0,0,343.32,184.1Z"/></g></svg>
