<svg xmlns="http://www.w3.org/2000/svg" xmlns:xlink="http://www.w3.org/1999/xlink" viewBox="0 0 600 360"><defs><style>.cls-1,.cls-15,.cls-40,.cls-41,.cls-5{fill:none;}.cls-2{isolation:isolate;}.cls-3{fill:#87dbdf;}.cls-12,.cls-13,.cls-14,.cls-4{mix-blend-mode:hard-light;}.cls-40,.cls-5{stroke:#fff;}.cls-15,.cls-40,.cls-41,.cls-5{stroke-miterlimit:10;}.cls-11,.cls-5{opacity:0.6;}.cls-13,.cls-14,.cls-6{opacity:0.7;}.cls-13,.cls-7{fill:#dfe8ef;}.cls-8{fill:#cdd5e8;}.cls-12,.cls-9{fill:#b6c1d8;}.cls-10{fill:#fff;}.cls-15,.cls-41{stroke:#475cc6;}.cls-15{opacity:0.1;}.cls-16{fill:#898989;}.cls-17{fill:#6b6b6b;}.cls-18{fill:#a5a5a5;}.cls-19{fill:#3f3f3f;}.cls-20{fill:#232323;}.cls-21{fill:#bfbfbf;}.cls-22{fill:#0a0a0a;}.cls-23{fill:#3a3a3a;}.cls-24{fill:#001f5a;}.cls-25{fill:#ff565d;}.cls-26{fill:#ffb3cc;}.cls-27{fill:#ff8474;}.cls-28{fill:#c63b30;}.cls-29{fill:#c723b1;}.cls-30{fill:#4478cc;}.cls-31{fill:#cfd2d3;}.cls-32{fill:#474445;}.cls-33{fill:#ffb81c;}.cls-34{fill:#d8780f;}.cls-35{fill:#fae022;}.cls-36{fill:#8e8e8e;}.cls-37{fill:#221f20;}.cls-38{clip-path:url(#clip-path);}.cls-39{opacity:0.2;}.cls-40{stroke-width:0.25px;}.cls-41,.cls-42{opacity:0.3;}.cls-42{fill:#1563aa;}.cls-43{fill:#c623b0;}.cls-44{fill:#00205b;}.cls-45{fill:#ffb3ab;}.cls-46{fill:#77106d;}.cls-47{fill:#d6d2ca;}</style><clipPath id="clip-path"><path class="cls-1" d="M470,220.93A21.59,21.59,0,0,1,465,234.74l-.2.18-6.69,5.59h0A21.47,21.47,0,0,0,464.66,225c0-11.76-9.28-21.28-20.72-21.28a20.19,20.19,0,0,0-10.48,2.92l1-.76,4.08-3.13a10.11,10.11,0,0,1,.9-.53l.09-.05a20.27,20.27,0,0,1,9.73-2.48C460.68,199.65,470,209.18,470,220.93Z"/></clipPath></defs><title>Ilustracion_Ayuda_Consejos_Viaje</title><g class="cls-2"><g id="bg1"><path class="cls-3" d="M326.36,104.11S182.79-.53,109.34,65.28c-83.15,74.5,16.23,106.43-20.08,160.22C27.42,317.1,225.46,327,363.93,319.22c197.55-11.17,255.56-191,144.42-223.57C407.71,66.15,402.69,160.42,326.36,104.11Z"/></g><g id="pers1"><g class="cls-4"><circle class="cls-5" cx="76.39" cy="222.04" r="37.1"/><g class="cls-6"><circle class="cls-7" cx="76.39" cy="222.04" r="37.1"/><path class="cls-8" d="M101.07,194.34A37.12,37.12,0,0,1,95,254.16c15.25-13.77,14.09-28,4.74-39.18s-12.79-18.7-9.78-22.72,10.76,1.8,11.13,2.07Z"/><path class="cls-8" d="M89.26,248.93c0,3.37-5,7-11.11,7s-11.1-3-11.1-6.35,4.62-6.23,10.69-6.23S89.26,245.57,89.26,248.93Z"/><path class="cls-9" d="M85.4,190c.81,4.18-10.19,4.67-17.4,3.55-4.6-.71-8.62-1-12.35,0A42.83,42.83,0,0,1,68,185.9h0a37.46,37.46,0,0,1,8.39-.95S84.59,185.86,85.4,190Z"/><path class="cls-8" d="M56.51,237.13c7.42,8.28,2.23,11.73,2.23,11.73s-6.42,3.95-13.26-6.31a37.09,37.09,0,0,1,1.28-42.84l.05-.05a18,18,0,0,1,8.84-6c-6.06,5.5-11.47,14.1-8.39,26.33A41.17,41.17,0,0,0,56.51,237.13Z"/><path class="cls-8" d="M68,185.9a42.83,42.83,0,0,0-12.34,7.74,18,18,0,0,0-8.84,6A37.07,37.07,0,0,1,68,185.9Z"/></g></g><g class="cls-4"><g class="cls-6"><circle class="cls-7" cx="105.05" cy="102.48" r="29.69"/><path class="cls-8" d="M127.31,122.13c3.24-6,3.92-12.3-.45-16.75s-7.25-6.9-5.76-16.59-7.35-14.71-7.35-14.71a29.69,29.69,0,0,1,13.56,48.05Z"/><path class="cls-8" d="M96.21,79c6,5-3,17.64-5.07,23.83-1.27,3.8-4.06,12.12-1.87,19a20.54,20.54,0,0,1-8.39-2.17h0a29.73,29.73,0,0,1,0-34.47h0S90.19,74,96.21,79Z"/><path class="cls-8" d="M89.27,121.89c1.38,4.4,4.78,8.25,11.83,10a29.67,29.67,0,0,1-20.22-12.19A20.54,20.54,0,0,0,89.27,121.89Z"/></g><circle class="cls-5" cx="105.05" cy="102.48" r="29.69"/></g><circle class="cls-5" cx="453.41" cy="213.26" r="67.67"/><g class="cls-4"><g class="cls-6"><circle class="cls-7" cx="453.41" cy="213.26" r="67.67"/><path class="cls-9" d="M485.47,153.65A80.87,80.87,0,0,1,499,168.58c-20-8.94-48.54-1.47-54.41-15.81-2.75-6.68,7.37-7.16,9.86-7.18H455a67.29,67.29,0,0,1,30.45,8Z"/><path class="cls-8" d="M409,250.35c10,5.38,26.31,15.51,21.09,21-3.64,3.82-17.33-4.16-18.1-4.61l0,0a66.78,66.78,0,0,1-8.13-7.46,36.49,36.49,0,0,1-5.85-16.2A65.94,65.94,0,0,0,409,250.35Z"/><path class="cls-8" d="M397.92,243a36.49,36.49,0,0,0,5.85,16.2,67.48,67.48,0,0,1-15.57-27.89C388.47,232,390.64,237,397.92,243Z"/><path class="cls-9" d="M431.35,162.3c10.23,11.3-4.23,31.42-10.41,37.42-7,6.76-25,22.91-23,43.31-7.5-6.2-9.57-11.32-9.73-11.74a.08.08,0,0,1,0,0,67.82,67.82,0,0,1,13.89-62.07l0,0C403,168.34,421.36,151.28,431.35,162.3Z"/></g><path class="cls-8" d="M511.11,177.91A67.68,67.68,0,0,1,472,278.33l-.17.05-1.13.3c-11.7,2.88-26.09-.11-32-7.5-6.18-7.76,11.81-10.23,21.17-10.75s21.71-5,16.23-19.59,6.88-23.3,16.77-26.12S506.7,198.3,506.7,198.3c2.69-10.87-2-21.53-7.7-29.72A30.85,30.85,0,0,1,511.11,177.91Z"/><path class="cls-8" d="M485.47,153.65a67.89,67.89,0,0,1,25.64,24.26A30.85,30.85,0,0,0,499,168.58,80.87,80.87,0,0,0,485.47,153.65Z"/></g><ellipse class="cls-10" cx="405.71" cy="182.77" rx="5.46" ry="2.94" transform="matrix(0.5, -0.87, 0.87, 0.5, 44.57, 442.74)"/><g class="cls-4"><circle class="cls-5" cx="288.49" cy="66.16" r="29.09"/><g class="cls-11"><circle class="cls-7" cx="288.49" cy="66.16" r="29.09"/><path class="cls-8" d="M301.82,40.29a29.09,29.09,0,0,1,15.76,25.87c-.11-12.76-12-10-17-9.8-9.17.37-25.62-5.73-18.61-15.24,3-4.11,13.08-3.62,18.28-1.56l.17.07,1.27.62Z"/><path class="cls-8" d="M317.31,70.12a29.09,29.09,0,0,1-54.26,10.15c.58.87,6.89,9.85,14.43,3.6,7.93-6.58,14-9.89,24.93-4.41C312.89,84.72,317,71.2,317.31,70.12Z"/><path class="cls-8" d="M278,50.46c3.39,1.23,3.61,8,.47,13.83s-8.2,9.31-11.83,7.35-4.06-8.28-.92-14.13S274.14,49,278,50.46Z"/></g></g><path class="cls-12" d="M98.43,120.54c8.65-3.17,21.17-4.84,20.55,2.11-.61,6.7-7.94,9-10.1,9.28l-.22,0a30.69,30.69,0,0,1-3.61.22,28.7,28.7,0,0,1-4-.26c-7-1.77-10.45-5.62-11.83-10A22.38,22.38,0,0,0,98.43,120.54Z"/><circle class="cls-13" cx="232.7" cy="203.91" r="104.13"/><g class="cls-14"><path class="cls-8" d="M335.48,187.11a104.32,104.32,0,0,1-29.09,90.38l-.06.05c-1.53,1.15-33.5,25.1-44.89,10-10.7-14.15,26.41-39.44,26.41-39.44,37.36-27.91,41.15-58.79,37.34-80.42a50.32,50.32,0,0,1,10.28,19.36A.1.1,0,0,1,335.48,187.11Z"/><path class="cls-8" d="M335.47,187.08a50.32,50.32,0,0,0-10.28-19.36,80.24,80.24,0,0,0-10.37-27.83A103.39,103.39,0,0,1,335.47,187.08Z"/><path class="cls-9" d="M314.82,139.89a80.24,80.24,0,0,1,10.37,27.83c-15.86-18.83-43.78-27.05-61.88-30.92-23.38-5-21.79-19-21.79-19,5.81-27.85,51.75,1.68,54.73,3.62l.15.1a104.84,104.84,0,0,1,18.34,18.24l.07.1Z"/><path class="cls-8" d="M228.77,277.09c11,0,19.91,4.11,19.91,9.76s-8.91,11.64-19.91,11.64-19.91-6.62-19.91-12.27S217.78,277.09,228.77,277.09Z"/><path class="cls-8" d="M178.11,151.25c31.3.87-1.72,49.29-6.5,84.93-4.13,30.88,15.28,67.46,54,71.63a104.13,104.13,0,0,1-61.08-182.64c-.68.76-24,27-20.81,44.36C147,187.19,159.89,150.74,178.11,151.25Z"/></g><circle class="cls-5" cx="232.7" cy="203.91" r="104.13"/><g class="cls-4"><circle class="cls-7" cx="507.28" cy="95.4" r="25.65"/><circle class="cls-15" cx="507.28" cy="95.4" r="25.65"/><g class="cls-6"><path class="cls-8" d="M532.93,95.56a24.69,24.69,0,0,1-.24,3.35C533.79,85.22,520,84,515.09,83.79s-19.05-1.17-13.24-8.6,17.44-2.4,17.86-2.23h0A25.62,25.62,0,0,1,532.93,95.56Z"/><path class="cls-9" d="M528.82,102c4.66,1.48-2.64,10.61-3.44,11.59,0,0,0,0,0,0a25.18,25.18,0,0,1-5.58,4.21l0,0a12.64,12.64,0,0,1-6.59,1.24,19.62,19.62,0,0,0,6-6.79C520.93,109.29,523.89,100.4,528.82,102Z"/><path class="cls-8" d="M513.16,119.06a12.64,12.64,0,0,0,6.59-1.24,25.55,25.55,0,0,1-12.63,3.24c-.41,0-.83,0-1.24,0A12.59,12.59,0,0,0,513.16,119.06Z"/><path class="cls-8" d="M508.21,116a7,7,0,0,0,4.95,3,12.59,12.59,0,0,1-7.28,2,25.63,25.63,0,0,1-18.73-41.5c-5.93,10.68-3.86,25,5.85,27.4S504.18,110.31,508.21,116Z"/><path class="cls-8" d="M497.11,78.86c.63,1.11,0,2.68-2,3.82s-3.79,1.91-5,.65c-.9-.92.58-2.78,2.43-4.17S496.48,77.75,497.11,78.86Z"/></g></g><path class="cls-16" d="M490.13,202.13s2.1,19.67-1.63,32.07c0,0-1.78,5.57-6.52,6.11a10.91,10.91,0,0,0,5.31-7.51c.83-5.22,2.14-25,1.11-29.37a6.85,6.85,0,0,0-1.87-3.4h0c0-.17,1.77-2.81,1.77-2.81h0A10.35,10.35,0,0,1,490.13,202.13Z"/><path class="cls-17" d="M488.4,203.43c1,4.38-.28,24.15-1.11,29.37a10.91,10.91,0,0,1-5.31,7.51,6.06,6.06,0,0,1-.76.05h-23.1l6.69-5.6.77.92c-.19.2-.38.4-.58.59,6.68-3.77,9.48-12.84,9.87-14.17,2.12-.63,5.47-2.09,5.42-5.46a3.68,3.68,0,0,0-4-4,12,12,0,0,0-1.37,1.54,61.08,61.08,0,0,0-4.07-21.61c3.57,1.46,7.55,3,9.26,3.75,2,.95,4.62,1.85,6.42,3.68h0A6.85,6.85,0,0,1,488.4,203.43Z"/><path class="cls-18" d="M488.31,197.21h0s-1.73,2.64-1.77,2.81c-1.8-1.83-4.4-2.73-6.42-3.68-1.71-.79-5.69-2.29-9.26-3.75a41.2,41.2,0,0,1-6.18-2.92,34.64,34.64,0,0,1-4.43-3.68c1.5-2.42,8.89-6,8.89-6a61.32,61.32,0,0,1,6.35,7.8C478.69,192.43,485.09,192.74,488.31,197.21Z"/><path class="cls-19" d="M474.92,214.2a12,12,0,0,1,1.37-1.54,3.68,3.68,0,0,1,4,4c0,3.37-3.3,4.83-5.42,5.46l.05-.17c.89-.17,2.95-.9,2.86-4a3.91,3.91,0,0,0-3.19-3.38C474.65,214.52,474.77,214.37,474.92,214.2Z"/><path class="cls-17" d="M477.78,218c.09,3.05-2,3.78-2.86,4a3.4,3.4,0,0,1-.41.06V214.7l.08-.1A3.91,3.91,0,0,1,477.78,218Z"/><path class="cls-16" d="M470.85,192.59a61.08,61.08,0,0,1,4.07,21.61c-.15.17-.27.32-.33.4a4.52,4.52,0,0,0-.76-.09l-.44,0a.78.78,0,0,0,0-.14s0,0,0,0a66.25,66.25,0,0,0-3.21-15c-2.52-8.05-7.65-7.44-8.77-7.2l-.21-.78c-1.3-5-.93-5.36-.93-5.36a34.64,34.64,0,0,0,4.43,3.68A41.2,41.2,0,0,0,470.85,192.59Z"/><path class="cls-16" d="M474.87,222.1c-.39,1.33-3.19,10.4-9.87,14.17.2-.19.39-.39.58-.59,2.8-3,5.07-6.64,6.95-12.62a21.71,21.71,0,0,0,.91-6.53h0a10.2,10.2,0,0,0-.05-2l.44,0a4.52,4.52,0,0,1,.76.09l-.08.1V222a3.4,3.4,0,0,0,.41-.06Z"/><path class="cls-20" d="M473.44,216.53a21.71,21.71,0,0,1-.91,6.53c-1.88,6-4.15,9.66-6.95,12.62l-.77-.92.2-.17A21.62,21.62,0,0,0,470,220.78c0-11.75-9.28-21.28-20.72-21.28a20.27,20.27,0,0,0-9.73,2.48c1.1-.76,12.53-8.37,21.35-3.85,7.94,4.06,11.82,11.3,12.5,16.24,0,0,0,0,0,0,0,.72.07,1.42.07,2.11Z"/><path class="cls-17" d="M435,202.41a90.6,90.6,0,0,1,3.88-11.53,163.21,163.21,0,0,0,22.25,1.3l.22-.05c1.12-.24,6.25-.85,8.77,7.2a66.25,66.25,0,0,1,3.21,15c-.68-4.94-4.56-12.18-12.5-16.24-8.82-4.52-20.25,3.09-21.35,3.85l-.09.05a10.11,10.11,0,0,0-.9.53l-4.08,3.13-.14-.18S434.52,204.35,435,202.41Z"/><path class="cls-19" d="M470,220.78A21.62,21.62,0,0,1,465,234.59l-.2.17-6.69,5.6h0a21.5,21.5,0,0,0,6.59-15.56c0-11.75-9.29-21.28-20.73-21.28a20.29,20.29,0,0,0-10.48,2.92l1-.75,4.08-3.13a10.11,10.11,0,0,1,.9-.53l.09-.05a20.27,20.27,0,0,1,9.73-2.48C460.68,199.5,470,209,470,220.78Z"/><path class="cls-10" d="M463.59,177l3.26.19a15.74,15.74,0,0,0-2.14,1.52,31.18,31.18,0,0,0-3.2-.45A13.91,13.91,0,0,1,463.59,177Z"/><path class="cls-21" d="M469.13,180s-7.39,3.6-8.89,6a45.46,45.46,0,0,0-18.77-.73s4.1-5.43,8.42-6.83c0,0,.61-.08,1.64-.18a11.25,11.25,0,0,0-1.38,1.39l3.54.08a14.93,14.93,0,0,1,1.52-1.67,51,51,0,0,1,6.3.18,12.61,12.61,0,0,0-1.95,1.72l3.77,0a12.6,12.6,0,0,1,1.38-1.29A20.84,20.84,0,0,1,469.13,180Z"/><path class="cls-10" d="M464.71,178.68a12.6,12.6,0,0,0-1.38,1.29l-3.77,0a12.61,12.61,0,0,1,1.95-1.72A31.18,31.18,0,0,1,464.71,178.68Z"/><path class="cls-16" d="M440.63,187c.16-.35.33-.7.51-1.06l.33-.66a45.46,45.46,0,0,1,18.77.73s-.37.36.93,5.36l.21.78-.22.05a163.21,163.21,0,0,1-22.25-1.3c0-.12.1-.25.16-.38C439.55,189.35,440.07,188.17,440.63,187Z"/><path class="cls-20" d="M458.08,240.36a20.39,20.39,0,0,1-14.14,5.73,20.09,20.09,0,0,1-9.13-2.18,18.22,18.22,0,0,0,7.23,1.48,19.34,19.34,0,1,0-18.8-19.93c0-.21,0-.44,0-.66a21.51,21.51,0,0,1,7.68-16.54,23.22,23.22,0,0,1,2.56-1.82,20.29,20.29,0,0,1,10.48-2.92c11.44,0,20.73,9.53,20.73,21.28A21.5,21.5,0,0,1,458.08,240.36Z"/><path class="cls-10" d="M453.83,176.56l3.12,0a15.28,15.28,0,0,0-1.74,1.45c-1.47,0-2.75.13-3.68.2A18.66,18.66,0,0,1,453.83,176.56Z"/><path class="cls-19" d="M427.14,237.24a21.37,21.37,0,0,1-3.9-11.78A18.83,18.83,0,1,1,442,245.39a18.22,18.22,0,0,1-7.23-1.48A20.63,20.63,0,0,1,427.14,237.24ZM455,226.05A12.93,12.93,0,1,0,442,239.34,13.1,13.1,0,0,0,455,226.05Z"/><path class="cls-10" d="M455.21,178.05a14.93,14.93,0,0,0-1.52,1.67l-3.54-.08a11.25,11.25,0,0,1,1.38-1.39C452.46,178.18,453.74,178.09,455.21,178.05Z"/><path class="cls-20" d="M442,212.78a13.29,13.29,0,1,1-12.92,13.27A13.1,13.1,0,0,1,442,212.78Zm11.36,12.95a10.77,10.77,0,1,0-10.77,11.06A10.91,10.91,0,0,0,453.4,225.73Z"/><path class="cls-22" d="M442.63,214.68a11.06,11.06,0,1,1-10.77,11A10.91,10.91,0,0,1,442.63,214.68Zm5,9.89a3.21,3.21,0,1,0-3.21,3.3A3.26,3.26,0,0,0,447.67,224.57Z"/><path class="cls-23" d="M444.46,221.28a3.3,3.3,0,1,1-3.2,3.29A3.26,3.26,0,0,1,444.46,221.28Z"/><path class="cls-19" d="M441,185.83l.18.09c-.18.36-.35.71-.51,1.06-9.83,1.52-13,0-13,0S433,184.07,441,185.83Z"/><path class="cls-20" d="M440.63,187c-.56,1.19-1.08,2.37-1.56,3.52-8.16,2-11.57-.09-11.57-.09l.14-3.48S430.8,188.5,440.63,187Z"/><path class="cls-18" d="M439.07,190.5c-.06.13-.11.26-.16.38A90.6,90.6,0,0,0,435,202.41l-4.09-.27h0c0-1.69,0-3.58.08-5.44.14-5.5-10.91-3.84-11.45-3.75a33.43,33.43,0,0,1,8-2.54S430.91,192.46,439.07,190.5Z"/><path class="cls-17" d="M430.94,202.14l4.09.27c-.51,1.94-.73,3.1-.73,3.1l.14.18-1,.75a23.22,23.22,0,0,0-2.56,1.82s0-2.66,0-6.12Z"/><path class="cls-16" d="M419.54,193c.54-.09,11.59-1.75,11.45,3.75,0,1.86-.06,3.75-.08,5.44a48.7,48.7,0,0,1-10.79,2.21h-.33a26.06,26.06,0,0,1-7.67-1.76,16.78,16.78,0,0,1,1-3.89c1.13-2.61,3.73-4.47,6.41-5.75Zm2.11,7.66c2-.31,3.42-1.61,3.22-2.91s-2-2.07-3.95-1.75-3.42,1.6-3.21,2.9S419.68,200.92,421.65,200.61Z"/><path class="cls-19" d="M430.91,202.14c0,3.46,0,6.12,0,6.12a21.51,21.51,0,0,0-7.68,16.54c0,.22,0,.45,0,.66s0,.4,0,.59a19.59,19.59,0,0,0,3.36,11,5.47,5.47,0,0,0-3.58.7,7.35,7.35,0,0,1-1,.43c-3.08-13-2.21-33.87-2.21-33.87h.33A48.7,48.7,0,0,0,430.91,202.14Z"/><path class="cls-19" d="M427.14,237.24c-.17-.05-.35-.11-.55-.15h0a19.59,19.59,0,0,1-3.36-11c0-.19,0-.39,0-.59A21.37,21.37,0,0,0,427.14,237.24Z"/><path class="cls-19" d="M424.87,197.7c.2,1.3-1.24,2.6-3.22,2.91s-3.74-.47-3.94-1.76,1.23-2.59,3.21-2.9S424.67,196.42,424.87,197.7Zm-3.36,1.75c1.22-.19,2.11-1,2-1.78s-1.21-1.28-2.43-1.09-2.1,1-2,1.78S420.3,199.65,421.51,199.45Z"/><path class="cls-17" d="M423.49,197.67c.13.79-.76,1.59-2,1.78s-2.31-.29-2.43-1.09.76-1.58,2-1.78S423.37,196.87,423.49,197.67Z"/><path class="cls-17" d="M419.79,204.35s-.87,20.91,2.21,33.87c-4.09,1.51-9.23-.13-9.76-5.37-.5-4.81-1.51-21.42-.12-30.26A26.06,26.06,0,0,0,419.79,204.35Z"/><path class="cls-24" d="M300.06,80.6a2.2,2.2,0,0,1-1.89,2.46l-15.23,2a2.32,2.32,0,0,1-1.47-.32c.19-.25.38-.5.59-.76a1.59,1.59,0,0,0,.92.17l14.91-1.93a1.51,1.51,0,0,0,1.31-1.7l-2.08-16.1h0c.25-.33.5-.64.73-.93Z"/><path class="cls-25" d="M299.2,80.49a1.51,1.51,0,0,1-1.31,1.7L283,84.12a1.59,1.59,0,0,1-.92-.17c4.22-5.5,11.06-14.39,15.06-19.56Z"/><path class="cls-24" d="M297.58,61.49l.27,2c-.23.29-.48.6-.73.93l-.26-2Z"/><path class="cls-24" d="M297.1,57.71l.48,3.78-.72.93-.48-3.76C296.63,58.32,296.88,58,297.1,57.71Z"/><path class="cls-26" d="M297.12,64.38h0c-4,5.17-10.84,14.06-15.06,19.56a1.5,1.5,0,0,1-.78-1.15l0-.12c4.16-5.41,11.43-14.87,15.6-20.26Z"/><path class="cls-24" d="M295.94,48.77l1.16,8.94c-.22.3-.47.61-.72.95l-1.16-8.95h0Z"/><path class="cls-25" d="M296.38,58.66l.48,3.76c-4.17,5.39-11.44,14.85-15.6,20.26l-.48-3.76s0,0,0,0C285.2,73.14,292.49,63.67,296.38,58.66Z"/><path class="cls-26" d="M295.22,49.71l1.16,8.95c-3.89,5-11.18,14.48-15.6,20.25l-1.16-9C284.42,63.71,291.8,54.12,295.22,49.71Z"/><path class="cls-24" d="M295.76,47.34l.18,1.43-.72.93L295,47.76a1.51,1.51,0,0,0-1.7-1.32l-2.95.38-9,1.17-2.95.38a1.52,1.52,0,0,0-1.31,1.7L279.62,70l-.72.93-2.72-21a2.19,2.19,0,0,1,1.89-2.46l15.23-2A2.19,2.19,0,0,1,295.76,47.34Z"/><path class="cls-25" d="M295.22,49.7h0c-3.42,4.41-10.8,14-15.6,20.25l-2.57-19.89a1.52,1.52,0,0,1,1.31-1.7l2.95-.38.94.73a1.91,1.91,0,0,0,1.35.37l2.39-.32,2.39-.31a1.83,1.83,0,0,0,1.22-.7l.72-.94,2.95-.38a1.51,1.51,0,0,1,1.7,1.32Z"/><path class="cls-24" d="M290.32,46.82l-.72.94a1.83,1.83,0,0,1-1.22.7l-2.39.31-2.39.32a1.91,1.91,0,0,1-1.35-.37l-.94-.73Z"/><path class="cls-24" d="M282.06,84c-.21.26-.4.51-.59.76a2.27,2.27,0,0,1-.89-1.15l.68-.88,0,.12A1.5,1.5,0,0,0,282.06,84Z"/><path class="cls-24" d="M280.78,78.92l.48,3.76-.68.88a1.93,1.93,0,0,1-.1-.43l-.43-3.29Z"/><path class="cls-24" d="M280.78,78.91s0,0,0,0l-.73.92L278.9,70.9h0l.72-.93Z"/><rect class="cls-27" x="492.58" y="86.97" width="31.13" height="19.19" rx="1.83" transform="translate(11.6 241.42) rotate(-27.02)"/><rect class="cls-28" x="493.63" y="96.01" width="5.53" height="1.04" transform="translate(10.34 236.08) rotate(-27.02)"/><rect class="cls-28" x="502.66" y="90.08" width="10.74" height="1.04" transform="translate(14.3 240.71) rotate(-27.02)"/><rect class="cls-28" x="503.93" y="93.06" width="6.72" height="1.04" transform="translate(12.87 240.7) rotate(-27.02)"/><rect class="cls-28" x="504.99" y="95.13" width="6.72" height="1.04" transform="translate(12.04 241.41) rotate(-27.02)"/><rect class="cls-10" x="495.87" y="99.04" width="5.53" height="3.72" transform="translate(8.59 237.57) rotate(-27.02)"/><rect class="cls-28" x="497.98" y="104.54" width="5.53" height="1.02" transform="translate(6.94 238.98) rotate(-27.02)"/><path class="cls-28" d="M522.72,96.55,520.4,97A2.37,2.37,0,0,1,519,95.26s0,0,0,0a3.78,3.78,0,0,0-.39-2.32c-.8-1.56-2.39-2.33-3.58-1.73s-1.51,2.35-.71,3.92A3.72,3.72,0,0,0,516,96.78v0a2.35,2.35,0,0,1,.59,2.19l-1.75,1.6.27.85,4.09-2.09,4.09-2.08Z"/><path class="cls-29" d="M101.81,227.6c0,.07-.68,1.69-.68,1.69a5.92,5.92,0,0,0-3.77,2.46s0,0,0,0a24.82,24.82,0,0,1-2,2.55A9.19,9.19,0,0,1,85,237s0,0,0,0-7.65-3.22-6.58-9.9c.07-.4.13-.78.22-1.15h0l.72-3.64a.8.8,0,0,1,.27-.49l.69-.69-2.22-1.22-2.46-.66,0,1a1,1,0,0,1-.15.55l-2,3.12h0c-.19.3-.42.63-.64,1-3.86,5.56-11.47,2.61-11.6,2.56h0a9.18,9.18,0,0,1-5.67-9.09,27.65,27.65,0,0,1,.36-3.19s0,0,0,0a5.91,5.91,0,0,0-1-4.38s.63-1.63.67-1.69,5.45.59,6.45.72h.17a20.88,20.88,0,0,1,5.54,1.54h0c4,1.61,6.35,3.47,7.16,5.68a9.13,9.13,0,0,1,4.07.66,9.33,9.33,0,0,1,3.39,2.34c2.11-1,5.08-.73,9.09.88h0a21,21,0,0,1,5,2.74.06.06,0,0,1,0,0l.09.09C97.48,224.26,101.81,227.52,101.81,227.6Zm-7.15,6.13c2.42-2.56,3.5-4.76,3-6.73s-2.51-3.54-6.57-5.17a18.28,18.28,0,0,0-5-1.36,6,6,0,0,0-3.43.64c-1.67.93-2.6,2.83-3.14,6.2-1,6,5.8,8.55,5.87,8.58h0C85.48,235.79,90.65,238,94.66,233.73Zm-22.83-9.54c1.94-2.8,2.59-4.82,2-6.64a5.89,5.89,0,0,0-2-2.84,18.26,18.26,0,0,0-4.51-2.48c-4.07-1.63-6.7-1.85-8.33-.82s-2.47,3.41-2.49,6.92c-.07,5.86,5.18,7.87,5.14,8h0C61.72,226.32,68.38,229.15,71.83,224.19Z"/><path class="cls-24" d="M97.67,227c.49,2-.59,4.17-3,6.73-4,4.26-9.18,2.06-9.22,2.16h0c-.07,0-6.83-2.62-5.87-8.58.54-3.37,1.47-5.27,3.14-6.2a6,6,0,0,1,3.43-.64,18.28,18.28,0,0,1,5,1.36C95.16,223.46,97.21,225.14,97.67,227Z"/><path class="cls-24" d="M73.87,217.55c.55,1.82-.1,3.84-2,6.64-3.45,5-10.11,2.13-10.18,2.1h0c0-.09-5.21-2.1-5.14-8,0-3.51.78-5.84,2.49-6.92s4.26-.81,8.33.82a18.26,18.26,0,0,1,4.51,2.48A5.89,5.89,0,0,1,73.87,217.55Z"/><path class="cls-30" d="M90.78,222.57a15.49,15.49,0,0,0-4.41-1.19,5.24,5.24,0,0,0-3,.55c-1.46.83-2.28,2.51-2.78,5.5a5.79,5.79,0,0,0,.78,4c2.32-6.59,10.15-7.73,11.63-7.88A21.67,21.67,0,0,0,90.78,222.57Z"/><path class="cls-30" d="M59.65,212.26c-1.52,1-2.18,3-2.21,6.14a7.2,7.2,0,0,0,1,3.81c2.22-6.3,9.48-7.61,11.4-7.86A20.24,20.24,0,0,0,67,213C63.44,211.54,61.1,211.36,59.65,212.26Z"/><rect class="cls-31" x="95.74" y="86.83" width="19.46" height="33.5" rx="3.33" transform="translate(-36.9 63.78) rotate(-28.86)"/><circle class="cls-10" cx="96.27" cy="95.49" r="2.92"/><path class="cls-31" d="M98,95.94A1.73,1.73,0,0,1,97.14,97l0,0a1.73,1.73,0,0,1-1.3.15A1.77,1.77,0,0,1,94.58,95l-.45-.13a2.24,2.24,0,0,0,.21,1.75,2.27,2.27,0,0,0,1.35,1,2.21,2.21,0,0,0,1.65-.2l0,0a2.22,2.22,0,0,0,1-1.35Z"/><circle class="cls-10" cx="103.54" cy="91.48" r="2.92"/><path class="cls-31" d="M105.23,91.94a1.71,1.71,0,0,1-.82,1.06l0,0a1.73,1.73,0,0,1-1.3.16,1.71,1.71,0,0,1-1.07-.82,1.75,1.75,0,0,1-.16-1.38l-.45-.14A2.22,2.22,0,0,0,103,93.63a2.23,2.23,0,0,0,1.66-.2l0,0a2.2,2.2,0,0,0,1-1.35Z"/><circle class="cls-10" cx="99.98" cy="102.22" r="2.92"/><path class="cls-31" d="M101.67,102.67a1.76,1.76,0,0,1-.82,1.07l0,0a1.78,1.78,0,0,1-1.3.15,1.75,1.75,0,0,1-1.23-2.2l-.45-.13a2.24,2.24,0,0,0,1.56,2.79,2.21,2.21,0,0,0,1.65-.2l0,0a2.22,2.22,0,0,0,1-1.35Z"/><circle class="cls-10" cx="107.25" cy="98.21" r="2.92"/><path class="cls-31" d="M108.94,98.67a1.75,1.75,0,0,1-.82,1.06l0,0a1.75,1.75,0,0,1-2.53-2l-.45-.14a2.22,2.22,0,0,0,3.2,2.59l0,0a2.2,2.2,0,0,0,1-1.35Z"/><circle class="cls-10" cx="103.69" cy="108.95" r="2.92"/><path class="cls-31" d="M105.38,109.4a1.76,1.76,0,0,1-.82,1.07h0a1.73,1.73,0,0,1-1.3.16,1.75,1.75,0,0,1-1.23-2.2l-.45-.13a2.24,2.24,0,0,0,.21,1.75,2.25,2.25,0,0,0,3,.84l0,0a2.22,2.22,0,0,0,1-1.35Z"/><circle class="cls-10" cx="110.96" cy="104.94" r="2.92"/><path class="cls-31" d="M112.65,105.4a1.78,1.78,0,0,1-.82,1.06l0,0a1.75,1.75,0,0,1-2.53-2l-.45-.14a2.22,2.22,0,0,0,3.2,2.59l0,0a2.2,2.2,0,0,0,1-1.35Z"/><circle class="cls-10" cx="107.4" cy="115.68" r="2.92"/><path class="cls-31" d="M109.09,116.13a1.76,1.76,0,0,1-.82,1.07h0a1.73,1.73,0,0,1-1.3.16,1.75,1.75,0,0,1-1.23-2.2l-.45-.13a2.24,2.24,0,0,0,.21,1.75,2.17,2.17,0,0,0,1.35,1,2.21,2.21,0,0,0,1.65-.19l0,0a2.17,2.17,0,0,0,1-1.35Z"/><circle class="cls-10" cx="114.67" cy="111.67" r="2.92"/><path class="cls-31" d="M116.36,112.13a1.78,1.78,0,0,1-.82,1.06l0,0a1.75,1.75,0,0,1-2.53-2l-.45-.14a2.22,2.22,0,0,0,3.2,2.59l0,0a2.2,2.2,0,0,0,1-1.35Z"/><path class="cls-32" d="M277.36,232.72c-.51,6.25-4.83,8.49-4.83,8.49L266,244s3.94-7.21,5-9.38,4-2.49,4.22-2.52h0Z"/><path class="cls-33" d="M277.36,232.72l-2.13-.65h0l-6.65-2a3.23,3.23,0,0,0-.12-.53c-.48-6.4-5.36-72.27-5.86-79.72a17.73,17.73,0,0,0-.83-4.65c1.13.81,2.29,1.68,3.45,2.61,7.27,5.86,7.66,15.44,7.66,15.44s3.86,58.9,4.47,67A16,16,0,0,1,277.36,232.72Z"/><path class="cls-34" d="M268.58,230l6.65,2c-.2,0-3.2.43-4.22,2.52s-5,9.38-5,9.38l-32.1,13.56s-2-.59-7-1.93-9.85,1.64-9.85,1.64l0,.07-2.64-.84c.82-.36,49.76-21.79,52.4-23A2.92,2.92,0,0,0,268.58,230Z"/><path class="cls-32" d="M268.58,230a2.92,2.92,0,0,1-1.75,3.45c-2.64,1.19-51.58,22.62-52.4,23h0l-4.18-1.33,39.56-17.62,11.6-5.16,1.78-.8s1.73-.26,1.39-2.76l3.92,1.21Z"/><path class="cls-32" d="M268.49,230l-3.92-1.21h0s-4.54-61.25-5.75-75.64c-.77-9.26-2.61-11.47-3.3-12,1.82,1,4,2.39,6.25,4a17.73,17.73,0,0,1,.83,4.65c.5,7.45,5.38,73.32,5.86,79.72Z"/><path class="cls-34" d="M264.57,228.79c.34,2.5-1.39,2.76-1.39,2.76l-1.78.8s2.91-3.44.08-4.41l0-.09Z"/><path class="cls-33" d="M253.6,140.07l1.66.93,0,0,.14.07a.28.28,0,0,1,.09.06c.69.52,2.53,2.73,3.3,12,1.21,14.39,5.75,75.64,5.75,75.64h0l-3.06-.94-6.82-2.09s-4.57-61.24-5.75-75.64c-1-11.74-4.2-12.26-5.37-12.06,4.44-1.2,6.9.44,6.9.44S251.68,139,253.6,140.07Z"/><path class="cls-32" d="M261.48,227.94c2.83,1-.08,4.41-.08,4.41l-11.6,5.16a8.72,8.72,0,0,1-7.13.15c-6-2.78-3.39-5.42-3.39-5.42l15.41-6.48,6.82,2.09Z"/><path class="cls-35" d="M243.21,138.16h0a1.39,1.39,0,0,0,.19-.06l.16,0c1.17-.2,4.41.32,5.37,12.06,1.18,14.4,5.75,75.64,5.75,75.64l-15.41,6.48-31.61,13.27-9.64,4a4.76,4.76,0,0,1-1.2-3s-3.2-42.79-4.59-61.86,6.06-22,6.06-22l29-16.14,3.29-1.83,9.8-5.45A18,18,0,0,1,243.21,138.16ZM222,166.05a2.1,2.1,0,0,0,1.12-2l-.08-2.52a1,1,0,0,0-1.41-.79l-7.48,4a2.14,2.14,0,0,0-1.12,1.93l.06,2.51a1,1,0,0,0,1.4.82Z"/><path class="cls-32" d="M257.31,141c1.18.58,2.85,1.67,2.85,1.67s.89.39,1.61,2.45c-2.27-1.59-4.43-2.93-6.25-4a.28.28,0,0,0-.09-.06l-.14-.07,0,0a2.27,2.27,0,0,1,1-.33A2.73,2.73,0,0,1,257.31,141Z"/><path class="cls-34" d="M249.8,237.51l-39.56,17.62-1-.32.09-.28s.34-2.31.46-5.49-2.1-3.53-2.1-3.53l31.61-13.27s-2.65,2.64,3.39,5.42A8.72,8.72,0,0,0,249.8,237.51Z"/><path class="cls-36" d="M257.31,141a2.73,2.73,0,0,0-1.05-.34,2.27,2.27,0,0,0-1,.33l-1.66-.93c-.22-3.51-.6-9.54-.79-12.62a4.65,4.65,0,0,0,1.71-.66,11.12,11.12,0,0,0,1.9-1.36C256.63,129.27,257.17,138.6,257.31,141Z"/><path class="cls-37" d="M230.31,138.84a10.57,10.57,0,0,1-1.3,1.1,12.7,12.7,0,0,1-2,.92c-3.73,1.28-3.16-2-3.16-2l-.11-3.75c-.27-2.82,1.59-3.63,1.59-3.63s20.55-12,25.52-15,5.38.39,6,3.12c.71,3.11,1,4.44-.42,5.84a11.12,11.12,0,0,1-1.9,1.36,4.65,4.65,0,0,1-1.71.66,4.36,4.36,0,0,1-4-1.75c-8.42,8.1-16.5,9.38-16.5,9.38A5.86,5.86,0,0,1,230.31,138.84Z"/><path class="cls-32" d="M227,255.59c5,1.34,7,1.93,7,1.93a21,21,0,0,1-12.46,1.18l-4.41-1.4,0-.07S222,254.26,227,255.59Z"/><path class="cls-36" d="M230.6,144.75l-3.29,1.83c-.11-2.18-.22-4.29-.3-5.72a12.7,12.7,0,0,0,2-.92,10.57,10.57,0,0,0,1.3-1.1C230.37,140.19,230.48,142.42,230.6,144.75Z"/><path class="cls-10" d="M223.11,164.08a2.1,2.1,0,0,1-1.12,2l-7.51,4a1,1,0,0,1-1.4-.82l-.06-2.51a2.14,2.14,0,0,1,1.12-1.93l7.48-4a1,1,0,0,1,1.41.79Z"/><path class="cls-32" d="M214.42,256.46a4.56,4.56,0,0,1-3,.21c-1.58-.5-3-1-3-1a.67.67,0,0,1,.09-1.07c.26.07.52.16.78.25l1,.32Z"/><path class="cls-32" d="M209.77,249c-.12,3.18-.46,5.49-.46,5.49l-.09.28c-.26-.09-.52-.18-.78-.25l-4.68-1.49a11.35,11.35,0,0,1-5.73-3.52l9.64-4S209.88,245.86,209.77,249Z"/><path class="cls-37" d="M211.38,255.94a5.12,5.12,0,1,1-5.53,5.16,2.46,2.46,0,0,1,0-.47,5.09,5.09,0,0,1,5.24-4.69A.88.88,0,0,1,211.38,255.94Z"/><path class="cls-37" d="M211.1,255.92v0a5.09,5.09,0,0,0-5.24,4.69,2.46,2.46,0,0,0,0,.47h0l-.88-8.52a5,5,0,0,1,4-1.75S208.37,255.67,211.1,255.92Z"/><path class="cls-37" d="M257.87,236.09a5.12,5.12,0,1,1-5.54,5.15c0-.16,0-.32,0-.48a5.12,5.12,0,0,1,5.26-4.68A1.2,1.2,0,0,1,257.87,236.09Z"/><path class="cls-37" d="M257.6,236.06v0a5.12,5.12,0,0,0-5.26,4.68c0,.16,0,.32,0,.48h0l-.87-8.52a4.93,4.93,0,0,1,4-1.75S254.86,235.81,257.6,236.06Z"/><path class="cls-37" d="M275,244.66a5.12,5.12,0,1,1-5.53,5.15,2.46,2.46,0,0,1,0-.47,5.09,5.09,0,0,1,5.24-4.69A1.31,1.31,0,0,1,275,244.66Z"/><path class="cls-37" d="M274.72,244.63v0a5.09,5.09,0,0,0-5.24,4.69,2.46,2.46,0,0,0,0,.47h0l-.88-8.52a5,5,0,0,1,4-1.75S272,244.38,274.72,244.63Z"/><path class="cls-37" d="M230.81,262.21a5.12,5.12,0,1,1-5.53,5.16c0-.16,0-.32,0-.48a5.11,5.11,0,0,1,5.25-4.68Z"/><path class="cls-37" d="M230.54,262.19v0a5.11,5.11,0,0,0-5.25,4.68c0,.16,0,.32,0,.48h0l-.88-8.52a5,5,0,0,1,4-1.76S227.8,261.94,230.54,262.19Z"/><g class="cls-38"><g class="cls-39"><line class="cls-40" x1="437.36" y1="204.67" x2="444.59" y2="200.08"/><line class="cls-40" x1="440.85" y1="204.48" x2="448.08" y2="199.89"/><line class="cls-40" x1="444.05" y1="204.48" x2="451.28" y2="199.89"/><line class="cls-40" x1="447.24" y1="204.67" x2="454.47" y2="200.08"/><line class="cls-40" x1="449.94" y1="205.58" x2="457.17" y2="201"/><line class="cls-40" x1="452.56" y1="206.69" x2="459.79" y2="202.11"/><line class="cls-40" x1="454.97" y1="208.15" x2="462.2" y2="203.57"/><line class="cls-40" x1="457.25" y1="210.17" x2="464.48" y2="205.58"/><line class="cls-40" x1="458.89" y1="212.46" x2="466.12" y2="207.88"/><line class="cls-40" x1="460.24" y1="215.12" x2="467.47" y2="210.54"/><line class="cls-40" x1="461.39" y1="217.42" x2="468.62" y2="212.83"/><line class="cls-40" x1="462.51" y1="220.08" x2="469.74" y2="215.5"/><line class="cls-40" x1="462.51" y1="222.42" x2="469.74" y2="217.84"/><line class="cls-40" x1="462.51" y1="224.71" x2="469.74" y2="220.13"/><line class="cls-40" x1="462.51" y1="226.62" x2="469.74" y2="222.04"/><line class="cls-40" x1="462.73" y1="228.72" x2="469.96" y2="224.14"/><line class="cls-40" x1="462.31" y1="231.01" x2="469.53" y2="226.43"/><line class="cls-40" x1="461.97" y1="232.81" x2="469.2" y2="228.23"/><line class="cls-40" x1="461.39" y1="235.02" x2="468.62" y2="230.44"/></g></g></g><g id="bg3"><g class="cls-4"><circle class="cls-7" cx="389.02" cy="103.87" r="42.36"/><circle class="cls-41" cx="389.02" cy="103.87" r="42.36"/><path class="cls-42" d="M388.24,69.1c1.07,9.28-10.93,13.67-20.44,16.17-4.59,1.2-9.78,3-13.85,6.07.55-10.34,8.7-20.6,8.7-20.6a42.2,42.2,0,0,1,11.41-6.5l.14,0C375.62,63.75,387.24,60.39,388.24,69.1Z"/><path class="cls-9" d="M388.24,69.1c1.07,9.28-10.93,13.67-20.44,16.17-4.59,1.2-9.78,3-13.85,6.07.55-10.34,8.7-20.6,8.7-20.6a42.2,42.2,0,0,1,11.41-6.5l.14,0C375.62,63.75,387.24,60.39,388.24,69.1Z"/><g class="cls-6"><path class="cls-8" d="M425.15,118.9c6.74-12.06-1.42-21.65-11.53-28.52s-22.18-13.62-18.28-21.52c3.6-7.31,12.89-2.74,14.27-2l.17.1a42.36,42.36,0,0,1-37.7,75.75c4,1.29,11.05,1.8,20.14-5C406.61,126.94,418.41,131,425.15,118.9Z"/><path class="cls-8" d="M358,103.17c11.3,12.28,26,24.89,17.77,30.55-9.07,6.2-21.31-4.29-24.61-11a42.07,42.07,0,0,1-4.32-15.6v-.06c-.27-7.52,2.81-12.43,7.16-15.77A15.57,15.57,0,0,0,358,103.17Z"/><path class="cls-8" d="M346.67,103.87a42.23,42.23,0,0,1,16-33.13S354.5,81,354,91.34c-4.35,3.34-7.43,8.25-7.16,15.77Q346.67,105.51,346.67,103.87Z"/></g></g><rect class="cls-43" x="374.68" y="98.23" width="2.07" height="5.61" transform="translate(172.24 432.65) rotate(-73.52)"/><path class="cls-43" d="M413.06,92.62a3.19,3.19,0,0,1,2.15,3.95l-.23.79-43-12.7.23-.79a3.18,3.18,0,0,1,4-2.15Z"/><polygon class="cls-44" points="414.98 97.36 413.36 102.85 413.35 102.85 370.34 90.15 371.96 84.66 414.98 97.36"/><path class="cls-43" d="M370.34,90.15l43,12.7-4.5,15.27a3.19,3.19,0,0,1-4,2.15L368,109.37a3.19,3.19,0,0,1-2.15-4Zm37.93,19.43,1.78-6L372.53,92.46l-1.79,6,2.58.76-.59,2a2.68,2.68,0,0,0-1.51,5.15l5.37,1.6a2.69,2.69,0,0,0,1.52-5.16l.59-2Zm-15.75-1.2.35-1.21-9.55-2.81-.35,1.2ZM389.63,110l.36-1.21-7.33-2.17-.35,1.21Z"/><polygon class="cls-45" points="410.05 103.54 408.27 109.58 378.7 100.84 373.32 99.25 370.74 98.49 372.53 92.46 410.05 103.54"/><polygon class="cls-46" points="392.87 107.17 392.52 108.38 382.97 105.56 383.32 104.36 392.87 107.17"/><polygon class="cls-46" points="389.99 108.78 389.63 109.99 382.31 107.82 382.66 106.61 389.99 108.78"/><path class="cls-47" d="M378.11,102.82a2.69,2.69,0,0,1-1.52,5.16l-5.37-1.6a2.68,2.68,0,0,1,1.51-5.15Z"/></g><g id="Layer_7" data-name="Layer 7"><ellipse class="cls-10" cx="83.1" cy="90.84" rx="2.57" ry="1.38" transform="translate(-37.12 117.39) rotate(-60)"/><ellipse class="cls-10" cx="51.71" cy="203.83" rx="2.57" ry="1.38" transform="translate(-150.66 146.7) rotate(-60)"/><ellipse class="cls-10" cx="269.92" cy="52.77" rx="2.31" ry="1.24" transform="translate(89.26 260.14) rotate(-60)"/><ellipse class="cls-10" cx="490.56" cy="85.09" rx="2.57" ry="1.38" transform="matrix(0.5, -0.87, 0.87, 0.5, 171.59, 467.38)"/><ellipse class="cls-10" cx="162.43" cy="155.24" rx="9.44" ry="5.08" transform="translate(-53.23 218.29) rotate(-60)"/><ellipse class="cls-10" cx="363.93" cy="81.59" rx="3.91" ry="2.1" transform="translate(111.31 355.97) rotate(-60)"/></g></g></svg>
