<svg id="Ebene_1" data-name="Ebene 1" xmlns="http://www.w3.org/2000/svg" xmlns:xlink="http://www.w3.org/1999/xlink" viewBox="0 0 195.85327 48">
  <defs>
    <style>
      .cls-1 {
        fill: #181715;
      }

      .cls-2 {
        fill: url(#Unbenannter_Verlauf);
      }
    </style>
    <linearGradient id="Unbenannter_Verlauf" data-name="Unbenannter Verlauf" x1="7.09948" y1="7.92676" x2="41.04061" y2="41.86789" gradientTransform="matrix(1, 0, 0, -1, 0, 48.89741)" gradientUnits="userSpaceOnUse">
      <stop offset="0" stop-color="#e30613" stop-opacity="0"/>
      <stop offset="0.06" stop-color="#e30613" stop-opacity="0.03"/>
      <stop offset="0.15" stop-color="#e30613" stop-opacity="0.13"/>
      <stop offset="0.26" stop-color="#e30613" stop-opacity="0.28"/>
      <stop offset="0.38" stop-color="#e30613" stop-opacity="0.49"/>
      <stop offset="0.52" stop-color="#e30613" stop-opacity="0.76"/>
      <stop offset="0.63" stop-color="#e30613"/>
      <stop offset="1" stop-color="#e30613"/>
    </linearGradient>
  </defs>
  <title>RE_Stammlogo_RGB_rot-schwarz_48px</title>
  <g>
    <path class="cls-1" d="M63.35509,25.2983H60.578v6.88617H57.71068V15.80441h5.21543c4.83161,0,7.29257,1.12888,7.29257,4.71872a4.143,4.143,0,0,1-3.07056,4.222l3.74788,7.428H67.66741L64.213,25.26443A7.07889,7.07889,0,0,1,63.35509,25.2983Zm-2.777-2.25776h2.84478c2.461,0,3.86077-.49671,3.86077-2.461,0-2.16745-1.73848-2.51741-3.99624-2.51741H60.578Z" transform="translate(-0.07004 -0.00009)"/>
    <path class="cls-1" d="M79.09168,19.76678c2.93509,0,4.13171,1.89652,4.13171,4.78646v7.63123H80.53664V25.208c0-1.64817-.24835-3.25118-2.25776-3.25118s-2.8222,1.58044-2.8222,3.77046v6.4572H72.72479V15.80441h2.68674v5.91534A3.95108,3.95108,0,0,1,79.09168,19.76678Z" transform="translate(-0.07004 -0.00009)"/>
    <path class="cls-1" d="M91.12555,30.2428a2.99154,2.99154,0,0,0,2.98024-1.69332h2.64158a5.49765,5.49765,0,0,1-5.50893,3.9285c-3.90593,0-6.14112-2.98024-6.14112-6.4572a5.89277,5.89277,0,0,1,5.51988-6.24341q.22-.01353.44061-.01058c3.72531,0,6.0508,3.0254,5.825,7.11194h-9.031A3.38664,3.38664,0,0,0,91.12555,30.2428Zm3.0254-5.32832a3.05927,3.05927,0,0,0-3.07035-3.04814l-.02278.00016a3.16086,3.16086,0,0,0-3.2286,3.048Z" transform="translate(-0.07004 -0.00009)"/>
    <path class="cls-1" d="M101.56769,18.525H98.881V15.80441h2.68674Zm0,13.65945H98.881V20.03772h2.68674Z" transform="translate(-0.07004 -0.00009)"/>
    <path class="cls-1" d="M110.70033,19.76678c2.93509,0,4.13171,1.89652,4.13171,4.78646v7.63123h-2.72061V25.208c0-1.64817-.24835-3.25118-2.25776-3.25118s-2.8222,1.58044-2.8222,3.77046v6.4572h-2.73189V20.03772h2.68674V21.731A3.95109,3.95109,0,0,1,110.70033,19.76678Z" transform="translate(-0.07004 -0.00009)"/>
    <path class="cls-1" d="M129.293,15.80441v2.39323h-8.715V22.5777h8.18438v2.37065h-8.24083v4.809h8.715v2.4158H117.71068V15.80441Z" transform="translate(-0.07004 -0.00009)"/>
    <path class="cls-1" d="M137.79347,19.76678c2.93508,0,4.1317,1.89652,4.1317,4.78646v7.63123h-2.68673V25.208c0-1.64817-.24835-3.25118-2.25776-3.25118s-2.8222,1.58044-2.8222,3.77046v6.4572h-2.68673V20.03772h2.68673V21.731A3.95108,3.95108,0,0,1,137.79347,19.76678Z" transform="translate(-0.07004 -0.00009)"/>
    <path class="cls-1" d="M149.83862,30.2428a2.99153,2.99153,0,0,0,2.98024-1.69332h2.64158a5.49763,5.49763,0,0,1-5.50894,3.9285c-3.90594,0-6.14112-2.98024-6.14112-6.4572a5.89276,5.89276,0,0,1,5.51988-6.24341q.22-.01353.44061-.01058c3.72531,0,6.0508,3.0254,5.825,7.11194h-9.031A3.38664,3.38664,0,0,0,149.83862,30.2428Zm3.02539-5.32832a3.05926,3.05926,0,0,0-3.07035-3.04814l-.02279.00016a3.16088,3.16088,0,0,0-3.2286,3.048Z" transform="translate(-0.07004 -0.00009)"/>
    <path class="cls-1" d="M162.95621,22.70187c-1.69333,0-2.66416.67733-2.66416,3.11571v6.36689h-2.68674V20.03772h2.64157v2.16745a3.635,3.635,0,0,1,3.29633-2.19h.6999v2.70931Q163.5658,22.70187,162.95621,22.70187Z" transform="translate(-0.07004 -0.00009)"/>
    <path class="cls-1" d="M176.67211,20.03772V30.96528a5.57659,5.57659,0,0,1-1.46754,4.28974,6.12985,6.12985,0,0,1-4.31234,1.30951c-2.66415,0-4.78646-1.06115-5.19285-3.72531h2.66416c.24835,1.12888.99342,1.603,2.59642,1.603a2.969,2.969,0,0,0,2.41581-.88053,3.09319,3.09319,0,0,0,.60959-2.05456V30.08475a4.01883,4.01883,0,0,1-3.61242,1.89652c-2.86735,0-5.28315-2.32549-5.28315-6.11853s2.4158-6.096,5.28315-6.096a4.01883,4.01883,0,0,1,3.61242,1.89652V20.03772Zm-8.78269,5.825c0,2.48354,1.28693,3.99624,3.07056,3.99624s3.13829-1.26435,3.13829-3.99624S172.721,21.91166,170.96,21.91166,167.88942,23.42436,167.88942,25.86274Z" transform="translate(-0.07004 -0.00009)"/>
    <path class="cls-1" d="M182.09074,18.525H179.404V15.80441h2.68674Zm0,13.65945H179.404V20.03772h2.68674Z" transform="translate(-0.07004 -0.00009)"/>
    <path class="cls-1" d="M190.151,30.2428a2.99153,2.99153,0,0,0,2.98024-1.69332h2.64158a5.49763,5.49763,0,0,1-5.50894,3.9285c-3.90594,0-6.14112-2.98024-6.14112-6.4572a5.89276,5.89276,0,0,1,5.51989-6.24341q.22-.01353.4406-.01058c3.72531,0,6.0508,3.0254,5.825,7.11194h-9.031A3.38664,3.38664,0,0,0,190.151,30.2428Zm3.02539-5.32832a3.05926,3.05926,0,0,0-3.07035-3.04814l-.02279.00016a3.16088,3.16088,0,0,0-3.2286,3.048Z" transform="translate(-0.07004 -0.00009)"/>
    <path class="cls-2" d="M24.07.00009a24,24,0,1,0,24,24h0A24,24,0,0,0,24.07.00009Zm0,38.38193A14.40451,14.40451,0,1,1,38.452,23.955q0,.02256,0,.04513A14.40451,14.40451,0,0,1,24.07,38.382Z" transform="translate(-0.07004 -0.00009)"/>
  </g>
</svg>
